<svg preserveAspectRatio="none" width="100%" height="100%" overflow="visible" style="display: block;" viewBox="0 0 21 10" fill="none" xmlns="http://www.w3.org/2000/svg">
<g id="XMLID_16_">
<path id="XMLID_360_" d="M17.541 0.875C18.8344 0.875 19.8867 1.92734 19.8867 3.2207V3.33203C19.8867 4.62538 18.8344 5.67773 17.541 5.67773H9.39941C8.6526 5.67799 8.04516 6.2854 8.04492 7.03223C8.04492 7.77925 8.65245 8.38744 9.39941 8.3877H15.3213C15.5945 8.38788 15.8163 8.60955 15.8164 8.88281C15.8164 9.15616 15.5946 9.37774 15.3213 9.37793H9.39941C8.10627 9.37767 7.05469 8.32543 7.05469 7.03223C7.05492 5.73922 8.10642 4.68776 9.39941 4.6875H17.541C18.2882 4.6875 18.8965 4.0792 18.8965 3.33203V3.2207C18.8965 2.47352 18.2882 1.86523 17.541 1.86523H1.37012C1.09675 1.86523 0.875028 1.64348 0.875 1.37012C0.875 1.09673 1.09673 0.875 1.37012 0.875H17.541Z" fill="var(--fill-0, #9356E2)" stroke="var(--stroke-0, #9356E2)" stroke-width="0.25"/>
</g>
</svg>
