<svg preserveAspectRatio="none" width="100%" height="100%" overflow="visible" style="display: block;" viewBox="0 0 40 40" fill="none" xmlns="http://www.w3.org/2000/svg">
<g id="receipt">
<path id="Vector" d="M13.6995 2.91634H26.3001C29.7542 2.91636 31.7181 3.48566 32.8714 4.7054C34.0388 5.94023 34.5833 8.05592 34.5833 11.7337V30.5003C34.5833 32.2292 34.2274 33.2747 33.8372 33.9046C33.4547 34.5222 33.0044 34.7968 32.6927 34.9251C32.3908 35.0447 31.8939 35.1547 31.2191 34.9788C30.5362 34.8008 29.6029 34.3117 28.473 33.1117H28.472C27.978 32.5795 27.3145 32.2059 26.5316 32.2269L26.3949 32.2347C25.6284 32.2858 24.9301 32.6926 24.4495 33.3333V33.3343L22.766 35.5843L22.764 35.5863C22.0373 36.5645 21.0087 37.0832 20.0003 37.0833C18.9918 37.0833 17.9625 36.5647 17.2357 35.5863L17.2337 35.5843L15.5501 33.3343V33.3333L15.3626 33.1068C14.9046 32.6032 14.301 32.28 13.6224 32.2347H13.6087L13.5941 32.2337C13.0993 32.2173 12.6251 32.3517 12.2054 32.599L11.7728 32.2122L10.6497 33.4447L10.9281 33.7025C10.0709 34.4799 9.34762 34.8333 8.78841 34.9788C8.11035 35.1552 7.60833 35.0445 7.30697 34.9251L7.30208 34.9232L7.18197 34.8714C6.88731 34.7329 6.49925 34.4611 6.16243 33.9173C5.77272 33.2881 5.41639 32.2385 5.41634 30.5003V11.7337C5.41634 8.05592 5.96087 5.94023 7.12825 4.7054C8.28153 3.48559 10.2456 2.91639 13.6995 2.91634ZM13.6995 3.75033C12.2924 3.75034 11.1076 3.81993 10.1331 4.04134C9.14528 4.26583 8.32035 4.65814 7.69271 5.33626C7.07067 6.00837 6.71822 6.87951 6.51595 7.91829C6.31477 8.95161 6.25033 10.2163 6.25033 11.7337V30.5003C6.25035 31.4373 6.36544 32.2097 6.55892 32.7952C6.65536 33.087 6.77871 33.3546 6.93392 33.5775C7.07791 33.7842 7.29363 34.0126 7.59896 34.1351V34.137C7.60492 34.1395 7.61153 34.1415 7.61751 34.1439C7.61976 34.1447 7.6221 34.146 7.62435 34.1468V34.1458C8.09333 34.3267 8.63883 34.1931 9.10482 33.9661C9.62103 33.7147 10.2196 33.2654 10.8939 32.5492L10.8949 32.5501C11.6585 31.7725 12.5684 31.3831 13.4671 31.3831H13.6497C14.6138 31.4389 15.5543 31.9513 16.1986 32.8148L16.1995 32.8158L17.8831 35.0658L17.8841 35.0687C18.4165 35.7749 19.1624 36.2122 19.9915 36.2122C20.8206 36.2122 21.5666 35.7748 22.099 35.0687L22.1009 35.0658L23.7796 32.8216C24.447 31.9458 25.3796 31.4346 26.3607 31.3822H26.3617C27.331 31.3298 28.3297 31.7356 29.0736 32.5345L29.0755 32.5365C29.755 33.2606 30.3598 33.7131 30.8792 33.9661C31.3533 34.1969 31.9098 34.3323 32.3841 34.137L32.387 34.1361C32.6912 34.0093 32.9069 33.7767 33.0531 33.5638C33.2059 33.3411 33.3278 33.0742 33.4242 32.7826C33.6174 32.1978 33.7337 31.4301 33.7337 30.5003V11.7337C33.7337 10.2163 33.6683 8.95161 33.4671 7.91829C33.2648 6.8795 32.9124 6.00837 32.2904 5.33626C31.6627 4.65818 30.8378 4.26582 29.8499 4.04134C28.8755 3.81996 27.6907 3.75033 26.2835 3.75033H13.6995Z" fill="var(--fill-0, #292D32)" stroke="var(--stroke-0, #041117)" stroke-width="1.66667"/>
<path id="Vector_2" d="M26.6667 12.9167H13.3333C12.65 12.9167 12.0833 12.35 12.0833 11.6667C12.0833 10.9833 12.65 10.4167 13.3333 10.4167H26.6667C27.35 10.4167 27.9167 10.9833 27.9167 11.6667C27.9167 12.35 27.35 12.9167 26.6667 12.9167Z" fill="var(--fill-0, #292D32)"/>
<path id="Vector_3" d="M25 19.5833H15C14.3167 19.5833 13.75 19.0167 13.75 18.3333C13.75 17.65 14.3167 17.0833 15 17.0833H25C25.6833 17.0833 26.25 17.65 26.25 18.3333C26.25 19.0167 25.6833 19.5833 25 19.5833Z" fill="var(--fill-0, #292D32)"/>
<g id="Vector_4" opacity="0">
</g>
</g>
</svg>
