<svg preserveAspectRatio="none" width="100%" height="100%" overflow="visible" style="display: block;" viewBox="0 0 40 40" fill="none" xmlns="http://www.w3.org/2000/svg">
<g id="cloud">
<path id="Vector" d="M10.8698 9.64095C13.7349 6.63647 18.3558 5.43946 22.3034 6.66243H22.3053C25.876 7.76121 28.4412 10.7097 29.3864 14.931L29.5026 15.4466L30.0173 15.5628C33.1213 16.2593 35.6175 18.6085 36.6364 21.9076V21.9085C37.7304 25.4986 36.7387 29.135 34.0846 31.4554L34.0749 31.4642C32.3596 33.0108 30.1248 33.883 27.8005 33.8831H9.28874C4.92583 33.5615 2.98311 30.2497 2.98307 27.2327C2.98307 24.5259 4.55245 21.6001 7.91178 20.7933L8.73405 20.5951L8.52409 19.7757C7.51985 15.8526 8.37518 12.2428 10.8678 9.6429L10.8698 9.64095ZM22.0436 7.46908C18.3596 6.34392 14.1328 7.44578 11.4655 10.222L11.4645 10.223C9.00644 12.7919 8.34882 16.3173 9.45085 20.0677L9.60221 20.5853L10.1364 20.6585C10.8034 20.7501 11.4428 20.9326 12.0358 21.2035L12.2878 21.3245C12.5031 21.4361 12.5766 21.6876 12.4753 21.8851C12.3641 22.1017 12.1117 22.1762 11.9137 22.0745L11.61 21.93C10.9571 21.6423 10.2579 21.4815 9.55143 21.4554C9.47454 21.433 9.41093 21.4224 9.37174 21.4193C9.34522 21.4172 9.32327 21.4166 9.31022 21.4163H9.2194L9.18913 21.4183C7.38609 21.5511 6.01729 22.3216 5.10905 23.432C4.21319 24.5272 3.80046 25.9085 3.80046 27.2327C3.80048 28.5572 4.21399 29.94 5.12077 31.0365C6.03984 32.1478 7.42508 32.915 9.25651 33.0472L9.28678 33.0492H27.7311C29.8468 33.0127 31.896 32.2815 33.4928 30.8333L33.4919 30.8324C36.3985 28.2721 36.5779 24.6493 35.8132 22.1546C35.0498 19.6488 32.895 16.7268 29.0719 16.2396L29.0671 16.2386L29.0016 16.2259C28.8747 16.1893 28.7699 16.0926 28.7223 15.9554L28.7038 15.8831C27.9949 11.6513 25.6583 8.58081 22.0456 7.46908H22.0436Z" fill="var(--fill-0, #292D32)" stroke="var(--stroke-0, #576165)" stroke-width="1.66667"/>
<path id="Vector_2" d="M29.2041 15.4163C29.4189 15.411 29.617 15.6016 29.6172 15.8167V15.8372C29.6227 16.0623 29.4388 16.2503 29.2168 16.2503H29.1982C28.3148 16.2696 27.4094 16.4802 26.5938 16.888L26.5811 16.8949L26.5674 16.9017C26.4895 16.9441 26.4426 16.9505 26.417 16.9505C26.2556 16.9505 26.1223 16.8705 26.0508 16.722L26.0459 16.7122L26.041 16.7035L26.0137 16.6322C25.9671 16.4601 26.042 16.2485 26.2451 16.1429C27.1672 15.6829 28.192 15.4321 29.1953 15.4173L29.2041 15.4163Z" fill="var(--fill-0, #292D32)" stroke="var(--stroke-0, #576165)" stroke-width="1.66667"/>
<path id="Vector_3" opacity="0" d="M39.167 0.833008V39.167H0.833008V0.833008H39.167Z" stroke="var(--stroke-0, #576165)" stroke-width="1.66667"/>
</g>
</svg>
