<svg preserveAspectRatio="none" width="100%" height="100%" overflow="visible" style="display: block;" viewBox="0 0 41 41" fill="none" xmlns="http://www.w3.org/2000/svg">
<g id="18-Website">
<path id="Vector" d="M38.5 1H2.25C1.55964 1 1 1.55964 1 2.25V38.5C1 39.1904 1.55964 39.75 2.25 39.75H38.5C39.1904 39.75 39.75 39.1904 39.75 38.5V2.25C39.75 1.55964 39.1904 1 38.5 1Z" stroke="var(--stroke-0, white)" stroke-width="1.5" stroke-linejoin="round"/>
<path id="Vector_2" d="M1 6H39.75" stroke="var(--stroke-0, white)" stroke-width="1.5" stroke-linejoin="round"/>
<path id="Vector_3" d="M2.875 3.5H4.125" stroke="var(--stroke-0, white)" stroke-width="1.5" stroke-linejoin="round"/>
<path id="Vector_4" d="M5.375 3.5H6.625" stroke="var(--stroke-0, white)" stroke-width="1.5" stroke-linejoin="round"/>
<path id="Vector_5" d="M36.625 3.5H37.875" stroke="var(--stroke-0, white)" stroke-width="1.5" stroke-linejoin="round"/>
<path id="Vector_6" d="M36 9.125H4.75C4.40482 9.125 4.125 9.40482 4.125 9.75V18.5C4.125 18.8452 4.40482 19.125 4.75 19.125H36C36.3452 19.125 36.625 18.8452 36.625 18.5V9.75C36.625 9.40482 36.3452 9.125 36 9.125Z" stroke="var(--stroke-0, white)" stroke-width="1.5" stroke-linejoin="round"/>
<path id="Vector_7" d="M14.75 22.25H4.75C4.40482 22.25 4.125 22.5298 4.125 22.875V25.375C4.125 25.7202 4.40482 26 4.75 26H14.75C15.0952 26 15.375 25.7202 15.375 25.375V22.875C15.375 22.5298 15.0952 22.25 14.75 22.25Z" stroke="var(--stroke-0, white)" stroke-width="1.5" stroke-linejoin="round"/>
<path id="Vector_8" d="M28.5 22.25H18.5C18.1548 22.25 17.875 22.5298 17.875 22.875V25.375C17.875 25.7202 18.1548 26 18.5 26H28.5C28.8452 26 29.125 25.7202 29.125 25.375V22.875C29.125 22.5298 28.8452 22.25 28.5 22.25Z" stroke="var(--stroke-0, white)" stroke-width="1.5" stroke-linejoin="round"/>
<path id="Vector_9" d="M36 22.25H32.25C31.9048 22.25 31.625 22.5298 31.625 22.875V25.375C31.625 25.7202 31.9048 26 32.25 26H36C36.3452 26 36.625 25.7202 36.625 25.375V22.875C36.625 22.5298 36.3452 22.25 36 22.25Z" stroke="var(--stroke-0, white)" stroke-width="1.5" stroke-linejoin="round"/>
<path id="Vector_10" d="M3.5 29.125H4.75" stroke="var(--stroke-0, white)" stroke-width="1.5" stroke-linejoin="round"/>
<path id="Vector_11" d="M6 29.125H7.25" stroke="var(--stroke-0, white)" stroke-width="1.5" stroke-linejoin="round"/>
<path id="Vector_12" d="M14.75 29.125H16" stroke="var(--stroke-0, white)" stroke-width="1.5" stroke-linejoin="round"/>
<path id="Vector_13" d="M17.25 29.125H18.5" stroke="var(--stroke-0, white)" stroke-width="1.5" stroke-linejoin="round"/>
<path id="Vector_14" d="M19.75 29.125H21" stroke="var(--stroke-0, white)" stroke-width="1.5" stroke-linejoin="round"/>
<path id="Vector_15" d="M28.5 29.125H29.75" stroke="var(--stroke-0, white)" stroke-width="1.5" stroke-linejoin="round"/>
<path id="Vector_16" d="M3.5 31.625H16" stroke="var(--stroke-0, white)" stroke-width="1.5" stroke-linejoin="round"/>
<path id="Vector_17" d="M3.5 34.125H16" stroke="var(--stroke-0, white)" stroke-width="1.5" stroke-linejoin="round"/>
<path id="Vector_18" d="M3.5 36.625H11.625" stroke="var(--stroke-0, white)" stroke-width="1.5" stroke-linejoin="round"/>
<path id="Vector_19" d="M17.25 31.625H29.75" stroke="var(--stroke-0, white)" stroke-width="1.5" stroke-linejoin="round"/>
<path id="Vector_20" d="M17.25 34.125H29.75" stroke="var(--stroke-0, white)" stroke-width="1.5" stroke-linejoin="round"/>
<path id="Vector_21" d="M17.25 36.625H25.375" stroke="var(--stroke-0, white)" stroke-width="1.5" stroke-linejoin="round"/>
<path id="Vector_22" d="M36 28.5H32.25C31.9048 28.5 31.625 28.7798 31.625 29.125V36.625C31.625 36.9702 31.9048 37.25 32.25 37.25H36C36.3452 37.25 36.625 36.9702 36.625 36.625V29.125C36.625 28.7798 36.3452 28.5 36 28.5Z" stroke="var(--stroke-0, white)" stroke-width="1.5" stroke-linejoin="round"/>
</g>
</svg>
