<svg preserveAspectRatio="none" width="100%" height="100%" overflow="visible" style="display: block;" viewBox="0 0 35 35" fill="none" xmlns="http://www.w3.org/2000/svg">
<g id="728977_key_access_password_protection_safe_icon 1" clip-path="url(#clip0_8769_19307)">
<path id="Vector" d="M31.7188 2.1875C31.8875 2.1875 32.2134 2.23016 32.492 2.50797C32.7709 2.7877 32.8125 3.11254 32.8125 3.28125C32.8125 3.44996 32.7709 3.7748 32.492 4.05453L31.2659 5.28063L30.625 5.92156V6.82746V10.9375H28.4375H26.25V13.125V15.3125H24.0625H21.875V17.5V19.6875H21.6549H18.9804L19.5111 22.3087C19.6276 22.8875 19.6875 23.4771 19.6875 24.0625C19.6875 28.8881 15.7623 32.8125 10.9375 32.8125C6.1127 32.8125 2.1875 28.8881 2.1875 24.0625C2.1875 19.2369 6.1127 15.3125 10.9375 15.3125C12.2929 15.3125 13.6421 15.6587 14.9472 16.3401L16.371 17.0836L17.5063 15.9471L30.9452 2.50824C31.2241 2.23016 31.55 2.1875 31.7188 2.1875ZM10.9375 28.4375C13.3503 28.4375 15.3125 26.4742 15.3125 24.0625C15.3125 21.6508 13.3503 19.6875 10.9375 19.6875C8.52469 19.6875 6.5625 21.6508 6.5625 24.0625C6.5625 26.4742 8.52469 28.4375 10.9375 28.4375ZM31.7188 0C30.8793 0 30.0396 0.320469 29.3989 0.961406L15.9597 14.4003C14.4495 13.612 12.7586 13.125 10.9375 13.125C4.89727 13.125 0 18.0212 0 24.0625C0 30.1038 4.89727 35 10.9375 35C16.9777 35 21.875 30.1038 21.875 24.0625C21.875 23.3127 21.7982 22.5821 21.6549 21.875H24.0625V17.5H28.4375V13.125H32.8125V6.82746L34.0386 5.60137C35.3205 4.31949 35.3205 2.24328 34.0386 0.961406C33.3979 0.320469 32.5582 0 31.7188 0ZM10.9375 26.25C9.72945 26.25 8.75 25.2716 8.75 24.0625C8.75 22.8534 9.72945 21.875 10.9375 21.875C12.1455 21.875 13.125 22.8534 13.125 24.0625C13.125 25.2716 12.1455 26.25 10.9375 26.25Z" fill="var(--fill-0, white)"/>
</g>
<defs>
<clipPath id="clip0_8769_19307">
<rect width="35" height="35" fill="white"/>
</clipPath>
</defs>
</svg>
