<svg preserveAspectRatio="none" width="100%" height="100%" overflow="visible" style="display: block;" viewBox="0 0 40 40" fill="none" xmlns="http://www.w3.org/2000/svg">
<g id="9073212_certificate_icon 1" clip-path="url(#clip0_8769_19361)">
<path id="Vector" d="M25.3333 38.6667H24C24 39.1717 24.2853 39.6333 24.737 39.8592C25.1888 40.0851 25.7293 40.0363 26.1333 39.7333L25.3333 38.6667ZM30.6667 34.6667L31.4667 33.6C30.9925 33.2445 30.3408 33.2445 29.8667 33.6L30.6667 34.6667ZM36 38.6667L35.2 39.7333C35.604 40.0363 36.1445 40.0851 36.5963 39.8592C37.048 39.6333 37.3333 39.1717 37.3333 38.6667H36ZM30.6667 29.3333C26.9848 29.3333 24 26.3486 24 22.6667H21.3333C21.3333 27.8213 25.512 32 30.6667 32V29.3333ZM37.3333 22.6667C37.3333 26.3486 34.3485 29.3333 30.6667 29.3333V32C35.8213 32 40 27.8213 40 22.6667H37.3333ZM30.6667 16C34.3485 16 37.3333 18.9848 37.3333 22.6667H40C40 17.512 35.8213 13.3333 30.6667 13.3333V16ZM30.6667 13.3333C25.512 13.3333 21.3333 17.512 21.3333 22.6667H24C24 18.9848 26.9848 16 30.6667 16V13.3333ZM24 28V38.6667H26.6667V28H24ZM26.1333 39.7333L31.4667 35.7333L29.8667 33.6L24.5333 37.6L26.1333 39.7333ZM29.8667 35.7333L35.2 39.7333L36.8 37.6L31.4667 33.6L29.8667 35.7333ZM37.3333 38.6667V28H34.6667V38.6667H37.3333ZM40 13.3333V4H37.3333V13.3333H40ZM36 0H4V2.66667H36V0ZM0 4V36H2.66667V4H0ZM4 40H21.3333V37.3333H4V40ZM0 36C0 38.2091 1.79086 40 4 40V37.3333C3.26363 37.3333 2.66667 36.7363 2.66667 36H0ZM4 0C1.79086 0 0 1.79086 0 4H2.66667C2.66667 3.26363 3.26363 2.66667 4 2.66667V0ZM40 4C40 1.79086 38.2091 0 36 0V2.66667C36.7363 2.66667 37.3333 3.26363 37.3333 4H40ZM8 13.3333H21.3333V10.6667H8V13.3333ZM8 21.3333H16V18.6667H8V21.3333Z" fill="var(--fill-0, white)"/>
</g>
<defs>
<clipPath id="clip0_8769_19361">
<rect width="40" height="40" fill="white"/>
</clipPath>
</defs>
</svg>
