<svg preserveAspectRatio="none" width="100%" height="100%" overflow="visible" style="display: block;" viewBox="0 0 20 20" fill="none" xmlns="http://www.w3.org/2000/svg">
<g id="material-symbols:arrow-forward-rounded">
<path id="Vector" d="M13.3804 10.7967H4.77047C4.55217 10.7967 4.36931 10.7208 4.2219 10.5688C4.07448 10.4169 4.00052 10.2291 4 10.0054C3.99949 9.78166 4.07345 9.59384 4.2219 9.4419C4.37034 9.28996 4.5532 9.21398 4.77047 9.21398H13.3804L9.60513 5.33626C9.45104 5.17799 9.37707 4.99333 9.38324 4.7823C9.3894 4.57127 9.46979 4.38662 9.62439 4.22834C9.77849 4.08326 9.95826 4.00728 10.1637 4.00043C10.3692 3.99357 10.549 4.06954 10.703 4.22834L15.7881 9.4514C15.8652 9.53053 15.9199 9.61627 15.9522 9.70859C15.9846 9.80092 16.0005 9.89984 16 10.0054C15.9995 10.1109 15.9836 10.2098 15.9522 10.3021C15.9209 10.3944 15.8662 10.4802 15.7881 10.5593L10.703 15.7824C10.5618 15.9275 10.3854 16 10.1737 16C9.96211 16 9.779 15.9275 9.62439 15.7824C9.4703 15.6241 9.39325 15.4363 9.39325 15.2189C9.39325 15.0016 9.4703 14.8135 9.62439 14.6547L13.3804 10.7967Z" fill="var(--fill-0, #111215)"/>
</g>
</svg>
