<svg preserveAspectRatio="none" width="100%" height="100%" overflow="visible" style="display: block;" viewBox="0 0 16 16" fill="none" xmlns="http://www.w3.org/2000/svg">
<g id="star">
<path id="Vector" d="M8.00033 1.21289C8.1345 1.21293 8.33879 1.24205 8.56478 1.37891C8.79026 1.5155 9.05811 1.77271 9.30111 2.26172L9.30208 2.2627L10.4749 4.60938L10.4779 4.61328C10.5571 4.76599 10.6959 4.90036 10.8255 4.99609C10.9546 5.0914 11.1253 5.18692 11.2982 5.21582H11.2992L13.4251 5.56836C13.9487 5.65614 14.2662 5.83472 14.4603 6.00781C14.6552 6.18171 14.743 6.36596 14.7816 6.49121C14.8217 6.62149 14.8563 6.82491 14.7992 7.08008C14.7493 7.30254 14.6255 7.58261 14.346 7.90039L14.2171 8.03809L12.5648 9.69727C12.4299 9.83218 12.343 10.0218 12.2952 10.1895C12.2473 10.3577 12.2226 10.5609 12.2611 10.7422L12.262 10.748L12.7357 12.7949C12.8781 13.4143 12.832 13.8274 12.7386 14.0957C12.6459 14.3618 12.4972 14.5107 12.389 14.5908C12.2662 14.6786 12.0674 14.7802 11.7738 14.7803C11.4936 14.7803 11.0974 14.6899 10.5687 14.3789H10.5677L8.5765 13.2002V13.1992L8.57454 13.1982L8.43783 13.1348C8.29555 13.0827 8.13919 13.0635 8.0013 13.0635C7.8641 13.0635 7.70696 13.0826 7.56478 13.1357L7.43099 13.1992L5.43099 14.3799H5.43001C4.88161 14.7052 4.4751 14.7859 4.19173 14.7773C3.91159 14.7689 3.72378 14.6722 3.61068 14.5908C3.50149 14.5099 3.35219 14.3602 3.25911 14.0947C3.16529 13.827 3.11952 13.4148 3.26497 12.7959V12.7949L3.73861 10.748L3.73665 10.7471C3.78095 10.5624 3.75517 10.3558 3.70736 10.1904C3.65859 10.0218 3.5701 9.83149 3.43587 9.69727L1.78255 8.04395C1.40736 7.66873 1.25339 7.34005 1.19661 7.08691C1.13966 6.83292 1.17545 6.63153 1.21712 6.50391C1.25925 6.37505 1.34903 6.18894 1.54427 6.01465C1.73878 5.8411 2.05547 5.66288 2.57552 5.5752L2.57454 5.57422L4.7015 5.22168C4.87451 5.19284 5.04603 5.09802 5.17513 5.00195C5.3037 4.90622 5.44366 4.7686 5.51986 4.61035L6.69759 2.2627L6.69857 2.26172C6.9415 1.77282 7.20945 1.51553 7.4349 1.37891C7.66109 1.24188 7.86612 1.21289 8.00033 1.21289ZM8.00033 1.55273C7.76318 1.55273 7.55892 1.67915 7.4056 1.82617C7.24875 1.97668 7.1102 2.18104 6.99544 2.41699L5.81576 4.76367C5.72729 4.9406 5.56701 5.12328 5.36654 5.27148C5.21637 5.38242 5.05503 5.466 4.90169 5.51465L4.7513 5.55078L2.63216 5.9043C2.37808 5.94553 2.14808 6.01951 1.96224 6.12598C1.78011 6.23036 1.60952 6.38532 1.53743 6.60156C1.46318 6.82467 1.516 7.05487 1.60482 7.24414C1.69614 7.43871 1.84388 7.63139 2.02669 7.81055L3.67806 9.46191C3.83044 9.61429 3.95707 9.84137 4.0306 10.0977C4.08569 10.2897 4.10639 10.4839 4.0931 10.6582L4.06868 10.8252L3.59505 12.8711C3.51232 13.2272 3.49463 13.5214 3.52669 13.7549C3.55714 13.9761 3.64151 14.1969 3.81966 14.3242C3.99515 14.4496 4.22756 14.4612 4.44661 14.4229C4.67733 14.3824 4.95133 14.2776 5.26693 14.0947L5.26986 14.0938L7.26302 12.9131L7.26595 12.9121C7.45839 12.7956 7.72329 12.7266 8.00033 12.7266C8.27636 12.7266 8.54307 12.7953 8.74447 12.9141V12.9131L10.7367 14.0928C11.0505 14.2803 11.3258 14.3861 11.5589 14.4258C11.7808 14.4634 12.0133 14.4482 12.1868 14.3242C12.3682 14.1947 12.449 13.9687 12.4779 13.751C12.5086 13.5186 12.4914 13.2259 12.4124 12.874L12.4115 12.8711L11.9378 10.8252H11.9388C11.8382 10.3855 12.0088 9.78928 12.3294 9.46191L13.9827 7.80859C14.1646 7.62668 14.3097 7.43422 14.3997 7.24121C14.4878 7.05227 14.5379 6.82831 14.472 6.61035L14.473 6.60938L14.4701 6.60156L14.4378 6.52246C14.3544 6.3469 14.2043 6.21721 14.0452 6.12598C13.8591 6.01928 13.628 5.9455 13.3734 5.9043H13.3743L11.2484 5.55078H11.2493C11.0547 5.51791 10.8336 5.41963 10.6331 5.27148C10.4327 5.12328 10.2734 4.9406 10.1849 4.76367L9.01107 2.41699C8.89281 2.18061 8.75218 1.97577 8.59408 1.8252C8.44058 1.67901 8.23731 1.55282 8.00033 1.55273Z" fill="var(--fill-0, #292D32)" stroke="var(--stroke-0, #041117)" stroke-width="0.666667"/>
<g id="Vector_2" opacity="0">
</g>
</g>
</svg>
