<svg preserveAspectRatio="none" width="100%" height="100%" overflow="visible" style="display: block;" viewBox="0 0 100 28" fill="none" xmlns="http://www.w3.org/2000/svg">
<g id="Fictional company logo" style="mix-blend-mode:plus-darker">
<g id="Logomark">
<g id="Shape">
<path fill-rule="evenodd" clip-rule="evenodd" d="M12.8332 26.8336C19.9208 26.8336 25.6665 21.0879 25.6665 14.0002C25.6665 6.91258 19.9208 1.16689 12.8332 1.16689C5.74559 1.16689 -3.58582e-05 6.91258 -3.58582e-05 14.0002C-3.58582e-05 21.0879 5.74559 26.8336 12.8332 26.8336ZM16.8367 7.14521C17.0316 6.45298 16.3599 6.04365 15.7464 6.48073L7.18217 12.5819C6.51683 13.0559 6.62148 14.0002 7.33937 14.0002H9.59456V13.9828H13.9898L10.4085 15.2464L8.8297 20.8553C8.63483 21.5475 9.30652 21.9568 9.92008 21.5197L18.4843 15.4186C19.1496 14.9446 19.0449 14.0002 18.3271 14.0002H14.9071L16.8367 7.14521Z" fill="var(--fill-0, #D6F6D9)"/>
<path fill-rule="evenodd" clip-rule="evenodd" d="M12.8332 26.8336C19.9208 26.8336 25.6665 21.0879 25.6665 14.0002C25.6665 6.91258 19.9208 1.16689 12.8332 1.16689C5.74559 1.16689 -3.58582e-05 6.91258 -3.58582e-05 14.0002C-3.58582e-05 21.0879 5.74559 26.8336 12.8332 26.8336ZM16.8367 7.14521C17.0316 6.45298 16.3599 6.04365 15.7464 6.48073L7.18217 12.5819C6.51683 13.0559 6.62148 14.0002 7.33937 14.0002H9.59456V13.9828H13.9898L10.4085 15.2464L8.8297 20.8553C8.63483 21.5475 9.30652 21.9568 9.92008 21.5197L18.4843 15.4186C19.1496 14.9446 19.0449 14.0002 18.3271 14.0002H14.9071L16.8367 7.14521Z" fill="url(#paint0_radial_8769_19228)"/>
</g>
</g>
<g id="Logotype">
<path d="M32.305 19.7806V17.7506H33.915V9.56057H32.305V7.53057H38.605C39.3517 7.53057 39.9991 7.6589 40.5475 7.91557C41.1075 8.16057 41.5391 8.51641 41.8425 8.98307C42.1575 9.43807 42.315 9.98641 42.315 10.6281V10.8031C42.315 11.3631 42.21 11.8239 42 12.1856C41.79 12.5356 41.5391 12.8097 41.2475 13.0081C40.9675 13.1947 40.6991 13.3289 40.4425 13.4106V13.7256C40.6991 13.7956 40.9791 13.9297 41.2825 14.1281C41.5858 14.3147 41.8425 14.5889 42.0525 14.9506C42.2741 15.3122 42.385 15.7847 42.385 16.3681V16.5431C42.385 17.2197 42.2275 17.8031 41.9125 18.2931C41.5975 18.7714 41.16 19.1389 40.6 19.3956C40.0516 19.6522 39.41 19.7806 38.675 19.7806H32.305ZM36.225 17.6806H38.395C38.8967 17.6806 39.2992 17.5581 39.6025 17.3131C39.9175 17.0681 40.075 16.7181 40.075 16.2631V16.0881C40.075 15.6331 39.9233 15.2831 39.62 15.0381C39.3167 14.7931 38.9083 14.6706 38.395 14.6706H36.225V17.6806ZM36.225 12.5706H38.36C38.8383 12.5706 39.2292 12.4481 39.5325 12.2031C39.8475 11.9581 40.005 11.6197 40.005 11.1881V11.0131C40.005 10.5697 39.8533 10.2314 39.55 9.99807C39.2467 9.75307 38.85 9.63057 38.36 9.63057H36.225V12.5706Z" fill="var(--fill-0, #D6F6D9)"/>
<path d="M32.305 19.7806V17.7506H33.915V9.56057H32.305V7.53057H38.605C39.3517 7.53057 39.9991 7.6589 40.5475 7.91557C41.1075 8.16057 41.5391 8.51641 41.8425 8.98307C42.1575 9.43807 42.315 9.98641 42.315 10.6281V10.8031C42.315 11.3631 42.21 11.8239 42 12.1856C41.79 12.5356 41.5391 12.8097 41.2475 13.0081C40.9675 13.1947 40.6991 13.3289 40.4425 13.4106V13.7256C40.6991 13.7956 40.9791 13.9297 41.2825 14.1281C41.5858 14.3147 41.8425 14.5889 42.0525 14.9506C42.2741 15.3122 42.385 15.7847 42.385 16.3681V16.5431C42.385 17.2197 42.2275 17.8031 41.9125 18.2931C41.5975 18.7714 41.16 19.1389 40.6 19.3956C40.0516 19.6522 39.41 19.7806 38.675 19.7806H32.305ZM36.225 17.6806H38.395C38.8967 17.6806 39.2992 17.5581 39.6025 17.3131C39.9175 17.0681 40.075 16.7181 40.075 16.2631V16.0881C40.075 15.6331 39.9233 15.2831 39.62 15.0381C39.3167 14.7931 38.9083 14.6706 38.395 14.6706H36.225V17.6806ZM36.225 12.5706H38.36C38.8383 12.5706 39.2292 12.4481 39.5325 12.2031C39.8475 11.9581 40.005 11.6197 40.005 11.1881V11.0131C40.005 10.5697 39.8533 10.2314 39.55 9.99807C39.2467 9.75307 38.85 9.63057 38.36 9.63057H36.225V12.5706Z" fill="url(#paint1_radial_8769_19228)" fill-opacity="0.2"/>
<path d="M47.601 20.0256C46.7377 20.0256 45.9619 19.8506 45.2735 19.5006C44.5852 19.1506 44.0427 18.6431 43.6461 17.9781C43.2494 17.3131 43.0511 16.5139 43.0511 15.5806V15.3006C43.0511 14.3672 43.2494 13.5681 43.6461 12.9031C44.0427 12.2381 44.5852 11.7306 45.2735 11.3806C45.9619 11.0306 46.7377 10.8556 47.601 10.8556C48.4644 10.8556 49.2402 11.0306 49.9285 11.3806C50.6168 11.7306 51.1593 12.2381 51.556 12.9031C51.9527 13.5681 52.151 14.3672 52.151 15.3006V15.5806C52.151 16.5139 51.9527 17.3131 51.556 17.9781C51.1593 18.6431 50.6168 19.1506 49.9285 19.5006C49.2402 19.8506 48.4644 20.0256 47.601 20.0256ZM47.601 18.0656C48.2777 18.0656 48.8377 17.8497 49.281 17.4181C49.7243 16.9747 49.946 16.3447 49.946 15.5281V15.3531C49.946 14.5364 49.7243 13.9122 49.281 13.4806C48.8494 13.0372 48.2894 12.8156 47.601 12.8156C46.9244 12.8156 46.3644 13.0372 45.921 13.4806C45.4777 13.9122 45.256 14.5364 45.256 15.3531V15.5281C45.256 16.3447 45.4777 16.9747 45.921 17.4181C46.3644 17.8497 46.9244 18.0656 47.601 18.0656Z" fill="var(--fill-0, #D6F6D9)"/>
<path d="M47.601 20.0256C46.7377 20.0256 45.9619 19.8506 45.2735 19.5006C44.5852 19.1506 44.0427 18.6431 43.6461 17.9781C43.2494 17.3131 43.0511 16.5139 43.0511 15.5806V15.3006C43.0511 14.3672 43.2494 13.5681 43.6461 12.9031C44.0427 12.2381 44.5852 11.7306 45.2735 11.3806C45.9619 11.0306 46.7377 10.8556 47.601 10.8556C48.4644 10.8556 49.2402 11.0306 49.9285 11.3806C50.6168 11.7306 51.1593 12.2381 51.556 12.9031C51.9527 13.5681 52.151 14.3672 52.151 15.3006V15.5806C52.151 16.5139 51.9527 17.3131 51.556 17.9781C51.1593 18.6431 50.6168 19.1506 49.9285 19.5006C49.2402 19.8506 48.4644 20.0256 47.601 20.0256ZM47.601 18.0656C48.2777 18.0656 48.8377 17.8497 49.281 17.4181C49.7243 16.9747 49.946 16.3447 49.946 15.5281V15.3531C49.946 14.5364 49.7243 13.9122 49.281 13.4806C48.8494 13.0372 48.2894 12.8156 47.601 12.8156C46.9244 12.8156 46.3644 13.0372 45.921 13.4806C45.4777 13.9122 45.256 14.5364 45.256 15.3531V15.5281C45.256 16.3447 45.4777 16.9747 45.921 17.4181C46.3644 17.8497 46.9244 18.0656 47.601 18.0656Z" fill="url(#paint2_radial_8769_19228)" fill-opacity="0.2"/>
<path d="M53.3113 19.7806V7.53057H55.5163V19.7806H53.3113Z" fill="var(--fill-0, #D6F6D9)"/>
<path d="M53.3113 19.7806V7.53057H55.5163V19.7806H53.3113Z" fill="url(#paint3_radial_8769_19228)" fill-opacity="0.2"/>
<path d="M60.4097 19.7806C59.8381 19.7806 59.3714 19.6056 59.0097 19.2556C58.6597 18.8939 58.4847 18.4156 58.4847 17.8206V12.9206H56.3147V11.1006H58.4847V8.40557H60.6897V11.1006H63.0697V12.9206H60.6897V17.4356C60.6897 17.7856 60.853 17.9606 61.1797 17.9606H62.8597V19.7806H60.4097Z" fill="var(--fill-0, #D6F6D9)"/>
<path d="M60.4097 19.7806C59.8381 19.7806 59.3714 19.6056 59.0097 19.2556C58.6597 18.8939 58.4847 18.4156 58.4847 17.8206V12.9206H56.3147V11.1006H58.4847V8.40557H60.6897V11.1006H63.0697V12.9206H60.6897V17.4356C60.6897 17.7856 60.853 17.9606 61.1797 17.9606H62.8597V19.7806H60.4097Z" fill="url(#paint4_radial_8769_19228)" fill-opacity="0.2"/>
<path d="M67.7956 20.0256C66.664 20.0256 65.7365 19.7806 65.0131 19.2906C64.2898 18.8006 63.8523 18.1006 63.7007 17.1906L65.7306 16.6656C65.8123 17.0739 65.9465 17.3947 66.1331 17.6281C66.3315 17.8614 66.5706 18.0306 66.8506 18.1356C67.1423 18.2289 67.4573 18.2756 67.7956 18.2756C68.309 18.2756 68.6881 18.1881 68.9331 18.0131C69.1781 17.8264 69.3006 17.5989 69.3006 17.3306C69.3006 17.0622 69.184 16.8581 68.9506 16.7181C68.7173 16.5664 68.344 16.4439 67.8306 16.3506L67.3406 16.2631C66.734 16.1464 66.1798 15.9889 65.6781 15.7906C65.1765 15.5806 64.774 15.2947 64.4706 14.9331C64.1673 14.5714 64.0157 14.1047 64.0157 13.5331C64.0157 12.6697 64.3307 12.0106 64.9606 11.5556C65.5906 11.0889 66.419 10.8556 67.4456 10.8556C68.414 10.8556 69.219 11.0714 69.8606 11.5031C70.5023 11.9347 70.9223 12.5006 71.1206 13.2006L69.0731 13.8306C68.9798 13.3872 68.7873 13.0722 68.4956 12.8856C68.2156 12.6989 67.8656 12.6056 67.4456 12.6056C67.0256 12.6056 66.7048 12.6814 66.4831 12.8331C66.2615 12.9731 66.1506 13.1714 66.1506 13.4281C66.1506 13.7081 66.2673 13.9181 66.5006 14.0581C66.734 14.1864 67.049 14.2856 67.4456 14.3556L67.9356 14.4431C68.589 14.5597 69.1781 14.7172 69.7031 14.9156C70.2398 15.1022 70.6598 15.3764 70.9631 15.7381C71.2781 16.0881 71.4356 16.5664 71.4356 17.1731C71.4356 18.0831 71.1031 18.7889 70.4381 19.2906C69.7848 19.7806 68.904 20.0256 67.7956 20.0256Z" fill="var(--fill-0, #D6F6D9)"/>
<path d="M67.7956 20.0256C66.664 20.0256 65.7365 19.7806 65.0131 19.2906C64.2898 18.8006 63.8523 18.1006 63.7007 17.1906L65.7306 16.6656C65.8123 17.0739 65.9465 17.3947 66.1331 17.6281C66.3315 17.8614 66.5706 18.0306 66.8506 18.1356C67.1423 18.2289 67.4573 18.2756 67.7956 18.2756C68.309 18.2756 68.6881 18.1881 68.9331 18.0131C69.1781 17.8264 69.3006 17.5989 69.3006 17.3306C69.3006 17.0622 69.184 16.8581 68.9506 16.7181C68.7173 16.5664 68.344 16.4439 67.8306 16.3506L67.3406 16.2631C66.734 16.1464 66.1798 15.9889 65.6781 15.7906C65.1765 15.5806 64.774 15.2947 64.4706 14.9331C64.1673 14.5714 64.0157 14.1047 64.0157 13.5331C64.0157 12.6697 64.3307 12.0106 64.9606 11.5556C65.5906 11.0889 66.419 10.8556 67.4456 10.8556C68.414 10.8556 69.219 11.0714 69.8606 11.5031C70.5023 11.9347 70.9223 12.5006 71.1206 13.2006L69.0731 13.8306C68.9798 13.3872 68.7873 13.0722 68.4956 12.8856C68.2156 12.6989 67.8656 12.6056 67.4456 12.6056C67.0256 12.6056 66.7048 12.6814 66.4831 12.8331C66.2615 12.9731 66.1506 13.1714 66.1506 13.4281C66.1506 13.7081 66.2673 13.9181 66.5006 14.0581C66.734 14.1864 67.049 14.2856 67.4456 14.3556L67.9356 14.4431C68.589 14.5597 69.1781 14.7172 69.7031 14.9156C70.2398 15.1022 70.6598 15.3764 70.9631 15.7381C71.2781 16.0881 71.4356 16.5664 71.4356 17.1731C71.4356 18.0831 71.1031 18.7889 70.4381 19.2906C69.7848 19.7806 68.904 20.0256 67.7956 20.0256Z" fill="url(#paint5_radial_8769_19228)" fill-opacity="0.2"/>
<path d="M72.4928 19.7806V7.53057H74.6978V12.1681H75.0128C75.1062 11.9814 75.252 11.7947 75.4503 11.6081C75.6487 11.4214 75.9112 11.2697 76.2378 11.1531C76.5762 11.0247 77.002 10.9606 77.5153 10.9606C78.192 10.9606 78.7811 11.1181 79.2828 11.4331C79.7961 11.7364 80.1928 12.1622 80.4728 12.7106C80.7528 13.2472 80.8928 13.8772 80.8928 14.6006V19.7806H78.6878V14.7756C78.6878 14.1222 78.5245 13.6322 78.1978 13.3056C77.8828 12.9789 77.4278 12.8156 76.8328 12.8156C76.1562 12.8156 75.6312 13.0431 75.2578 13.4981C74.8845 13.9414 74.6978 14.5656 74.6978 15.3706V19.7806H72.4928Z" fill="var(--fill-0, #D6F6D9)"/>
<path d="M72.4928 19.7806V7.53057H74.6978V12.1681H75.0128C75.1062 11.9814 75.252 11.7947 75.4503 11.6081C75.6487 11.4214 75.9112 11.2697 76.2378 11.1531C76.5762 11.0247 77.002 10.9606 77.5153 10.9606C78.192 10.9606 78.7811 11.1181 79.2828 11.4331C79.7961 11.7364 80.1928 12.1622 80.4728 12.7106C80.7528 13.2472 80.8928 13.8772 80.8928 14.6006V19.7806H78.6878V14.7756C78.6878 14.1222 78.5245 13.6322 78.1978 13.3056C77.8828 12.9789 77.4278 12.8156 76.8328 12.8156C76.1562 12.8156 75.6312 13.0431 75.2578 13.4981C74.8845 13.9414 74.6978 14.5656 74.6978 15.3706V19.7806H72.4928Z" fill="url(#paint6_radial_8769_19228)" fill-opacity="0.2"/>
<path d="M82.4015 19.7806V11.1006H84.6065V19.7806H82.4015ZM83.504 10.0856C83.1073 10.0856 82.769 9.95724 82.489 9.70057C82.2206 9.4439 82.0865 9.10557 82.0865 8.68557C82.0865 8.26557 82.2206 7.92724 82.489 7.67057C82.769 7.4139 83.1073 7.28557 83.504 7.28557C83.9123 7.28557 84.2506 7.4139 84.519 7.67057C84.7873 7.92724 84.9215 8.26557 84.9215 8.68557C84.9215 9.10557 84.7873 9.4439 84.519 9.70057C84.2506 9.95724 83.9123 10.0856 83.504 10.0856Z" fill="var(--fill-0, #D6F6D9)"/>
<path d="M82.4015 19.7806V11.1006H84.6065V19.7806H82.4015ZM83.504 10.0856C83.1073 10.0856 82.769 9.95724 82.489 9.70057C82.2206 9.4439 82.0865 9.10557 82.0865 8.68557C82.0865 8.26557 82.2206 7.92724 82.489 7.67057C82.769 7.4139 83.1073 7.28557 83.504 7.28557C83.9123 7.28557 84.2506 7.4139 84.519 7.67057C84.7873 7.92724 84.9215 8.26557 84.9215 8.68557C84.9215 9.10557 84.7873 9.4439 84.519 9.70057C84.2506 9.95724 83.9123 10.0856 83.504 10.0856Z" fill="url(#paint7_radial_8769_19228)" fill-opacity="0.2"/>
<path d="M87.6099 19.7806V12.9206H85.4049V11.1006H87.6099V9.49057C87.6099 8.89557 87.7849 8.42307 88.1349 8.07307C88.4965 7.7114 88.9632 7.53057 89.5349 7.53057H91.8099V9.35057H90.3049C89.9782 9.35057 89.8149 9.52557 89.8149 9.87557V11.1006H92.0899V12.9206H89.8149V19.7806H87.6099Z" fill="var(--fill-0, #D6F6D9)"/>
<path d="M87.6099 19.7806V12.9206H85.4049V11.1006H87.6099V9.49057C87.6099 8.89557 87.7849 8.42307 88.1349 8.07307C88.4965 7.7114 88.9632 7.53057 89.5349 7.53057H91.8099V9.35057H90.3049C89.9782 9.35057 89.8149 9.52557 89.8149 9.87557V11.1006H92.0899V12.9206H89.8149V19.7806H87.6099Z" fill="url(#paint8_radial_8769_19228)" fill-opacity="0.2"/>
<path d="M96.076 19.7806C95.5043 19.7806 95.0377 19.6056 94.676 19.2556C94.326 18.8939 94.151 18.4156 94.151 17.8206V12.9206H91.981V11.1006H94.151V8.40557H96.356V11.1006H98.736V12.9206H96.356V17.4356C96.356 17.7856 96.5193 17.9606 96.846 17.9606H98.526V19.7806H96.076Z" fill="var(--fill-0, #D6F6D9)"/>
<path d="M96.076 19.7806C95.5043 19.7806 95.0377 19.6056 94.676 19.2556C94.326 18.8939 94.151 18.4156 94.151 17.8206V12.9206H91.981V11.1006H94.151V8.40557H96.356V11.1006H98.736V12.9206H96.356V17.4356C96.356 17.7856 96.5193 17.9606 96.846 17.9606H98.526V19.7806H96.076Z" fill="url(#paint9_radial_8769_19228)" fill-opacity="0.2"/>
</g>
</g>
<defs>
<radialGradient id="paint0_radial_8769_19228" cx="0" cy="0" r="1" gradientTransform="matrix(35.3354 11.9269 -0.747622 35.3357 -1.42245 2.24266)" gradientUnits="userSpaceOnUse">
<stop stop-color="white" stop-opacity="0"/>
<stop offset="1" stop-color="white" stop-opacity="0.4"/>
</radialGradient>
<radialGradient id="paint1_radial_8769_19228" cx="0" cy="0" r="1" gradientTransform="matrix(77.0501 10.8926 -1.32552 14.7765 19.7426 7.10495)" gradientUnits="userSpaceOnUse">
<stop stop-color="white"/>
<stop offset="1" stop-color="white" stop-opacity="0.4"/>
</radialGradient>
<radialGradient id="paint2_radial_8769_19228" cx="0" cy="0" r="1" gradientTransform="matrix(77.0501 10.8926 -1.32552 14.7765 19.7426 7.10495)" gradientUnits="userSpaceOnUse">
<stop stop-color="white"/>
<stop offset="1" stop-color="white" stop-opacity="0.4"/>
</radialGradient>
<radialGradient id="paint3_radial_8769_19228" cx="0" cy="0" r="1" gradientTransform="matrix(77.0501 10.8926 -1.32552 14.7765 19.7426 7.10495)" gradientUnits="userSpaceOnUse">
<stop stop-color="white"/>
<stop offset="1" stop-color="white" stop-opacity="0.4"/>
</radialGradient>
<radialGradient id="paint4_radial_8769_19228" cx="0" cy="0" r="1" gradientTransform="matrix(77.0501 10.8926 -1.32552 14.7765 19.7426 7.10495)" gradientUnits="userSpaceOnUse">
<stop stop-color="white"/>
<stop offset="1" stop-color="white" stop-opacity="0.4"/>
</radialGradient>
<radialGradient id="paint5_radial_8769_19228" cx="0" cy="0" r="1" gradientTransform="matrix(77.0501 10.8926 -1.32552 14.7765 19.7426 7.10495)" gradientUnits="userSpaceOnUse">
<stop stop-color="white"/>
<stop offset="1" stop-color="white" stop-opacity="0.4"/>
</radialGradient>
<radialGradient id="paint6_radial_8769_19228" cx="0" cy="0" r="1" gradientTransform="matrix(77.0501 10.8926 -1.32552 14.7765 19.7426 7.10495)" gradientUnits="userSpaceOnUse">
<stop stop-color="white"/>
<stop offset="1" stop-color="white" stop-opacity="0.4"/>
</radialGradient>
<radialGradient id="paint7_radial_8769_19228" cx="0" cy="0" r="1" gradientTransform="matrix(77.0501 10.8926 -1.32552 14.7765 19.7426 7.10495)" gradientUnits="userSpaceOnUse">
<stop stop-color="white"/>
<stop offset="1" stop-color="white" stop-opacity="0.4"/>
</radialGradient>
<radialGradient id="paint8_radial_8769_19228" cx="0" cy="0" r="1" gradientTransform="matrix(77.0501 10.8926 -1.32552 14.7765 19.7426 7.10495)" gradientUnits="userSpaceOnUse">
<stop stop-color="white"/>
<stop offset="1" stop-color="white" stop-opacity="0.4"/>
</radialGradient>
<radialGradient id="paint9_radial_8769_19228" cx="0" cy="0" r="1" gradientTransform="matrix(77.0501 10.8926 -1.32552 14.7765 19.7426 7.10495)" gradientUnits="userSpaceOnUse">
<stop stop-color="white"/>
<stop offset="1" stop-color="white" stop-opacity="0.4"/>
</radialGradient>
</defs>
</svg>
