<svg preserveAspectRatio="none" width="100%" height="100%" overflow="visible" style="display: block;" viewBox="0 0 24 37" fill="none" xmlns="http://www.w3.org/2000/svg">
<g id="1">
<path id="Vector" d="M22.6406 36.026H1.34766C0.990236 36.026 0.647454 35.884 0.39472 35.6312C0.141985 35.3785 0 35.0357 0 34.6783V14.7923C0 14.4349 0.141985 14.0921 0.39472 13.8394C0.647454 13.5866 0.990236 13.4446 1.34766 13.4446H22.6406C22.998 13.4446 23.3408 13.5866 23.5936 13.8394C23.8463 14.0921 23.9883 14.4349 23.9883 14.7923V34.6783C23.9883 35.0357 23.8463 35.3785 23.5936 35.6312C23.3408 35.884 22.998 36.026 22.6406 36.026ZM2.69531 33.3307H21.293V16.14H2.69531V33.3307Z" fill="var(--fill-0, #7D23C9)"/>
<path id="Vector_2" d="M20.0945 16.14H3.90012C3.5427 16.14 3.19992 15.998 2.94718 15.7452C2.69445 15.4925 2.55246 15.1497 2.55246 14.7923V9.35315C2.57674 6.86419 3.58251 4.48541 5.35112 2.73397C7.11973 0.982521 9.5082 -1.04308e-07 11.9973 -1.04308e-07C14.4864 -1.04308e-07 16.8748 0.982521 18.6435 2.73397C20.4121 4.48541 21.4178 6.86419 21.4421 9.35315V14.7923C21.4421 15.1497 21.3001 15.4925 21.0474 15.7452C20.7947 15.998 20.4519 16.14 20.0945 16.14ZM5.24777 13.4446H18.7468V9.35315C18.7263 7.57656 18.0062 5.87969 16.7426 4.63063C15.4791 3.38157 13.774 2.68107 11.9973 2.68107C10.2206 2.68107 8.51551 3.38157 7.25195 4.63063C5.9884 5.87969 5.26827 7.57656 5.24777 9.35315V13.4446Z" fill="var(--fill-0, #7D23C9)"/>
<path id="Vector_3" d="M11.9977 27.2815C11.1715 27.2815 10.3637 27.0365 9.67671 26.5774C8.98968 26.1183 8.45421 25.4659 8.13801 24.7025C7.82181 23.9391 7.73908 23.0991 7.90027 22.2887C8.06147 21.4783 8.45936 20.7339 9.04363 20.1496C9.6279 19.5654 10.3723 19.1675 11.1827 19.0063C11.9931 18.8451 12.8331 18.9278 13.5965 19.244C14.3599 19.5602 15.0123 20.0957 15.4714 20.7827C15.9304 21.4697 16.1755 22.2775 16.1755 23.1037C16.1743 24.2114 15.7337 25.2733 14.9505 26.0565C14.1673 26.8398 13.1054 27.2803 11.9977 27.2815ZM11.9977 21.6213C11.7045 21.6213 11.4179 21.7083 11.1741 21.8712C10.9304 22.034 10.7404 22.2656 10.6282 22.5364C10.516 22.8073 10.4866 23.1054 10.5438 23.3929C10.601 23.6805 10.7422 23.9447 10.9495 24.152C11.1568 24.3593 11.421 24.5005 11.7085 24.5577C11.9961 24.6149 12.2942 24.5855 12.565 24.4733C12.8359 24.3611 13.0674 24.1711 13.2303 23.9273C13.3932 23.6835 13.4802 23.3969 13.4802 23.1037C13.4797 22.7107 13.3233 22.3339 13.0454 22.056C12.7675 21.7781 12.3908 21.6218 11.9977 21.6213Z" fill="var(--fill-0, #7D23C9)"/>
<path id="Vector_4" d="M11.9977 30.5455C11.6403 30.5455 11.2975 30.4035 11.0448 30.1508C10.7921 29.898 10.6501 29.5553 10.6501 29.1978V25.9338C10.6501 25.5764 10.7921 25.2336 11.0448 24.9809C11.2975 24.7281 11.6403 24.5862 11.9977 24.5862C12.3552 24.5862 12.6979 24.7281 12.9507 24.9809C13.2034 25.2336 13.3454 25.5764 13.3454 25.9338V29.1978C13.3454 29.5553 13.2034 29.898 12.9507 30.1508C12.6979 30.4035 12.3552 30.5455 11.9977 30.5455Z" fill="var(--fill-0, #7D23C9)"/>
</g>
</svg>
