<svg preserveAspectRatio="none" width="100%" height="100%" overflow="visible" style="display: block;" viewBox="0 0 17 18" fill="none" xmlns="http://www.w3.org/2000/svg">
<g id="Icon Group">
<path id="Vector" d="M6.99999 10V6C6.99999 5.45 6.54999 5 5.99999 5H1.99999V3H5.99999C6.54999 3 6.99999 2.55 6.99999 2C6.99999 1.45 6.54999 1 5.99999 1H4.49999C4.49999 0.45 4.04999 -4.76837e-07 3.49999 -4.76837e-07C2.94999 -4.76837e-07 2.49999 0.45 2.49999 1H0.999995C0.449995 1 -5.24521e-06 1.45 -5.24521e-06 2V6C-5.24521e-06 6.55 0.449995 7 0.999995 7H4.99999V9H0.999995C0.449995 9 -5.24521e-06 9.45 -5.24521e-06 10C-5.24521e-06 10.55 0.449995 11 0.999995 11H2.49999C2.49999 11.55 2.94999 12 3.49999 12C4.04999 12 4.49999 11.55 4.49999 11H5.99999C6.54999 11 6.99999 10.55 6.99999 10Z" fill="var(--fill-0, #111215)"/>
<path id="Vector_2" d="M14.8799 10.2202L9.92992 15.1702L7.80992 13.0502C7.41992 12.6602 6.78992 12.6602 6.39992 13.0502C6.00992 13.4402 6.00992 14.0702 6.39992 14.4602L9.22992 17.2902C9.61992 17.6802 10.2499 17.6802 10.6399 17.2902L16.2999 11.6302C16.6899 11.2402 16.6899 10.6102 16.2999 10.2202C15.8999 9.83023 15.2699 9.83023 14.8799 10.2202Z" fill="var(--fill-0, #111215)"/>
</g>
</svg>
