<svg preserveAspectRatio="none" width="100%" height="100%" overflow="visible" style="display: block;" viewBox="0 0 17 17" fill="none" xmlns="http://www.w3.org/2000/svg">
<g id="Icon">
<path id="Subtract" d="M14.9326 0C15.9635 0 16.7998 0.836256 16.7998 1.86719V14.9336C16.7998 15.9645 15.9635 16.8008 14.9326 16.8008H1.86621C0.835309 16.8007 0 15.9645 0 14.9336V1.86719C0 0.836278 0.835309 3.51682e-05 1.86621 0H14.9326ZM2.57324 14.4668H5.07812V6.37793H2.57324V14.4668ZM11.5215 6.13086C9.80497 6.13086 9.08203 7.46777 9.08203 7.46777V6.37793H6.67969V14.4668H9.08203V10.2207C9.08203 9.08302 9.60606 8.40631 10.6084 8.40625C11.5299 8.40625 11.9727 9.05652 11.9727 10.2207V14.4668H14.4658V9.3457C14.4658 7.17888 13.2371 6.13094 11.5215 6.13086ZM3.81348 2.33398C2.99514 2.33402 2.33203 3.00191 2.33203 3.82617C2.33205 4.65041 2.99515 5.31832 3.81348 5.31836C4.63183 5.31836 5.2949 4.65044 5.29492 3.82617C5.29492 3.00189 4.63184 2.33398 3.81348 2.33398Z" fill="var(--fill-0, white)"/>
</g>
</svg>
