<svg preserveAspectRatio="none" width="100%" height="100%" overflow="visible" style="display: block;" viewBox="0 0 23 23" fill="none" xmlns="http://www.w3.org/2000/svg">
<g id="category-2">
<path id="Vector" d="M17.2871 1.85177H15.5279C13.5093 1.85177 12.4445 2.91659 12.4445 4.93511V6.69437C12.4445 8.71289 13.5093 9.7777 15.5279 9.7777H17.2871C19.3056 9.7777 20.3704 8.71289 20.3704 6.69437V4.93511C20.3704 2.91659 19.3056 1.85177 17.2871 1.85177Z" fill="var(--fill-0, #041117)"/>
<path id="Vector_2" d="M6.70338 12.4348H4.94412C2.91634 12.4348 1.85153 13.4996 1.85153 15.5182V17.2774C1.85153 19.3052 2.91634 20.37 4.93486 20.37H6.69412C8.71264 20.37 9.77746 19.3052 9.77746 17.2867V15.5274C9.78672 13.4996 8.7219 12.4348 6.70338 12.4348Z" fill="var(--fill-0, #041117)"/>
<path id="Vector_3" d="M5.82375 9.79622C8.01755 9.79622 9.79597 8.01779 9.79597 5.824C9.79597 3.6302 8.01755 1.85177 5.82375 1.85177C3.62995 1.85177 1.85153 3.6302 1.85153 5.824C1.85153 8.01779 3.62995 9.79622 5.82375 9.79622Z" fill="var(--fill-0, #041117)"/>
<path id="Vector_4" d="M16.3978 20.3702C18.5916 20.3702 20.37 18.5918 20.37 16.398C20.37 14.2042 18.5916 12.4258 16.3978 12.4258C14.204 12.4258 12.4255 14.2042 12.4255 16.398C12.4255 18.5918 14.204 20.3702 16.3978 20.3702Z" fill="var(--fill-0, #041117)"/>
<g id="Vector_5" opacity="0">
</g>
</g>
</svg>
