<svg preserveAspectRatio="none" width="100%" height="100%" overflow="visible" style="display: block;" viewBox="0 0 23 23" fill="none" xmlns="http://www.w3.org/2000/svg">
<g id="user-add">
<path id="Vector" d="M11.1113 1.6203C13.7907 1.62038 15.9726 3.80218 15.9726 6.48163C15.9725 9.16101 13.7906 11.3429 11.1113 11.343C8.43181 11.343 6.25001 9.16106 6.24993 6.48163C6.24993 3.80213 8.43176 1.6203 11.1113 1.6203ZM11.1113 2.08319C8.6889 2.08319 6.71282 4.05927 6.71282 6.48163C6.7129 8.90391 8.68895 10.8801 11.1113 10.8801C13.5335 10.88 15.5096 8.90387 15.5097 6.48163C15.5097 4.05932 13.5335 2.08327 11.1113 2.08319Z" fill="var(--fill-0, #292D32)" stroke="var(--stroke-0, #041117)" stroke-width="0.925926"/>
<path id="Vector_2" d="M11.1115 13.6573C12.0066 13.6574 12.881 13.773 13.7268 14.0109H13.7297C13.8504 14.0442 13.9218 14.1674 13.8869 14.2941C13.8538 14.4144 13.732 14.4863 13.6057 14.4523H13.6067C12.8034 14.2269 11.9648 14.1203 11.1115 14.1202C6.95963 14.1202 3.38899 16.8275 3.38889 20.3702C3.38889 20.4942 3.28139 20.6017 3.15744 20.6017C3.03355 20.6016 2.926 20.4941 2.926 20.3702C2.92609 16.7493 6.51429 13.6573 11.1115 13.6573Z" fill="var(--fill-0, #292D32)" stroke="var(--stroke-0, #041117)" stroke-width="0.925926"/>
<path id="Vector_3" d="M16.667 12.7314C17.7953 12.7315 18.8625 13.2128 19.5879 14.0371L19.5908 14.041C20.2383 14.7634 20.6015 15.6911 20.6015 16.667C20.6015 16.9787 20.5603 17.2889 20.4795 17.58L20.4736 17.6035C20.3924 17.9689 20.2367 18.3542 20.0254 18.6875L20.0214 18.6943L20.0166 18.7011C19.333 19.8706 18.0431 20.6014 16.667 20.6015C15.6912 20.6015 14.7646 20.2382 14.0429 19.583L14.0332 19.5742L13.8252 19.3808C13.6245 19.1771 13.4451 18.9438 13.2978 18.6923L13.2929 18.6845L13.165 18.457C12.8841 17.9153 12.7315 17.2981 12.7314 16.667C12.7314 15.6955 13.0802 14.7832 13.7119 14.0644L13.8418 13.9238C14.5872 13.1535 15.5877 12.7314 16.667 12.7314ZM16.667 13.1943C15.717 13.1943 14.8394 13.5698 14.1797 14.2402L14.1767 14.2431C13.548 14.8932 13.1943 15.749 13.1943 16.667C13.1944 17.2906 13.3626 17.9063 13.6904 18.4414V18.4423C13.864 18.7462 14.0902 19.014 14.3447 19.2382V19.2392C14.9847 19.8259 15.8091 20.1484 16.667 20.1484C17.8732 20.1483 19.0139 19.5088 19.6357 18.4707L19.6367 18.4716C19.8193 18.1709 19.958 17.8273 20.0341 17.4902C20.1067 17.2141 20.1386 16.948 20.1386 16.6757C20.1386 15.8219 19.8195 15.0029 19.249 14.3652H19.25C18.6029 13.6102 17.6574 13.1944 16.667 13.1943Z" fill="var(--fill-0, #292D32)" stroke="var(--stroke-0, #041117)" stroke-width="0.925926"/>
<path id="Vector_4" d="M15.2867 16.417H18.0553C18.1792 16.417 18.2866 16.5246 18.2867 16.6485C18.2867 16.7724 18.1792 16.8799 18.0553 16.8799H15.2867C15.1628 16.8799 15.0553 16.7724 15.0553 16.6485C15.0553 16.5246 15.1629 16.4171 15.2867 16.417Z" fill="var(--fill-0, #292D32)" stroke="var(--stroke-0, #041117)" stroke-width="0.925926"/>
<path id="Vector_5" d="M16.6666 15.0643C16.7905 15.0643 16.8979 15.1719 16.898 15.2958V18.0643C16.898 18.1935 16.7945 18.2958 16.6666 18.2958C16.5427 18.2957 16.4351 18.1882 16.4351 18.0643V15.2958C16.4352 15.1719 16.5427 15.0644 16.6666 15.0643Z" fill="var(--fill-0, #292D32)" stroke="var(--stroke-0, #041117)" stroke-width="0.925926"/>
<path id="Vector_6" opacity="0" d="M20.9727 1.25V20.9727H1.25V1.25H20.9727Z" stroke="var(--stroke-0, #041117)" stroke-width="2.5"/>
</g>
</svg>
