<svg preserveAspectRatio="none" width="100%" height="100%" overflow="visible" style="display: block;" viewBox="0 0 46 46" fill="none" xmlns="http://www.w3.org/2000/svg">
<g id="7787575_security_protection_secure_shield_lock_icon 1">
<path id="Vector" d="M35.0528 12.0454C33.1436 11.7882 31.2676 11.3269 29.4569 10.6694C27.2553 9.84379 25.3288 8.83471 24.3198 7.55042L24.228 7.45868L24.1363 7.36695C24.0445 7.36695 24.0445 7.27521 23.9528 7.27521C23.8611 7.27521 23.8611 7.18348 23.7693 7.18348C23.6776 7.18348 23.6776 7.09174 23.5859 7.09174C23.4941 7.09174 23.4941 7.00001 23.4024 7.00001H22.3016C22.2098 7.00001 22.2098 7.00001 22.1181 7.09174C22.0264 7.09174 22.0264 7.09174 21.9346 7.18348C21.8429 7.18348 21.8429 7.27521 21.7512 7.27521C21.6594 7.27521 21.6594 7.36695 21.5677 7.36695L21.476 7.45868L21.3842 7.55042C20.2834 8.83471 18.357 9.84379 16.2471 10.6694C14.4264 11.2934 12.5537 11.7539 10.6512 12.0454C10.2007 12.0999 9.78518 12.3158 9.4816 12.6532C9.17801 12.9905 9.00692 13.4264 9 13.8801C9 18.4669 9.27521 23.604 11.0182 28.0991C12.2107 31.1263 14.0454 33.8784 16.614 35.8965C17.4999 36.6452 18.4884 37.263 19.5495 37.7312C20.7421 38.3734 22.2098 39.3825 23.5859 38.8321C27.0718 37.5478 30.466 35.0709 32.5759 31.9519C33.3928 30.716 34.0697 29.393 34.5941 28.0073C36.337 23.5123 36.6122 18.3752 36.6122 13.7884C36.704 12.9628 35.9701 12.2289 35.0528 12.0454ZM31.2916 26.8148C29.9156 30.3924 27.4387 33.4197 22.9437 35.2544C18.4487 33.4197 15.9719 30.3924 14.5958 26.8148C13.3115 23.4206 12.9446 19.476 12.8529 15.4396C14.4743 15.1378 16.0693 14.7084 17.6231 14.1553C19.4578 13.5132 21.3842 12.5958 22.9437 11.3116C24.5032 12.5958 26.4297 13.5132 28.2644 14.1553C29.9156 14.7975 31.6586 15.1644 33.0346 15.4396C32.9428 19.476 32.5759 23.4206 31.2916 26.8148ZM22.2098 24.2462L18.5404 21.5859C17.7148 21.0355 16.614 21.1272 15.9719 21.9528C15.4215 22.7784 15.5132 23.8793 16.3388 24.5214L21.3842 28.1908C22.3933 28.9247 23.4024 28.466 24.1363 27.5487C26.1545 25.0718 28.2644 22.595 30.2825 20.1181C30.9247 19.2925 30.8329 18.1917 30.0073 17.5495C29.1817 16.9074 28.0809 16.9991 27.4387 17.8247L22.2098 24.2462Z" fill="var(--fill-0, #7D23C9)"/>
</g>
</svg>
