<svg preserveAspectRatio="none" width="100%" height="100%" overflow="visible" style="display: block;" viewBox="0 0 2143 1646" fill="none" xmlns="http://www.w3.org/2000/svg">
<g id="reveal mask">
<g id="Blob 4" filter="url(#filter0_f_8769_19025)">
<path d="M1137.16 679.828C1137.16 827.088 1039.8 946.465 919.69 946.465C799.584 946.465 49.1781 429.968 49.1781 282.708C49.1781 135.448 1127.37 338.179 1247.47 338.179C1367.58 338.179 1137.16 532.568 1137.16 679.828Z" fill="url(#paint0_linear_8769_19025)"/>
</g>
<g id="Blob 3" filter="url(#filter1_f_8769_19025)">
<path d="M1221.63 1310.85C1221.63 1458.11 1124.26 1577.49 1004.15 1577.49C884.049 1577.49 214.958 1543.17 214.958 1395.91C214.958 1248.65 264.416 899.821 384.522 899.821C504.628 899.821 1221.63 1163.59 1221.63 1310.85Z" fill="url(#paint1_radial_8769_19025)"/>
</g>
<g id="Blob 2" filter="url(#filter2_f_8769_19025)">
<path d="M1468.32 680.232C1792.39 972.92 1642.69 825.832 1921.03 818.422C1964.7 826.833 2038.82 827.233 1986.01 761.542C1920 679.427 1941.27 621.429 1858.77 531.965C1776.27 442.501 1726.02 351.607 1601.47 209.317C1476.91 67.0271 1467.33 184.321 1326.91 173.202C1186.49 162.083 1250.53 179.74 1056.79 386.197C863.046 592.654 1144.25 387.543 1468.32 680.232Z" fill="var(--fill-0, #D9D9D9)"/>
</g>
<g id="Blob 1" filter="url(#filter3_f_8769_19025)">
<path d="M1162.37 1140.61C728.695 1191.67 937.971 1175.91 760.212 1390.23C725.123 1417.55 675.998 1473.06 760.212 1476.59C865.48 1481 895.107 1535.21 1016.76 1532.06C1138.42 1528.91 1239.91 1550.97 1429.01 1550.97C1618.12 1550.97 1536.17 1466.5 1637.03 1368.17C1737.88 1269.83 1682.41 1306.4 1654.68 1024.63C1626.94 742.863 1596.05 1089.56 1162.37 1140.61Z" fill="var(--fill-0, #D9D9D9)"/>
</g>
</g>
<defs>
<filter id="filter0_f_8769_19025" x="0.263031" y="180.168" width="1330.8" height="815.212" filterUnits="userSpaceOnUse" color-interpolation-filters="sRGB">
<feFlood flood-opacity="0" result="BackgroundImageFix"/>
<feBlend mode="normal" in="SourceGraphic" in2="BackgroundImageFix" result="shape"/>
<feGaussianBlur stdDeviation="24.4575" result="effect1_foregroundBlur_8769_19025"/>
</filter>
<filter id="filter1_f_8769_19025" x="166.043" y="850.906" width="1104.5" height="775.5" filterUnits="userSpaceOnUse" color-interpolation-filters="sRGB">
<feFlood flood-opacity="0" result="BackgroundImageFix"/>
<feBlend mode="normal" in="SourceGraphic" in2="BackgroundImageFix" result="shape"/>
<feGaussianBlur stdDeviation="24.4575" result="effect1_foregroundBlur_8769_19025"/>
</filter>
<filter id="filter2_f_8769_19025" x="855.045" y="0.0884552" width="1287.41" height="999.972" filterUnits="userSpaceOnUse" color-interpolation-filters="sRGB">
<feFlood flood-opacity="0" result="BackgroundImageFix"/>
<feBlend mode="normal" in="SourceGraphic" in2="BackgroundImageFix" result="shape"/>
<feGaussianBlur stdDeviation="69.0862" result="effect1_foregroundBlur_8769_19025"/>
</filter>
<filter id="filter3_f_8769_19025" x="618.782" y="820.532" width="1171.2" height="825.368" filterUnits="userSpaceOnUse" color-interpolation-filters="sRGB">
<feFlood flood-opacity="0" result="BackgroundImageFix"/>
<feBlend mode="normal" in="SourceGraphic" in2="BackgroundImageFix" result="shape"/>
<feGaussianBlur stdDeviation="47.4653" result="effect1_foregroundBlur_8769_19025"/>
</filter>
<linearGradient id="paint0_linear_8769_19025" x1="568.586" y1="356.459" x2="1023.07" y2="598.513" gradientUnits="userSpaceOnUse">
<stop stop-color="white"/>
<stop offset="1" stop-color="white" stop-opacity="0"/>
</linearGradient>
<radialGradient id="paint1_radial_8769_19025" cx="0" cy="0" r="1" gradientUnits="userSpaceOnUse" gradientTransform="translate(533.915 1317.11) rotate(-29.3932) scale(777.019 1335.47)">
<stop stop-color="white"/>
<stop offset="1" stop-color="white" stop-opacity="0"/>
</radialGradient>
</defs>
</svg>
