<svg preserveAspectRatio="none" width="100%" height="100%" overflow="visible" style="display: block;" viewBox="0 0 16 16" fill="none" xmlns="http://www.w3.org/2000/svg">
<g id="graph">
<path id="Vector" d="M8.48535 1.86816C8.88997 1.56813 9.49001 1.47672 10.4609 1.69922L10.9004 1.81348C12.444 2.26162 13.7383 3.55603 14.1865 5.09961V5.10059C14.5459 6.32883 14.4748 7.05191 14.1338 7.50684L14.1328 7.50781C13.9239 7.78704 13.6213 7.9534 13.2725 8.0498C12.9211 8.14685 12.5431 8.16699 12.2129 8.16699H10C9.23289 8.16699 8.71159 7.95187 8.37598 7.57617C8.03408 7.19333 7.83301 6.58664 7.83301 5.7002V3.78711C7.83301 3.4568 7.85371 3.07837 7.9502 2.72656C8.04583 2.37806 8.21033 2.07667 8.48535 1.86816ZM9.51953 1.90723C9.25175 1.90728 8.98931 1.9511 8.77832 2.07617L8.69141 2.13477C8.48195 2.29183 8.3561 2.53064 8.28125 2.79883C8.20574 3.06949 8.17285 3.4017 8.17285 3.78711V5.70703C8.17286 6.48108 8.3193 7.0421 8.67188 7.40039C9.02858 7.76283 9.52071 7.83984 10.0068 7.83984H12.2197C12.6021 7.83984 12.9327 7.80788 13.2031 7.73242C13.4727 7.65718 13.7115 7.53073 13.8711 7.32324L13.8721 7.32227C14.0553 7.0815 14.1108 6.76126 14.1016 6.42383C14.0922 6.08034 14.0139 5.67179 13.8799 5.20801V5.20605L13.792 4.94238C13.3083 3.63523 12.1536 2.53283 10.8184 2.14648C10.3123 1.98968 9.87825 1.90723 9.51953 1.90723Z" fill="var(--fill-0, #292D32)" stroke="var(--stroke-0, #041117)" stroke-width="0.666667"/>
<path id="Vector_2" d="M6.13704 2.50749C6.23026 2.4893 6.31751 2.54602 6.34017 2.63542C6.35191 2.70489 6.32235 2.76999 6.26888 2.80729L6.20736 2.83464C3.20382 3.45352 1.20438 6.25796 1.55013 9.2985L1.59115 9.5944C1.98775 12.0424 3.97218 14.0263 6.42025 14.4225H6.42122C9.58877 14.9303 12.5507 12.8903 13.18 9.77311L13.181 9.77116C13.1941 9.70399 13.2469 9.65345 13.3099 9.6403H13.3763C13.4654 9.65768 13.524 9.74595 13.5072 9.83366C12.906 12.7889 10.3246 14.8337 7.38021 14.8337C7.04358 14.8337 6.70195 14.8083 6.36165 14.7516L6.3597 14.7507C3.7746 14.3333 1.66637 12.2313 1.24935 9.64714C0.711006 6.31574 2.85595 3.17862 6.13607 2.50651L6.13704 2.50749Z" fill="var(--fill-0, #292D32)" stroke="var(--stroke-0, #041117)" stroke-width="0.666667"/>
<path id="Vector_3" opacity="0" d="M15.667 0.333008V15.667H0.333008V0.333008H15.667Z" stroke="var(--stroke-0, #041117)" stroke-width="0.666667"/>
</g>
</svg>
