<svg preserveAspectRatio="none" width="100%" height="100%" overflow="visible" style="display: block;" viewBox="0 0 78 12" fill="none" xmlns="http://www.w3.org/2000/svg">
<g id="Line 317">
<path d="M0.226497 6L6 11.7735L11.7735 6L6 0.226497L0.226497 6ZM66.6667 6C66.6667 8.94552 69.0545 11.3333 72 11.3333C74.9455 11.3333 77.3333 8.94552 77.3333 6C77.3333 3.05448 74.9455 0.666667 72 0.666667C69.0545 0.666667 66.6667 3.05448 66.6667 6ZM6 6V7H72V6V5H6V6Z" fill="var(--stroke-0, #7BE385)"/>
<path d="M0.226497 6L6 11.7735L11.7735 6L6 0.226497L0.226497 6ZM66.6667 6C66.6667 8.94552 69.0545 11.3333 72 11.3333C74.9455 11.3333 77.3333 8.94552 77.3333 6C77.3333 3.05448 74.9455 0.666667 72 0.666667C69.0545 0.666667 66.6667 3.05448 66.6667 6ZM6 6V7H72V6V5H6V6Z" fill="url(#paint0_radial_8769_19048)" fill-opacity="0.2"/>
</g>
<defs>
<radialGradient id="paint0_radial_8769_19048" cx="0" cy="0" r="1" gradientUnits="userSpaceOnUse" gradientTransform="translate(39 6.5) scale(33 0.5)">
<stop stop-color="white"/>
<stop offset="1" stop-color="white" stop-opacity="0.4"/>
</radialGradient>
</defs>
</svg>
