<svg preserveAspectRatio="none" width="100%" height="100%" overflow="visible" style="display: block;" viewBox="0 0 23 23" fill="none" xmlns="http://www.w3.org/2000/svg">
<g id="star">
<path id="Vector" d="M11.1115 1.6854C11.2979 1.68544 11.5817 1.72565 11.8957 1.91587C12.2089 2.10559 12.5816 2.46224 12.9191 3.14146V3.14243L14.5519 6.40806C14.662 6.6202 14.8553 6.8073 15.0353 6.94029C15.1922 7.05612 15.394 7.17066 15.6027 7.22446L15.6926 7.244L18.6467 7.73521V7.73423C19.3737 7.85622 19.8147 8.10419 20.0842 8.34458C20.3549 8.58611 20.476 8.8425 20.5295 9.01646C20.5851 9.19742 20.6333 9.47958 20.5539 9.83384C20.4748 10.1866 20.2622 10.6435 19.7463 11.1639L17.4494 13.4696C17.2625 13.6568 17.1436 13.9198 17.0773 14.1522C17.0107 14.386 16.9751 14.6689 17.0285 14.9208L17.0305 14.9286L17.6877 17.7713C17.8854 18.6315 17.8222 19.2043 17.6926 19.577C17.5636 19.9477 17.3557 20.1553 17.2053 20.2665C17.0346 20.3882 16.7586 20.5282 16.3517 20.5282C15.9626 20.5281 15.4131 20.4034 14.6789 19.9715L11.9123 18.3338L11.9084 18.3319L11.8156 18.2831C11.5941 18.1807 11.3358 18.1434 11.1125 18.1434C10.89 18.1434 10.6305 18.1809 10.4094 18.286L10.3205 18.3329L7.54217 19.9715L7.5412 19.9725C6.7797 20.4242 6.21498 20.5371 5.82147 20.5252C5.43296 20.5135 5.17192 20.3794 5.01483 20.2665H5.01581C4.86402 20.1542 4.65612 19.9457 4.52655 19.576C4.39629 19.2043 4.33247 18.6326 4.53436 17.7733V17.7713L5.19159 14.9286L5.19061 14.9276C5.25228 14.6711 5.21506 14.3839 5.14862 14.1542C5.0809 13.92 4.95809 13.656 4.77167 13.4696L2.47577 11.1727C1.95465 10.6516 1.74018 10.1952 1.66131 9.84361C1.58214 9.49052 1.63267 9.21029 1.69061 9.03306C1.74916 8.85403 1.87339 8.59547 2.14471 8.35337C2.41479 8.11239 2.8544 7.86483 3.57635 7.74302L6.52948 7.25376V7.25279C6.76978 7.21273 7.00838 7.08153 7.18768 6.9481C7.36454 6.81645 7.5567 6.62811 7.66327 6.41099L7.66424 6.41196L9.30292 3.14341L9.30389 3.14146C9.64127 2.46255 10.0133 2.10562 10.3264 1.91587C10.6405 1.72555 10.9251 1.6854 11.1115 1.6854ZM11.1115 2.15806C10.7821 2.15806 10.4993 2.33277 10.2863 2.53696C10.0684 2.746 9.87545 3.02946 9.716 3.35728L8.07733 6.61607L8.07635 6.61704C7.95352 6.86271 7.73262 7.11533 7.45428 7.32114C7.17616 7.52676 6.87002 7.664 6.59979 7.70982L3.65545 8.20103C3.30259 8.25832 2.98286 8.36075 2.72479 8.50864C2.47188 8.65361 2.23504 8.86851 2.13495 9.1688C2.0317 9.47865 2.10538 9.79846 2.2287 10.0614C2.35502 10.3306 2.55919 10.5975 2.8117 10.8456V10.8465L5.1076 13.1424C5.31924 13.3541 5.49571 13.6693 5.59784 14.0252C5.69979 14.3807 5.71755 14.7416 5.65057 15.035L4.99335 17.8768C4.87836 18.3717 4.853 18.781 4.89764 19.1053C4.93995 19.4125 5.05754 19.7186 5.30487 19.8954C5.54859 20.0694 5.87173 20.0863 6.17596 20.0331C6.49643 19.9769 6.87724 19.8311 7.31561 19.577L7.31952 19.5751L10.0881 17.9354L10.092 17.9334C10.3592 17.7717 10.7268 17.6766 11.1115 17.6766C11.4949 17.6767 11.865 17.7714 12.1447 17.9364V17.9354L14.9103 19.5731V19.5741C15.347 19.8351 15.7307 19.9819 16.0549 20.037C16.363 20.0892 16.6859 20.0675 16.9269 19.8954C17.1785 19.7155 17.2902 19.4017 17.3303 19.0995C17.373 18.7765 17.3482 18.3698 17.2385 17.8807V17.8778L16.5812 15.035C16.4418 14.4245 16.6782 13.5961 17.1232 13.1415L17.1242 13.1424L19.4201 10.8465C19.6729 10.5937 19.874 10.3257 19.9992 10.0575C20.1216 9.79493 20.1925 9.48337 20.1008 9.18052L20.0969 9.1688L20.0529 9.0604C19.9371 8.816 19.7284 8.63553 19.507 8.50864C19.2487 8.36063 18.9286 8.25829 18.5754 8.20103H18.5764L15.6223 7.70982H15.6213C15.3514 7.66378 15.0464 7.52636 14.7687 7.32114C14.4903 7.1153 14.2686 6.86278 14.1457 6.61704L12.5158 3.35825C12.3515 3.02961 12.1565 2.74431 11.9367 2.53501C11.7235 2.33196 11.4407 2.15816 11.1115 2.15806Z" fill="var(--fill-0, #292D32)" stroke="var(--stroke-0, #041117)" stroke-width="0.925926"/>
<g id="Vector_2" opacity="0">
</g>
</g>
</svg>
