<svg preserveAspectRatio="none" width="100%" height="100%" overflow="visible" style="display: block;" viewBox="0 0 32 32" fill="none" xmlns="http://www.w3.org/2000/svg">
<g id="Social Icons">
<rect width="31.6811" height="32" rx="8" fill="var(--fill-0, #081921)"/>
<rect width="31.6811" height="32" rx="8" fill="var(--fill-1, #081921)"/>
<path id="Vector" d="M23.6811 16.124C23.6811 15.1732 22.9094 14.4016 21.9587 14.4016C21.4902 14.4016 21.0768 14.5807 20.7736 14.8839C19.6024 14.0433 17.9764 13.4921 16.185 13.4232L16.9705 9.74409L19.5197 10.2815C19.5472 10.9291 20.0846 11.4528 20.7461 11.4528C21.4213 11.4528 21.9724 10.9016 21.9724 10.2264C21.9724 9.55118 21.4213 9 20.7461 9C20.2638 9 19.8504 9.27559 19.6575 9.68898L16.8051 9.08268C16.7224 9.0689 16.6398 9.08268 16.5709 9.12402C16.502 9.16535 16.4606 9.23425 16.4331 9.31693L15.565 13.4232C13.7323 13.4783 12.0925 14.0157 10.9075 14.8839C10.6043 14.5945 10.1772 14.4016 9.72244 14.4016C8.77165 14.4016 8 15.1732 8 16.124C8 16.8268 8.41339 17.4193 9.01969 17.6949C8.99213 17.8602 8.97835 18.0394 8.97835 18.2185C8.97835 20.8642 12.0512 23 15.8543 23C19.6575 23 22.7303 20.8642 22.7303 18.2185C22.7303 18.0394 22.7165 17.874 22.689 17.7087C23.2539 17.4331 23.6811 16.8268 23.6811 16.124ZM11.8996 17.3504C11.8996 16.6752 12.4508 16.124 13.126 16.124C13.8012 16.124 14.3524 16.6752 14.3524 17.3504C14.3524 18.0256 13.8012 18.5768 13.126 18.5768C12.4508 18.5768 11.8996 18.0256 11.8996 17.3504ZM18.748 20.5886C17.9075 21.4291 16.3091 21.4843 15.8406 21.4843C15.372 21.4843 13.7598 21.4154 12.9331 20.5886C12.8091 20.4646 12.8091 20.2579 12.9331 20.1339C13.0571 20.0098 13.2638 20.0098 13.3878 20.1339C13.9114 20.6575 15.0413 20.8504 15.8543 20.8504C16.6673 20.8504 17.7835 20.6575 18.3209 20.1339C18.4449 20.0098 18.6516 20.0098 18.7756 20.1339C18.872 20.2717 18.872 20.4646 18.748 20.5886ZM18.5276 18.5768C17.8524 18.5768 17.3012 18.0256 17.3012 17.3504C17.3012 16.6752 17.8524 16.124 18.5276 16.124C19.2028 16.124 19.7539 16.6752 19.7539 17.3504C19.7539 18.0256 19.2028 18.5768 18.5276 18.5768Z" fill="var(--fill-0, #F2FCF3)"/>
</g>
</svg>
