<svg preserveAspectRatio="none" width="100%" height="100%" overflow="visible" style="display: block;" viewBox="0 0 20 20" fill="none" xmlns="http://www.w3.org/2000/svg">
<g id="material-symbols:arrow-back-rounded">
<path id="Vector" d="M6.61902 10.786L10.3945 14.6637C10.5486 14.822 10.6226 15.0067 10.6164 15.2177C10.6103 15.4287 10.5299 15.6134 10.3753 15.7717C10.2212 15.9167 10.0414 15.9927 9.8359 15.9996C9.63043 16.0064 9.45065 15.9305 9.29655 15.7717L4.21117 10.5486C4.13412 10.4695 4.07941 10.3837 4.04705 10.2914C4.01469 10.1991 3.99902 10.1002 4.00005 9.99464C4.00107 9.88913 4.01726 9.79021 4.04859 9.69788C4.07992 9.60555 4.13437 9.51982 4.21194 9.44068L9.29732 4.21763C9.43858 4.07254 9.61528 4 9.82743 4C10.0396 4 10.2224 4.07254 10.376 4.21763C10.5301 4.3759 10.6072 4.56398 10.6072 4.78188C10.6072 4.99977 10.5301 5.18759 10.376 5.34533L6.61902 9.20327H15.2295C15.4478 9.20327 15.6309 9.27924 15.7789 9.43119C15.9268 9.58313 16.0005 9.77095 16 9.99464C15.9995 10.2183 15.9255 10.4064 15.7781 10.5589C15.6307 10.7114 15.4478 10.7871 15.2295 10.786H6.61902Z" fill="var(--fill-0, #111215)"/>
</g>
</svg>
