<svg preserveAspectRatio="none" width="100%" height="100%" overflow="visible" style="display: block;" viewBox="0 0 17 17" fill="none" xmlns="http://www.w3.org/2000/svg">
<g id="Icon">
<path id="Subtract" d="M8.39941 0C13.0193 0 16.7996 3.79926 16.7998 8.44238C16.7998 12.6213 13.7751 16.0832 9.78516 16.8008L9.74902 16.7705C9.77494 16.766 9.80123 16.7635 9.82715 16.7588V10.8066H11.6758L12.0537 8.44238H9.82715V6.79688C9.82715 6.12149 10.0799 5.61426 11.0879 5.61426H12.1797V3.46191C11.5917 3.37749 10.9191 3.29297 10.3311 3.29297C8.39927 3.29313 7.05566 4.4755 7.05566 6.58594V8.44238H4.95508V10.8066H7.05566V16.7588C7.05793 16.7592 7.06024 16.7594 7.0625 16.7598L7.01367 16.8008C3.02368 16.0832 0 12.6213 0 8.44238C0.000178306 3.79932 3.77961 9.74979e-05 8.39941 0Z" fill="var(--fill-0, white)"/>
</g>
</svg>
