<svg preserveAspectRatio="none" width="100%" height="100%" overflow="visible" style="display: block;" viewBox="0 0 23 23" fill="none" xmlns="http://www.w3.org/2000/svg">
<g id="chart-2">
<path id="Vector" d="M8.33319 1.6203H13.8889C16.3496 1.6203 17.9959 2.14822 19.0353 3.18768C20.0745 4.22715 20.6017 5.87284 20.6017 8.33319V13.8889C20.6017 16.3496 20.0748 17.9959 19.0353 19.0353C17.9959 20.0748 16.3496 20.6017 13.8889 20.6017H8.33319C5.87284 20.6017 4.22715 20.0745 3.18768 19.0353C2.14822 17.9959 1.6203 16.3496 1.6203 13.8889V8.33319C1.62032 5.87252 2.14824 4.22712 3.18768 3.18768C4.22712 2.14824 5.87252 1.62032 8.33319 1.6203ZM8.33319 2.08319C6.16634 2.08321 4.55968 2.46412 3.5119 3.5119C2.46412 4.55968 2.08321 6.16634 2.08319 8.33319V13.8889C2.08319 16.0557 2.46417 17.6623 3.5119 18.7101C4.55968 19.7579 6.16634 20.1388 8.33319 20.1389H13.8889C16.0558 20.1389 17.6623 19.7579 18.7101 18.7101C19.7579 17.6623 20.1389 16.0558 20.1389 13.8889V8.33319C20.1388 6.16634 19.7579 4.55968 18.7101 3.5119C17.6623 2.46417 16.0557 2.08319 13.8889 2.08319H8.33319Z" fill="var(--fill-0, #041117)" stroke="var(--stroke-0, #041117)" stroke-width="0.925926"/>
<path id="Vector_2" d="M14.3515 4.86104C15.503 4.86104 16.4352 5.79251 16.4354 6.94405V15.278C16.4353 16.4296 15.5031 17.361 14.3515 17.361C13.2 17.3608 12.2686 16.4295 12.2684 15.278V6.94405C12.2687 5.79264 13.2001 4.86125 14.3515 4.86104ZM14.3515 5.32393C13.4572 5.32414 12.7316 6.04979 12.7313 6.94405V15.278C12.7315 16.1724 13.4571 16.8979 14.3515 16.8981C15.2459 16.8981 15.9724 16.1725 15.9725 15.278V6.94405C15.9723 6.04965 15.2459 5.32393 14.3515 5.32393Z" fill="var(--fill-0, #041117)" stroke="var(--stroke-0, #041117)" stroke-width="0.925926"/>
<path id="Vector_3" d="M7.86997 9.95363C9.02156 9.95363 9.95374 10.8851 9.95396 12.0366V15.2779C9.95392 16.4295 9.02167 17.3609 7.86997 17.3609C6.71846 17.3606 5.787 16.4294 5.78696 15.2779V12.0366C5.78718 10.8852 6.71857 9.95385 7.86997 9.95363ZM7.86997 10.4165C6.97571 10.4167 6.25007 11.1424 6.24986 12.0366V15.2779C6.24989 16.1723 6.9756 16.8978 7.86997 16.898C8.76453 16.898 9.49103 16.1724 9.49107 15.2779V12.0366C9.49085 11.1422 8.76442 10.4165 7.86997 10.4165Z" fill="var(--fill-0, #041117)" stroke="var(--stroke-0, #041117)" stroke-width="0.925926"/>
<path id="Vector_4" opacity="0" d="M21.7588 0.462891V21.7588H0.462891V0.462891H21.7588Z" stroke="var(--stroke-0, #041117)" stroke-width="0.925926"/>
</g>
</svg>
