<svg preserveAspectRatio="none" width="100%" height="100%" overflow="visible" style="display: block;" viewBox="0 0 41 42" fill="none" xmlns="http://www.w3.org/2000/svg">
<g id="Group">
<path id="Vector" d="M7.62578 12.9168C10.1453 12.9168 12.2113 10.8676 12.2113 8.33125C12.2113 5.79492 10.1621 3.7457 7.62578 3.7457C5.08945 3.7457 3.05703 5.81172 3.05703 8.33125C3.05703 10.8508 5.10625 12.9168 7.62578 12.9168ZM7.62578 5.49258C9.18789 5.49258 10.4813 6.76914 10.4813 8.34805C10.4813 9.92695 9.20469 11.2035 7.62578 11.2035C6.04688 11.2035 4.77031 9.92695 4.77031 8.34805C4.77031 6.76914 6.06367 5.49258 7.62578 5.49258Z" fill="var(--fill-0, white)"/>
<path id="Vector_2" d="M13.0512 18.2246C12.5809 18.191 12.1609 18.5605 12.1273 19.0309L11.4219 29.0922C11.4219 29.1258 11.4051 29.1426 11.4051 29.1762L10.7668 38.9687C10.75 39.3383 10.4309 39.6406 10.0613 39.6406H5.19023C4.8207 39.6406 4.50156 39.3551 4.48477 38.9687L3.84648 29.1762C3.82969 28.8234 3.57773 28.5043 3.2418 28.4035C3.05703 28.3531 2.51953 28.1852 2.43555 28.1012C2.36836 28.0004 2.33477 27.4629 2.31797 27.1941L1.73008 16.8137V16.7969C2.82188 16.4777 3.89687 16.125 4.98867 15.7723C5.47578 16.3434 5.96289 16.8977 6.4668 17.4687L6.9875 18.0566C7.15547 18.2414 7.39062 18.359 7.64258 18.359C7.89453 18.359 8.12969 18.2582 8.29766 18.0566L8.90234 17.368C9.38945 16.8137 9.84297 16.293 10.2965 15.7555L17.8215 17.452C17.9391 17.4855 18.0734 17.4855 18.191 17.452L24.977 16.0578C25.4473 15.957 25.7496 15.5035 25.6488 15.0332C25.548 14.5629 25.0945 14.2605 24.6242 14.3613L18.023 15.7219L10.5988 14.0422C10.5652 14.0254 10.5148 14.0254 10.4813 14.0254C10.2629 14.0086 9.52383 13.9918 9.07031 14.5293C8.6 15.0836 8.12969 15.6211 7.64258 16.1754C7.15547 15.6211 6.68516 15.0836 6.21484 14.5293C5.77812 14.0254 5.22383 13.8574 4.61914 14.059C3.46016 14.4453 2.30117 14.8148 1.14219 15.1676C0.403125 15.4027 -3.1665e-08 15.957 -3.1665e-08 16.7129C-3.1665e-08 16.7633 -3.1665e-08 16.8977 -3.1665e-08 16.9145L0.571094 27.1605L0.587891 27.3285C0.688672 28.8234 0.907031 29.3945 2.1668 29.8816L2.77148 39.1031C2.85547 40.3797 3.93047 41.3875 5.20703 41.3875H10.0781C11.3547 41.3875 12.4297 40.3797 12.5137 39.1031L13.152 29.3945C13.152 29.3609 13.152 29.3441 13.1688 29.3105L13.8742 19.1652C13.8742 18.6781 13.5215 18.2582 13.0512 18.2246Z" fill="var(--fill-0, white)"/>
<path id="Vector_3" d="M39.6574 -6.33299e-08H7.62578C7.15547 -6.33299e-08 6.75234 0.386328 6.75234 0.873437C6.75234 1.36055 7.13867 1.74687 7.62578 1.74687H38.784V24.2547H15.8059C15.3355 24.2547 14.9324 24.641 14.9324 25.1281C14.9324 25.5984 15.3188 26.0016 15.8059 26.0016H39.6574C40.1277 26.0016 40.5309 25.6152 40.5309 25.1281V0.873437C40.5309 0.403125 40.1445 -6.33299e-08 39.6574 -6.33299e-08Z" fill="var(--fill-0, white)"/>
</g>
</svg>
