<svg preserveAspectRatio="none" width="100%" height="100%" overflow="visible" style="display: block;" viewBox="0 0 25 40" fill="none" xmlns="http://www.w3.org/2000/svg">
<path id="Vector" d="M24.0556 40C23.9774 40 23.8999 39.9801 23.8277 39.9414C23.7554 39.9027 23.6897 39.8461 23.6344 39.7746L21.7097 37.2897L19.7849 39.7746C19.7296 39.8461 19.6639 39.9027 19.5917 39.9414C19.5194 39.9801 19.4419 40 19.3637 40C19.2855 40 19.208 39.9801 19.1357 39.9414C19.0635 39.9027 18.9978 39.8461 18.9425 39.7746L17.0178 37.2897L15.093 39.7746C15.0377 39.8461 14.972 39.9028 14.8998 39.9414C14.8275 39.9801 14.75 40 14.6718 40C14.5936 40 14.5161 39.9801 14.4438 39.9414C14.3716 39.9028 14.3059 39.8461 14.2506 39.7746L12.3258 37.2897L10.4007 39.7746C10.3454 39.8461 10.2798 39.9027 10.2075 39.9414C10.1352 39.9801 10.0578 40 9.97954 40C9.90131 40 9.82385 39.9801 9.75158 39.9414C9.67931 39.9027 9.61364 39.8461 9.55834 39.7746L7.63359 37.2897L5.70883 39.7746C5.65353 39.8461 5.58787 39.9028 5.5156 39.9414C5.44333 39.9801 5.36586 40 5.28763 40C5.2094 40 5.13194 39.9801 5.05967 39.9414C4.9874 39.9028 4.92174 39.8461 4.86644 39.7746L2.94169 37.2897L1.01693 39.7746C0.933623 39.8822 0.827481 39.9555 0.711924 39.9852C0.596368 40.0149 0.476588 39.9997 0.367734 39.9414C0.258879 39.8832 0.16584 39.7846 0.100384 39.6581C0.034927 39.5316 -7.07204e-06 39.3829 2.05376e-08 39.2308V0.769231C-2.05249e-05 0.668206 0.0153741 0.568167 0.0453048 0.474828C0.0752356 0.381488 0.119116 0.296678 0.174438 0.225243C0.22976 0.153808 0.295441 0.0971483 0.367727 0.0585002C0.440013 0.0198522 0.517488 -2.65028e-05 0.595726 2.65187e-08H24.0556C24.1339 -2.65028e-05 24.2113 0.0198522 24.2836 0.0585002C24.3559 0.0971483 24.4216 0.153808 24.4769 0.225243C24.5322 0.296678 24.5761 0.381488 24.606 0.474828C24.636 0.568167 24.6514 0.668206 24.6514 0.769231V39.2308C24.6514 39.4348 24.5886 39.6304 24.4769 39.7747C24.3651 39.919 24.2136 40 24.0556 40ZM7.63361 35.4327C7.71185 35.4326 7.78934 35.4524 7.86162 35.4911C7.93391 35.5298 7.99956 35.5865 8.05481 35.658L9.97956 38.143L11.9046 35.658C11.9599 35.5866 12.0256 35.5299 12.0979 35.4913C12.1701 35.4526 12.2476 35.4327 12.3258 35.4327C12.404 35.4327 12.4815 35.4526 12.5538 35.4913C12.6261 35.5299 12.6917 35.5866 12.747 35.658L14.6718 38.143L16.5965 35.658C16.6518 35.5866 16.7175 35.5299 16.7898 35.4913C16.862 35.4526 16.9395 35.4327 17.0177 35.4327C17.096 35.4327 17.1734 35.4526 17.2457 35.4913C17.318 35.5299 17.3836 35.5866 17.4389 35.658L19.3637 38.143L21.2885 35.658C21.3438 35.5866 21.4094 35.5299 21.4817 35.4913C21.554 35.4526 21.6314 35.4327 21.7097 35.4327C21.7879 35.4327 21.8654 35.4526 21.9376 35.4913C22.0099 35.5299 22.0756 35.5866 22.1309 35.658L23.4599 37.3738V1.53845H1.19145V37.3738L2.52049 35.658C2.57579 35.5866 2.64146 35.5299 2.71373 35.4913C2.786 35.4526 2.86346 35.4327 2.94169 35.4327C3.01992 35.4327 3.09738 35.4526 3.16965 35.4913C3.24192 35.5299 3.30758 35.5866 3.36289 35.658L5.28765 38.143L7.21241 35.658C7.26766 35.5865 7.3333 35.5298 7.40558 35.4911C7.47786 35.4524 7.55537 35.4326 7.63361 35.4327Z" fill="var(--fill-0, black)"/>
</svg>
