<svg preserveAspectRatio="none" width="100%" height="100%" overflow="visible" style="display: block;" viewBox="0 0 8 11" fill="none" xmlns="http://www.w3.org/2000/svg">
<path id="Vector" d="M4.97478 10.634H0.599915C0.441919 10.634 0.290394 10.553 0.178674 10.4087C0.0669538 10.2644 0.00418938 10.0688 0.00418938 9.86478C0.00418938 9.66077 0.0669538 9.46511 0.178674 9.32085C0.290394 9.17659 0.441919 9.09555 0.599915 9.09555H4.97478C5.28382 9.09555 5.58022 8.93703 5.79875 8.65485C6.01728 8.37267 6.14005 7.98996 6.14005 7.5909C6.14005 7.19184 6.01728 6.80912 5.79875 6.52695C5.58022 6.24477 5.28382 6.08624 4.97478 6.08624H2.36092C2.05108 6.08695 1.74417 6.00877 1.45775 5.85615C1.17134 5.70354 0.911038 5.4795 0.691752 5.19685C0.472466 4.9142 0.298495 4.57849 0.179797 4.20893C0.0610979 3.83937 0 3.44321 0 3.04312C0 2.64304 0.0610979 2.24688 0.179797 1.87732C0.298495 1.50776 0.472466 1.17205 0.691752 0.889399C0.911038 0.606748 1.17134 0.382707 1.45775 0.230094C1.74417 0.0774815 2.05108 -0.000706363 2.36092 4.80812e-06H6.73607C6.89407 4.80812e-06 7.04559 0.0810487 7.15731 0.225307C7.26903 0.369566 7.3318 0.565223 7.3318 0.769236C7.3318 0.973249 7.26903 1.1689 7.15731 1.31316C7.04559 1.45742 6.89407 1.53847 6.73607 1.53847H2.36092C2.20764 1.53797 2.0558 1.57652 1.91408 1.65191C1.77236 1.7273 1.64356 1.83805 1.53504 1.97782C1.42652 2.11759 1.34042 2.28363 1.28168 2.46644C1.22293 2.64924 1.1927 2.84521 1.1927 3.04312C1.1927 3.24104 1.22293 3.43701 1.28168 3.61981C1.34042 3.80261 1.42652 3.96866 1.53504 4.10843C1.64356 4.2482 1.77236 4.35895 1.91408 4.43434C2.0558 4.50973 2.20764 4.54828 2.36092 4.54778H4.97478C5.59982 4.54778 6.19926 4.8684 6.64123 5.43909C7.0832 6.00978 7.3315 6.78381 7.3315 7.5909C7.3315 8.39798 7.0832 9.17201 6.64123 9.7427C6.19926 10.3134 5.59982 10.634 4.97478 10.634Z" fill="var(--fill-0, black)"/>
</svg>
