<svg preserveAspectRatio="none" width="100%" height="100%" overflow="visible" style="display: block;" viewBox="0 0 139 25" fill="none" xmlns="http://www.w3.org/2000/svg">
<g id="Marketplace">
<path id="Vector" d="M132.369 19.1864C130.999 19.1864 129.816 18.891 128.82 18.3001C127.83 17.703 127.068 16.8597 126.534 15.7702C126 14.6746 125.733 13.3851 125.733 11.9016C125.733 10.4428 126 9.16252 126.534 8.06072C127.074 6.95277 127.827 6.09103 128.793 5.4755C129.76 4.85381 130.895 4.54297 132.2 4.54297C133.042 4.54297 133.836 4.68454 134.584 4.96768C135.337 5.24467 136.001 5.67554 136.576 6.2603C137.157 6.84505 137.614 7.58984 137.946 8.49467C138.278 9.39335 138.444 10.4644 138.444 11.7077V12.7326H127.246V10.4798H135.357C135.351 9.83961 135.218 9.27024 134.957 8.77166C134.696 8.26693 134.332 7.86991 133.863 7.58061C133.401 7.29131 132.861 7.14666 132.244 7.14666C131.586 7.14666 131.008 7.31285 130.51 7.64524C130.012 7.97147 129.623 8.40234 129.345 8.93785C129.072 9.46721 128.933 10.0489 128.927 10.6829V12.6495C128.927 13.4743 129.072 14.1822 129.362 14.7731C129.653 15.3578 130.059 15.8072 130.581 16.1211C131.103 16.4289 131.714 16.5827 132.413 16.5827C132.882 16.5827 133.306 16.515 133.685 16.3796C134.065 16.238 134.394 16.0318 134.673 15.761C134.951 15.4902 135.162 15.1547 135.304 14.7546L138.31 15.1055C138.121 15.9303 137.759 16.6504 137.225 17.266C136.698 17.8754 136.022 18.3493 135.197 18.6879C134.373 19.0202 133.43 19.1864 132.369 19.1864Z" fill="var(--fill-0, white)"/>
<path id="Vector_2" d="M118.787 19.1864C117.423 19.1864 116.252 18.8756 115.274 18.2539C114.301 17.6322 113.551 16.7736 113.024 15.6779C112.502 14.5761 112.241 13.3081 112.241 11.8739C112.241 10.4336 112.508 9.16252 113.041 8.06072C113.575 6.95277 114.328 6.09103 115.301 5.4755C116.279 4.85381 117.435 4.54297 118.769 4.54297C119.878 4.54297 120.86 4.75533 121.714 5.18004C122.573 5.5986 123.258 6.19259 123.768 6.962C124.278 7.72526 124.569 8.61778 124.64 9.63956H121.562C121.438 8.95632 121.141 8.38695 120.673 7.93146C120.21 7.46981 119.591 7.23899 118.814 7.23899C118.156 7.23899 117.578 7.42365 117.08 7.79297C116.581 8.15613 116.193 8.67933 115.914 9.36257C115.642 10.0458 115.505 10.8645 115.505 11.8185C115.505 12.7849 115.642 13.6159 115.914 14.3114C116.187 15.0008 116.57 15.5333 117.062 15.9087C117.56 16.2781 118.144 16.4627 118.814 16.4627C119.288 16.4627 119.712 16.3704 120.086 16.1857C120.465 15.9949 120.783 15.721 121.038 15.364C121.293 15.007 121.468 14.573 121.562 14.0621H124.64C124.563 15.0655 124.278 15.9549 123.786 16.7305C123.294 17.4999 122.624 18.1031 121.776 18.5401C120.928 18.971 119.932 19.1864 118.787 19.1864Z" fill="var(--fill-0, white)"/>
<path id="Vector_3" d="M103.34 19.1957C102.474 19.1957 101.695 19.0356 101.001 18.7156C100.313 18.3893 99.7674 17.9092 99.3642 17.2752C98.9669 16.6412 98.7682 15.8595 98.7682 14.93C98.7682 14.1299 98.9106 13.4682 99.1952 12.945C99.4798 12.4218 99.8682 12.0032 100.36 11.6893C100.853 11.3754 101.407 11.1384 102.024 10.9783C102.646 10.8121 103.29 10.6921 103.954 10.6183C104.754 10.5321 105.404 10.4551 105.902 10.3874C106.4 10.3136 106.762 10.2028 106.987 10.055C107.218 9.90116 107.334 9.66418 107.334 9.3441V9.28871C107.334 8.59316 107.135 8.05457 106.738 7.67294C106.341 7.29131 105.768 7.1005 105.021 7.1005C104.233 7.1005 103.607 7.279 103.144 7.63601C102.688 7.99302 102.379 8.41465 102.219 8.90092L99.213 8.45774C99.4502 7.596 99.8415 6.87583 100.387 6.29723C100.933 5.71248 101.6 5.27545 102.388 4.98615C103.177 4.6907 104.049 4.54297 105.003 4.54297C105.662 4.54297 106.317 4.62299 106.969 4.78303C107.621 4.94306 108.217 5.20774 108.757 5.57706C109.296 5.94022 109.729 6.43572 110.056 7.06356C110.388 7.69141 110.554 8.47621 110.554 9.41797V18.9094H107.458V16.9613H107.352C107.156 17.3552 106.88 17.7246 106.524 18.0692C106.174 18.4078 105.733 18.6817 105.199 18.891C104.671 19.0941 104.052 19.1957 103.34 19.1957ZM104.176 16.7397C104.823 16.7397 105.383 16.6074 105.857 16.3427C106.332 16.0719 106.696 15.7148 106.951 15.2717C107.212 14.8285 107.343 14.3453 107.343 13.8221V12.1509C107.242 12.2371 107.07 12.3171 106.827 12.391C106.59 12.4648 106.323 12.5295 106.026 12.5849C105.73 12.6403 105.436 12.6895 105.146 12.7326C104.855 12.7757 104.603 12.8126 104.39 12.8434C103.909 12.9111 103.479 13.0219 103.1 13.1758C102.72 13.3297 102.421 13.5451 102.202 13.8221C101.982 14.0929 101.872 14.4438 101.872 14.8746C101.872 15.4902 102.089 15.9549 102.522 16.2688C102.955 16.5827 103.506 16.7397 104.176 16.7397Z" fill="var(--fill-0, white)"/>
<path id="Vector_4" d="M97.061 0V18.9091H93.8412V0H97.061Z" fill="var(--fill-0, white)"/>
<path id="Vector_5" d="M79.15 24.2276V4.72763H82.3165V7.0728H82.5033C82.6693 6.7281 82.9035 6.36186 83.206 5.97408C83.5084 5.58014 83.9175 5.24467 84.4334 4.96768C84.9493 4.68454 85.6075 4.54297 86.408 4.54297C87.4635 4.54297 88.4152 4.82303 89.2632 5.38317C90.1171 5.93714 90.7931 6.75888 91.2912 7.84837C91.7952 8.9317 92.0472 10.2612 92.0472 11.837C92.0472 13.3943 91.8011 14.7177 91.3089 15.8072C90.8168 16.8967 90.1467 17.7276 89.2988 18.3001C88.4508 18.8725 87.4902 19.1587 86.4169 19.1587C85.6342 19.1587 84.9849 19.0233 84.469 18.7525C83.9531 18.4817 83.538 18.1554 83.2238 17.7738C82.9154 17.386 82.6752 17.0198 82.5033 16.6751H82.3699V24.2276H79.15ZM82.3076 11.8185C82.3076 12.7357 82.4321 13.5389 82.6812 14.2283C82.9362 14.9177 83.3008 15.4563 83.7752 15.8441C84.2555 16.2257 84.8366 16.4165 85.5186 16.4165C86.2301 16.4165 86.8261 16.2196 87.3064 15.8256C87.7867 15.4255 88.1484 14.8808 88.3915 14.1914C88.6406 13.4959 88.7651 12.7049 88.7651 11.8185C88.7651 10.9383 88.6435 10.1566 88.4004 9.47337C88.1573 8.79013 87.7956 8.25462 87.3153 7.86683C86.835 7.47905 86.2361 7.28516 85.5186 7.28516C84.8307 7.28516 84.2466 7.47289 83.7663 7.84837C83.286 8.22384 82.9213 8.75012 82.6723 9.4272C82.4292 10.1043 82.3076 10.9014 82.3076 11.8185Z" fill="var(--fill-0, white)"/>
<path id="Vector_6" d="M77.4205 4.72781V7.31303H69.5666V4.72781H77.4205ZM71.5056 1.33008H74.7254V14.644C74.7254 15.0933 74.7907 15.438 74.9211 15.6781C75.0575 15.912 75.2354 16.072 75.4548 16.1582C75.6742 16.2444 75.9173 16.2875 76.1842 16.2875C76.3858 16.2875 76.5696 16.2721 76.7356 16.2413C76.9076 16.2105 77.038 16.1828 77.127 16.1582L77.6696 18.7711C77.4976 18.8327 77.2515 18.9004 76.9313 18.9743C76.617 19.0481 76.2316 19.0912 75.775 19.1035C74.9686 19.1281 74.2422 19.002 73.5958 18.725C72.9495 18.4418 72.4366 18.0048 72.0571 17.4139C71.6835 16.823 71.4997 16.0843 71.5056 15.198V1.33008Z" fill="var(--fill-0, white)"/>
<path id="Vector_7" d="M62.7627 19.1864C61.393 19.1864 60.21 18.891 59.2138 18.3001C58.2235 17.703 57.4616 16.8597 56.9279 15.7702C56.3942 14.6746 56.1274 13.3851 56.1274 11.9016C56.1274 10.4428 56.3942 9.16252 56.9279 8.06072C57.4675 6.95277 58.2206 6.09103 59.1871 5.4755C60.1537 4.85381 61.2892 4.54297 62.5937 4.54297C63.4358 4.54297 64.2303 4.68454 64.9775 4.96768C65.7306 5.24467 66.3947 5.67554 66.9699 6.2603C67.551 6.84505 68.0076 7.58984 68.3397 8.49467C68.6717 9.39335 68.8378 10.4644 68.8378 11.7077V12.7326H57.6394V10.4798H65.7513C65.7454 9.83961 65.612 9.27024 65.3511 8.77166C65.0902 8.26693 64.7255 7.86991 64.257 7.58061C63.7945 7.29131 63.2549 7.14666 62.6382 7.14666C61.98 7.14666 61.4019 7.31285 60.9038 7.64524C60.4057 7.97147 60.0173 8.40234 59.7386 8.93785C59.4658 9.46721 59.3265 10.0489 59.3205 10.6829V12.6495C59.3205 13.4743 59.4658 14.1822 59.7564 14.7731C60.0469 15.3578 60.4531 15.8072 60.9749 16.1211C61.4967 16.4289 62.1075 16.5827 62.8072 16.5827C63.2757 16.5827 63.6996 16.515 64.0791 16.3796C64.4586 16.238 64.7877 16.0318 65.0664 15.761C65.3451 15.4902 65.5556 15.1547 65.698 14.7546L68.7043 15.1055C68.5146 15.9303 68.1529 16.6504 67.6192 17.266C67.0914 17.8754 66.4155 18.3493 65.5912 18.6879C64.767 19.0202 63.8242 19.1864 62.7627 19.1864Z" fill="var(--fill-0, white)"/>
<path id="Vector_8" d="M46.9153 14.4588L46.9064 10.424H47.4223L52.3321 4.72727H56.0945L50.0551 11.7074H49.388L46.9153 14.4588ZM43.9801 18.9091V0H47.1999V18.9091H43.9801ZM52.5545 18.9091L48.1072 12.4553L50.2775 10.1009L56.4058 18.9091H52.5545Z" fill="var(--fill-0, white)"/>
<path id="Vector_9" d="M35.0126 18.9094V4.72754H38.1346V7.09118H38.2769C38.526 6.27252 38.9529 5.6416 39.5577 5.19842C40.1685 4.74908 40.8653 4.52441 41.648 4.52441C41.8259 4.52441 42.0245 4.53365 42.2439 4.55211C42.4692 4.56442 42.656 4.58597 42.8043 4.61674V7.69132C42.6679 7.64207 42.4515 7.59899 42.155 7.56206C41.8644 7.51897 41.5827 7.49743 41.31 7.49743C40.7229 7.49743 40.1952 7.62976 39.7267 7.89444C39.2642 8.15296 38.8995 8.51305 38.6327 8.9747C38.3659 9.43635 38.2324 9.96878 38.2324 10.572V18.9094H35.0126Z" fill="var(--fill-0, white)"/>
<path id="Vector_10" d="M25.5248 19.1957C24.659 19.1957 23.8793 19.0356 23.1855 18.7156C22.4976 18.3893 21.9521 17.9092 21.5489 17.2752C21.1516 16.6412 20.9529 15.8595 20.9529 14.93C20.9529 14.1299 21.0953 13.4682 21.3799 12.945C21.6645 12.4218 22.0529 12.0032 22.5451 11.6893C23.0373 11.3754 23.5917 11.1384 24.2084 10.9783C24.831 10.8121 25.4744 10.6921 26.1385 10.6183C26.939 10.5321 27.5883 10.4551 28.0864 10.3874C28.5845 10.3136 28.9462 10.2028 29.1716 10.055C29.4028 9.90116 29.5185 9.66418 29.5185 9.3441V9.28871C29.5185 8.59316 29.3198 8.05457 28.9225 7.67294C28.5252 7.29131 27.953 7.1005 27.2059 7.1005C26.4172 7.1005 25.7916 7.279 25.3291 7.63601C24.8725 7.99302 24.5642 8.41465 24.4041 8.90092L21.3977 8.45774C21.6349 7.596 22.0262 6.87583 22.5718 6.29723C23.1173 5.71248 23.7844 5.27545 24.5731 4.98615C25.3617 4.6907 26.2334 4.54297 27.1881 4.54297C27.8463 4.54297 28.5015 4.62299 29.1538 4.78303C29.806 4.94306 30.402 5.20774 30.9416 5.57706C31.4812 5.94022 31.9141 6.43572 32.2402 7.06356C32.5723 7.69141 32.7383 8.47621 32.7383 9.41797V18.9094H29.643V16.9613H29.5362C29.3406 17.3552 29.0648 17.7246 28.709 18.0692C28.3592 18.4078 27.9174 18.6817 27.3837 18.891C26.856 19.0941 26.2363 19.1957 25.5248 19.1957ZM26.3609 16.7397C27.0072 16.7397 27.5676 16.6074 28.0419 16.3427C28.5163 16.0719 28.881 15.7148 29.136 15.2717C29.3969 14.8285 29.5273 14.3453 29.5273 13.8221V12.1509C29.4265 12.2371 29.2546 12.3171 29.0115 12.391C28.7743 12.4648 28.5074 12.5295 28.2109 12.5849C27.9145 12.6403 27.6209 12.6895 27.3304 12.7326C27.0398 12.7757 26.7878 12.8126 26.5743 12.8434C26.094 12.9111 25.6641 13.0219 25.2846 13.1758C24.9051 13.3297 24.6057 13.5451 24.3863 13.8221C24.1669 14.0929 24.0572 14.4438 24.0572 14.8746C24.0572 15.4902 24.2736 15.9549 24.7065 16.2688C25.1393 16.5827 25.6908 16.7397 26.3609 16.7397Z" fill="var(--fill-0, white)"/>
<path id="Vector_11" d="M6.48499e-05 8.82149e-05H4.03821L9.44613 13.7018H9.6596L15.0675 8.82149e-05H19.1057V18.9092H15.9392V5.91841H15.7702L10.7359 18.8538H8.36989L3.33554 5.89071H3.16654V18.9092H6.48499e-05V8.82149e-05Z" fill="var(--fill-0, white)"/>
</g>
</svg>
