<svg preserveAspectRatio="none" width="100%" height="100%" overflow="visible" style="display: block;" viewBox="0 0 40 40" fill="none" xmlns="http://www.w3.org/2000/svg">
<g id="convertshape-2">
<path id="Vector" d="M3.33333 31.4167V26.9167C3.33333 23.1667 4.83333 21.6667 8.58333 21.6667H13.0833C16.8333 21.6667 18.3333 23.1667 18.3333 26.9167V31.4167C18.3333 35.1667 16.8333 36.6667 13.0833 36.6667H8.58333" stroke="var(--stroke-0, #364247)" stroke-width="5" stroke-linecap="round" stroke-linejoin="round"/>
<path id="Vector_2" d="M36.6667 25C36.6667 31.45 31.45 36.6667 25 36.6667L26.75 33.75" stroke="var(--stroke-0, #364247)" stroke-width="5" stroke-linecap="round" stroke-linejoin="round"/>
<path id="Vector_3" d="M3.33333 15C3.33333 8.55 8.55 3.33333 15 3.33333L13.25 6.25" stroke="var(--stroke-0, #364247)" stroke-width="5" stroke-linecap="round" stroke-linejoin="round"/>
<path id="Vector_4" d="M29.1667 18.3333C33.3088 18.3333 36.6667 14.9755 36.6667 10.8333C36.6667 6.6912 33.3088 3.33333 29.1667 3.33333C25.0245 3.33333 21.6667 6.6912 21.6667 10.8333C21.6667 14.9755 25.0245 18.3333 29.1667 18.3333Z" stroke="var(--stroke-0, #364247)" stroke-width="5" stroke-linecap="round" stroke-linejoin="round"/>
<g id="Vector_5" opacity="0">
</g>
</g>
</svg>
