<svg preserveAspectRatio="none" width="100%" height="100%" overflow="visible" style="display: block;" viewBox="0 0 27 35" fill="none" xmlns="http://www.w3.org/2000/svg">
<path id="Icon" d="M11.5333 17.9167L13.3333 16.55L15.1167 17.9C15.7667 18.3833 16.65 17.7667 16.4167 16.9833L15.7167 14.7167L17.7167 13.1333C18.3333 12.6667 17.9833 11.6667 17.1833 11.6667H14.85L14.1333 9.43333C13.8833 8.66667 12.8 8.66667 12.55 9.43333L11.8167 11.6667H9.46667C8.68333 11.6667 8.33333 12.6667 8.95 13.15L10.9333 14.7333L10.2333 17C10 17.7833 10.8833 18.4 11.5333 17.9167ZM3.33333 32.6833C3.33333 33.8167 4.45 34.6167 5.53333 34.2667L13.3333 31.6667L21.1333 34.2667C22.2167 34.6333 23.3333 33.8333 23.3333 32.6833V22.1333C25.4 19.7833 26.6667 16.7167 26.6667 13.3333C26.6667 5.96667 20.7 0 13.3333 0C5.96667 0 0 5.96667 0 13.3333C0 16.7167 1.26667 19.7833 3.33333 22.1333V32.6833ZM13.3333 3.33333C18.85 3.33333 23.3333 7.81667 23.3333 13.3333C23.3333 18.85 18.85 23.3333 13.3333 23.3333C7.81667 23.3333 3.33333 18.85 3.33333 13.3333C3.33333 7.81667 7.81667 3.33333 13.3333 3.33333Z" fill="var(--fill-0, black)"/>
</svg>
