<svg preserveAspectRatio="none" width="100%" height="100%" overflow="visible" style="display: block;" viewBox="0 0 24 24" fill="none" xmlns="http://www.w3.org/2000/svg">
<path id="Vector" d="M4.67583 10.0621C6.53583 13.7175 9.5325 16.7012 13.1879 18.5742L16.0296 15.7325C16.3783 15.3837 16.895 15.2675 17.3471 15.4225C18.7937 15.9004 20.3567 16.1587 21.9583 16.1587C22.6687 16.1587 23.25 16.74 23.25 17.4504V21.9583C23.25 22.6687 22.6687 23.25 21.9583 23.25C9.82958 23.25 0 13.4204 0 1.29167C0 0.58125 0.58125 0 1.29167 0H5.8125C6.52292 0 7.10417 0.58125 7.10417 1.29167C7.10417 2.90625 7.3625 4.45625 7.84042 5.90292C7.9825 6.355 7.87917 6.85875 7.5175 7.22042L4.67583 10.0621Z" fill="var(--fill-0, #7D23C9)"/>
</svg>
