<svg preserveAspectRatio="none" width="100%" height="100%" overflow="visible" style="display: block;" viewBox="0 0 98 28" fill="none" xmlns="http://www.w3.org/2000/svg">
<g id="Fictional company logo" style="mix-blend-mode:plus-darker">
<g id="Logomark">
<g id="Shape">
<path fill-rule="evenodd" clip-rule="evenodd" d="M11.5305 2.01117C11.2359 1.95057 10.9321 1.95057 10.6375 2.01117C10.2969 2.08121 9.99255 2.25169 9.75057 2.38723L9.68461 2.42408L1.4833 6.98039C1.46062 6.99299 1.43726 7.00586 1.41332 7.01904C1.15716 7.16014 0.835074 7.33754 0.587732 7.60595C0.373887 7.838 0.212054 8.11304 0.113057 8.41267C-0.00144784 8.75923 -0.000108167 9.12694 0.000957233 9.41939C0.00105683 9.44672 0.00115397 9.47339 0.00115397 9.49933V18.4955C0.00115397 18.5214 0.00105683 18.5481 0.000957233 18.5754C-0.000108167 18.8679 -0.00144784 19.2356 0.113057 19.5821C0.212055 19.8818 0.373888 20.1568 0.587732 20.3888C0.835074 20.6573 1.15716 20.8347 1.41332 20.9757C1.43726 20.9889 1.46062 21.0018 1.4833 21.0144L9.68461 25.5707L9.75058 25.6076C9.99256 25.7431 10.2969 25.9136 10.6375 25.9836C10.9321 26.0442 11.2359 26.0442 11.5305 25.9836C11.8711 25.9136 12.1755 25.7431 12.4175 25.6076L12.4834 25.5707L20.6847 21.0144C20.6947 21.0088 20.7049 21.0032 20.7152 20.9975C20.7282 20.9904 20.7413 20.9831 20.7547 20.9758C21.0109 20.8347 21.3329 20.6573 21.5803 20.3888C21.7941 20.1568 21.956 19.8818 22.055 19.5821C22.1695 19.2356 22.1681 18.8678 22.1671 18.5754C22.167 18.5481 22.1669 18.5214 22.1669 18.4955V9.49933C22.1669 9.47339 22.167 9.44672 22.1671 9.41939C22.1681 9.12694 22.1695 8.75923 22.055 8.41267C21.956 8.11304 21.7941 7.838 21.5803 7.60594C21.3329 7.33754 21.0109 7.16013 20.7547 7.01904L20.7538 7.01854C20.7302 7.00553 20.7071 6.99283 20.6847 6.98039L12.4834 2.42408L12.4174 2.38723C12.1755 2.25169 11.8711 2.08121 11.5305 2.01117ZM10.7611 4.36172C10.929 4.26841 11.0148 4.22127 11.0787 4.19042L11.084 4.18788L11.0893 4.19042C11.1533 4.22127 11.239 4.26841 11.407 4.36172L18.7764 8.4559L11.084 12.7295L3.39155 8.45593L10.7611 4.36172ZM2.21773 10.3395L9.97569 14.6495L9.97572 23.1968L2.55976 19.0768C2.38249 18.9783 2.29198 18.9275 2.22848 18.887L2.22311 18.8836L2.22271 18.8772C2.21819 18.8021 2.21773 18.6983 2.21773 18.4955V10.3395Z" fill="var(--fill-0, #D6F6D9)"/>
<path fill-rule="evenodd" clip-rule="evenodd" d="M11.5305 2.01117C11.2359 1.95057 10.9321 1.95057 10.6375 2.01117C10.2969 2.08121 9.99255 2.25169 9.75057 2.38723L9.68461 2.42408L1.4833 6.98039C1.46062 6.99299 1.43726 7.00586 1.41332 7.01904C1.15716 7.16014 0.835074 7.33754 0.587732 7.60595C0.373887 7.838 0.212054 8.11304 0.113057 8.41267C-0.00144784 8.75923 -0.000108167 9.12694 0.000957233 9.41939C0.00105683 9.44672 0.00115397 9.47339 0.00115397 9.49933V18.4955C0.00115397 18.5214 0.00105683 18.5481 0.000957233 18.5754C-0.000108167 18.8679 -0.00144784 19.2356 0.113057 19.5821C0.212055 19.8818 0.373888 20.1568 0.587732 20.3888C0.835074 20.6573 1.15716 20.8347 1.41332 20.9757C1.43726 20.9889 1.46062 21.0018 1.4833 21.0144L9.68461 25.5707L9.75058 25.6076C9.99256 25.7431 10.2969 25.9136 10.6375 25.9836C10.9321 26.0442 11.2359 26.0442 11.5305 25.9836C11.8711 25.9136 12.1755 25.7431 12.4175 25.6076L12.4834 25.5707L20.6847 21.0144C20.6947 21.0088 20.7049 21.0032 20.7152 20.9975C20.7282 20.9904 20.7413 20.9831 20.7547 20.9758C21.0109 20.8347 21.3329 20.6573 21.5803 20.3888C21.7941 20.1568 21.956 19.8818 22.055 19.5821C22.1695 19.2356 22.1681 18.8678 22.1671 18.5754C22.167 18.5481 22.1669 18.5214 22.1669 18.4955V9.49933C22.1669 9.47339 22.167 9.44672 22.1671 9.41939C22.1681 9.12694 22.1695 8.75923 22.055 8.41267C21.956 8.11304 21.7941 7.838 21.5803 7.60594C21.3329 7.33754 21.0109 7.16013 20.7547 7.01904L20.7538 7.01854C20.7302 7.00553 20.7071 6.99283 20.6847 6.98039L12.4834 2.42408L12.4174 2.38723C12.1755 2.25169 11.8711 2.08121 11.5305 2.01117ZM10.7611 4.36172C10.929 4.26841 11.0148 4.22127 11.0787 4.19042L11.084 4.18788L11.0893 4.19042C11.1533 4.22127 11.239 4.26841 11.407 4.36172L18.7764 8.4559L11.084 12.7295L3.39155 8.45593L10.7611 4.36172ZM2.21773 10.3395L9.97569 14.6495L9.97572 23.1968L2.55976 19.0768C2.38249 18.9783 2.29198 18.9275 2.22848 18.887L2.22311 18.8836L2.22271 18.8772C2.21819 18.8021 2.21773 18.6983 2.21773 18.4955V10.3395Z" fill="url(#paint0_radial_8769_18946)"/>
</g>
</g>
<g id="Logotype">
<path d="M32.2541 17.7015H35.7821V19.7805H29.5608V8.724H32.2541V17.7015Z" fill="var(--fill-0, #D6F6D9)"/>
<path d="M32.2541 17.7015H35.7821V19.7805H29.5608V8.724H32.2541V17.7015Z" fill="url(#paint1_radial_8769_18946)"/>
<path d="M38.2636 10.0785C37.7911 10.0785 37.4027 9.942 37.0982 9.669C36.8042 9.3855 36.6572 9.039 36.6572 8.6295C36.6572 8.2095 36.8042 7.863 37.0982 7.59C37.4027 7.3065 37.7911 7.16475 38.2636 7.16475C38.7256 7.16475 39.1036 7.3065 39.3976 7.59C39.7021 7.863 39.8544 8.2095 39.8544 8.6295C39.8544 9.039 39.7021 9.3855 39.3976 9.669C39.1036 9.942 38.7256 10.0785 38.2636 10.0785ZM39.6024 10.992V19.7805H36.9092V10.992H39.6024Z" fill="var(--fill-0, #D6F6D9)"/>
<path d="M38.2636 10.0785C37.7911 10.0785 37.4027 9.942 37.0982 9.669C36.8042 9.3855 36.6572 9.039 36.6572 8.6295C36.6572 8.2095 36.8042 7.863 37.0982 7.59C37.4027 7.3065 37.7911 7.16475 38.2636 7.16475C38.7256 7.16475 39.1036 7.3065 39.3976 7.59C39.7021 7.863 39.8544 8.2095 39.8544 8.6295C39.8544 9.039 39.7021 9.3855 39.3976 9.669C39.1036 9.942 38.7256 10.0785 38.2636 10.0785ZM39.6024 10.992V19.7805H36.9092V10.992H39.6024Z" fill="url(#paint2_radial_8769_18946)"/>
<path d="M44.7356 10.866C45.3551 10.866 45.8959 10.992 46.3579 11.244C46.8304 11.496 47.1926 11.8267 47.4446 12.2362V10.992H50.1378V19.7647C50.1378 20.5732 49.9751 21.303 49.6496 21.954C49.3346 22.6155 48.8463 23.1405 48.1849 23.529C47.5339 23.9175 46.7201 24.1117 45.7436 24.1117C44.4416 24.1117 43.3864 23.802 42.5779 23.1825C41.7694 22.5735 41.3074 21.744 41.1919 20.694H43.8536C43.9376 21.03 44.1371 21.2925 44.4521 21.4815C44.7671 21.681 45.1556 21.7807 45.6176 21.7807C46.1741 21.7807 46.6151 21.618 46.9406 21.2925C47.2766 20.9775 47.4446 20.4682 47.4446 19.7647V18.5205C47.1821 18.93 46.8199 19.266 46.3579 19.5285C45.8959 19.7805 45.3551 19.9065 44.7356 19.9065C44.0111 19.9065 43.3549 19.7227 42.7669 19.3552C42.1789 18.9772 41.7116 18.447 41.3651 17.7645C41.0291 17.0715 40.8611 16.2735 40.8611 15.3705C40.8611 14.4675 41.0291 13.6747 41.3651 12.9922C41.7116 12.3097 42.1789 11.7847 42.7669 11.4172C43.3549 11.0497 44.0111 10.866 44.7356 10.866ZM47.4446 15.3862C47.4446 14.7142 47.2556 14.184 46.8776 13.7955C46.5101 13.407 46.0586 13.2127 45.5231 13.2127C44.9876 13.2127 44.5309 13.407 44.1529 13.7955C43.7854 14.1735 43.6016 14.6985 43.6016 15.3705C43.6016 16.0425 43.7854 16.578 44.1529 16.977C44.5309 17.3655 44.9876 17.5597 45.5231 17.5597C46.0586 17.5597 46.5101 17.3655 46.8776 16.977C47.2556 16.5885 47.4446 16.0582 47.4446 15.3862Z" fill="var(--fill-0, #D6F6D9)"/>
<path d="M44.7356 10.866C45.3551 10.866 45.8959 10.992 46.3579 11.244C46.8304 11.496 47.1926 11.8267 47.4446 12.2362V10.992H50.1378V19.7647C50.1378 20.5732 49.9751 21.303 49.6496 21.954C49.3346 22.6155 48.8463 23.1405 48.1849 23.529C47.5339 23.9175 46.7201 24.1117 45.7436 24.1117C44.4416 24.1117 43.3864 23.802 42.5779 23.1825C41.7694 22.5735 41.3074 21.744 41.1919 20.694H43.8536C43.9376 21.03 44.1371 21.2925 44.4521 21.4815C44.7671 21.681 45.1556 21.7807 45.6176 21.7807C46.1741 21.7807 46.6151 21.618 46.9406 21.2925C47.2766 20.9775 47.4446 20.4682 47.4446 19.7647V18.5205C47.1821 18.93 46.8199 19.266 46.3579 19.5285C45.8959 19.7805 45.3551 19.9065 44.7356 19.9065C44.0111 19.9065 43.3549 19.7227 42.7669 19.3552C42.1789 18.9772 41.7116 18.447 41.3651 17.7645C41.0291 17.0715 40.8611 16.2735 40.8611 15.3705C40.8611 14.4675 41.0291 13.6747 41.3651 12.9922C41.7116 12.3097 42.1789 11.7847 42.7669 11.4172C43.3549 11.0497 44.0111 10.866 44.7356 10.866ZM47.4446 15.3862C47.4446 14.7142 47.2556 14.184 46.8776 13.7955C46.5101 13.407 46.0586 13.2127 45.5231 13.2127C44.9876 13.2127 44.5309 13.407 44.1529 13.7955C43.7854 14.1735 43.6016 14.6985 43.6016 15.3705C43.6016 16.0425 43.7854 16.578 44.1529 16.977C44.5309 17.3655 44.9876 17.5597 45.5231 17.5597C46.0586 17.5597 46.5101 17.3655 46.8776 16.977C47.2556 16.5885 47.4446 16.0582 47.4446 15.3862Z" fill="url(#paint3_radial_8769_18946)"/>
<path d="M57.331 10.8975C58.339 10.8975 59.1475 11.2335 59.7565 11.9055C60.3655 12.567 60.67 13.4805 60.67 14.646V19.7805H57.9925V15.0082C57.9925 14.4202 57.8402 13.9635 57.5357 13.638C57.2312 13.3125 56.8217 13.1497 56.3072 13.1497C55.7927 13.1497 55.3833 13.3125 55.0788 13.638C54.7743 13.9635 54.622 14.4202 54.622 15.0082V19.7805H51.9288V8.1255H54.622V12.1732C54.895 11.7847 55.2678 11.475 55.7402 11.244C56.2127 11.013 56.743 10.8975 57.331 10.8975Z" fill="var(--fill-0, #D6F6D9)"/>
<path d="M57.331 10.8975C58.339 10.8975 59.1475 11.2335 59.7565 11.9055C60.3655 12.567 60.67 13.4805 60.67 14.646V19.7805H57.9925V15.0082C57.9925 14.4202 57.8402 13.9635 57.5357 13.638C57.2312 13.3125 56.8217 13.1497 56.3072 13.1497C55.7927 13.1497 55.3833 13.3125 55.0788 13.638C54.7743 13.9635 54.622 14.4202 54.622 15.0082V19.7805H51.9288V8.1255H54.622V12.1732C54.895 11.7847 55.2678 11.475 55.7402 11.244C56.2127 11.013 56.743 10.8975 57.331 10.8975Z" fill="url(#paint4_radial_8769_18946)"/>
<path d="M67.2822 17.4967V19.7805H65.912C64.9355 19.7805 64.1742 19.5442 63.6282 19.0717C63.0822 18.5887 62.8092 17.8065 62.8092 16.725V13.2285H61.7383V10.992H62.8092V8.85H65.5025V10.992H67.2665V13.2285H65.5025V16.7565C65.5025 17.019 65.5655 17.208 65.6915 17.3235C65.8175 17.439 66.0275 17.4967 66.3215 17.4967H67.2822Z" fill="var(--fill-0, #D6F6D9)"/>
<path d="M67.2822 17.4967V19.7805H65.912C64.9355 19.7805 64.1742 19.5442 63.6282 19.0717C63.0822 18.5887 62.8092 17.8065 62.8092 16.725V13.2285H61.7383V10.992H62.8092V8.85H65.5025V10.992H67.2665V13.2285H65.5025V16.7565C65.5025 17.019 65.5655 17.208 65.6915 17.3235C65.8175 17.439 66.0275 17.4967 66.3215 17.4967H67.2822Z" fill="url(#paint5_radial_8769_18946)"/>
<path d="M71.3181 12.2362C71.5701 11.8267 71.9324 11.496 72.4049 11.244C72.8774 10.992 73.4181 10.866 74.0271 10.866C74.7516 10.866 75.4079 11.0497 75.9958 11.4172C76.5838 11.7847 77.0458 12.3097 77.3818 12.9922C77.7283 13.6747 77.9016 14.4675 77.9016 15.3705C77.9016 16.2735 77.7283 17.0715 77.3818 17.7645C77.0458 18.447 76.5838 18.9772 75.9958 19.3552C75.4079 19.7227 74.7516 19.9065 74.0271 19.9065C73.4076 19.9065 72.8669 19.7857 72.4049 19.5442C71.9429 19.2922 71.5806 18.9615 71.3181 18.552V19.7805H68.6249V8.1255H71.3181V12.2362ZM75.1611 15.3705C75.1611 14.6985 74.9721 14.1735 74.5941 13.7955C74.2266 13.407 73.7699 13.2127 73.2239 13.2127C72.6884 13.2127 72.2316 13.407 71.8536 13.7955C71.4861 14.184 71.3024 14.7142 71.3024 15.3862C71.3024 16.0582 71.4861 16.5885 71.8536 16.977C72.2316 17.3655 72.6884 17.5597 73.2239 17.5597C73.7594 17.5597 74.2161 17.3655 74.5941 16.977C74.9721 16.578 75.1611 16.0425 75.1611 15.3705Z" fill="var(--fill-0, #D6F6D9)"/>
<path d="M71.3181 12.2362C71.5701 11.8267 71.9324 11.496 72.4049 11.244C72.8774 10.992 73.4181 10.866 74.0271 10.866C74.7516 10.866 75.4079 11.0497 75.9958 11.4172C76.5838 11.7847 77.0458 12.3097 77.3818 12.9922C77.7283 13.6747 77.9016 14.4675 77.9016 15.3705C77.9016 16.2735 77.7283 17.0715 77.3818 17.7645C77.0458 18.447 76.5838 18.9772 75.9958 19.3552C75.4079 19.7227 74.7516 19.9065 74.0271 19.9065C73.4076 19.9065 72.8669 19.7857 72.4049 19.5442C71.9429 19.2922 71.5806 18.9615 71.3181 18.552V19.7805H68.6249V8.1255H71.3181V12.2362ZM75.1611 15.3705C75.1611 14.6985 74.9721 14.1735 74.5941 13.7955C74.2266 13.407 73.7699 13.2127 73.2239 13.2127C72.6884 13.2127 72.2316 13.407 71.8536 13.7955C71.4861 14.184 71.3024 14.7142 71.3024 15.3862C71.3024 16.0582 71.4861 16.5885 71.8536 16.977C72.2316 17.3655 72.6884 17.5597 73.2239 17.5597C73.7594 17.5597 74.2161 17.3655 74.5941 16.977C74.9721 16.578 75.1611 16.0425 75.1611 15.3705Z" fill="url(#paint6_radial_8769_18946)"/>
<path d="M83.1575 19.9065C82.2965 19.9065 81.5195 19.7227 80.8265 19.3552C80.144 18.9877 79.6033 18.4627 79.2043 17.7802C78.8158 17.0977 78.6215 16.2997 78.6215 15.3862C78.6215 14.4832 78.821 13.6905 79.22 13.008C79.619 12.315 80.165 11.7847 80.858 11.4172C81.551 11.0497 82.328 10.866 83.189 10.866C84.05 10.866 84.827 11.0497 85.52 11.4172C86.213 11.7847 86.759 12.315 87.158 13.008C87.557 13.6905 87.7565 14.4832 87.7565 15.3862C87.7565 16.2892 87.5517 17.0872 87.1422 17.7802C86.7432 18.4627 86.192 18.9877 85.4885 19.3552C84.7955 19.7227 84.0185 19.9065 83.1575 19.9065ZM83.1575 17.5755C83.672 17.5755 84.1077 17.3865 84.4647 17.0085C84.8322 16.6305 85.016 16.0897 85.016 15.3862C85.016 14.6827 84.8375 14.142 84.4805 13.764C84.134 13.386 83.7035 13.197 83.189 13.197C82.664 13.197 82.2283 13.386 81.8818 13.764C81.5353 14.1315 81.362 14.6722 81.362 15.3862C81.362 16.0897 81.53 16.6305 81.866 17.0085C82.2125 17.3865 82.643 17.5755 83.1575 17.5755Z" fill="var(--fill-0, #D6F6D9)"/>
<path d="M83.1575 19.9065C82.2965 19.9065 81.5195 19.7227 80.8265 19.3552C80.144 18.9877 79.6033 18.4627 79.2043 17.7802C78.8158 17.0977 78.6215 16.2997 78.6215 15.3862C78.6215 14.4832 78.821 13.6905 79.22 13.008C79.619 12.315 80.165 11.7847 80.858 11.4172C81.551 11.0497 82.328 10.866 83.189 10.866C84.05 10.866 84.827 11.0497 85.52 11.4172C86.213 11.7847 86.759 12.315 87.158 13.008C87.557 13.6905 87.7565 14.4832 87.7565 15.3862C87.7565 16.2892 87.5517 17.0872 87.1422 17.7802C86.7432 18.4627 86.192 18.9877 85.4885 19.3552C84.7955 19.7227 84.0185 19.9065 83.1575 19.9065ZM83.1575 17.5755C83.672 17.5755 84.1077 17.3865 84.4647 17.0085C84.8322 16.6305 85.016 16.0897 85.016 15.3862C85.016 14.6827 84.8375 14.142 84.4805 13.764C84.134 13.386 83.7035 13.197 83.189 13.197C82.664 13.197 82.2283 13.386 81.8818 13.764C81.5353 14.1315 81.362 14.6722 81.362 15.3862C81.362 16.0897 81.53 16.6305 81.866 17.0085C82.2125 17.3865 82.643 17.5755 83.1575 17.5755Z" fill="url(#paint7_radial_8769_18946)"/>
<path d="M94.2253 19.7805L92.54 17.3392L91.1225 19.7805H88.2088L91.1068 15.2917L88.13 10.992H91.154L92.8393 13.4175L94.2568 10.992H97.1705L94.2253 15.4177L97.2492 19.7805H94.2253Z" fill="var(--fill-0, #D6F6D9)"/>
<path d="M94.2253 19.7805L92.54 17.3392L91.1225 19.7805H88.2088L91.1068 15.2917L88.13 10.992H91.154L92.8393 13.4175L94.2568 10.992H97.1705L94.2253 15.4177L97.2492 19.7805H94.2253Z" fill="url(#paint8_radial_8769_18946)"/>
</g>
</g>
<defs>
<radialGradient id="paint0_radial_8769_18946" cx="0" cy="0" r="1" gradientTransform="matrix(30.517 11.1818 -0.645674 33.1283 -1.2277 2.97429)" gradientUnits="userSpaceOnUse">
<stop stop-color="white" stop-opacity="0"/>
<stop offset="1" stop-color="white" stop-opacity="0.4"/>
</radialGradient>
<radialGradient id="paint1_radial_8769_18946" cx="0" cy="0" r="1" gradientUnits="userSpaceOnUse" gradientTransform="translate(25.8096 7.87504) rotate(4.83042) scale(93.5197 23.4143)">
<stop stop-color="white" stop-opacity="0"/>
<stop offset="1" stop-color="white" stop-opacity="0.4"/>
</radialGradient>
<radialGradient id="paint2_radial_8769_18946" cx="0" cy="0" r="1" gradientUnits="userSpaceOnUse" gradientTransform="translate(25.8096 7.87504) rotate(4.83042) scale(93.5197 23.4143)">
<stop stop-color="white" stop-opacity="0"/>
<stop offset="1" stop-color="white" stop-opacity="0.4"/>
</radialGradient>
<radialGradient id="paint3_radial_8769_18946" cx="0" cy="0" r="1" gradientUnits="userSpaceOnUse" gradientTransform="translate(25.8096 7.87504) rotate(4.83042) scale(93.5197 23.4143)">
<stop stop-color="white" stop-opacity="0"/>
<stop offset="1" stop-color="white" stop-opacity="0.4"/>
</radialGradient>
<radialGradient id="paint4_radial_8769_18946" cx="0" cy="0" r="1" gradientUnits="userSpaceOnUse" gradientTransform="translate(25.8096 7.87504) rotate(4.83042) scale(93.5197 23.4143)">
<stop stop-color="white" stop-opacity="0"/>
<stop offset="1" stop-color="white" stop-opacity="0.4"/>
</radialGradient>
<radialGradient id="paint5_radial_8769_18946" cx="0" cy="0" r="1" gradientUnits="userSpaceOnUse" gradientTransform="translate(25.8096 7.87504) rotate(4.83042) scale(93.5197 23.4143)">
<stop stop-color="white" stop-opacity="0"/>
<stop offset="1" stop-color="white" stop-opacity="0.4"/>
</radialGradient>
<radialGradient id="paint6_radial_8769_18946" cx="0" cy="0" r="1" gradientUnits="userSpaceOnUse" gradientTransform="translate(25.8096 7.87504) rotate(4.83042) scale(93.5197 23.4143)">
<stop stop-color="white" stop-opacity="0"/>
<stop offset="1" stop-color="white" stop-opacity="0.4"/>
</radialGradient>
<radialGradient id="paint7_radial_8769_18946" cx="0" cy="0" r="1" gradientUnits="userSpaceOnUse" gradientTransform="translate(25.8096 7.87504) rotate(4.83042) scale(93.5197 23.4143)">
<stop stop-color="white" stop-opacity="0"/>
<stop offset="1" stop-color="white" stop-opacity="0.4"/>
</radialGradient>
<radialGradient id="paint8_radial_8769_18946" cx="0" cy="0" r="1" gradientUnits="userSpaceOnUse" gradientTransform="translate(25.8096 7.87504) rotate(4.83042) scale(93.5197 23.4143)">
<stop stop-color="white" stop-opacity="0"/>
<stop offset="1" stop-color="white" stop-opacity="0.4"/>
</radialGradient>
</defs>
</svg>
