<svg preserveAspectRatio="none" width="100%" height="100%" overflow="visible" style="display: block;" viewBox="0 0 42 42" fill="none" xmlns="http://www.w3.org/2000/svg">
<g id="07-Video call">
<path id="Vector" d="M40.375 35.125V37.75C40.375 38.4462 40.0984 39.1139 39.6062 39.6062C39.1139 40.0984 38.4462 40.375 37.75 40.375H3.625C2.92881 40.375 2.26113 40.0984 1.76884 39.6062C1.27656 39.1139 1 38.4462 1 37.75V35.125H15.4375L16.75 36.4375H24.625L25.9375 35.125H40.375Z" stroke="var(--stroke-0, white)" stroke-width="2" stroke-linejoin="round"/>
<path id="Vector_2" d="M37.75 35.125V8.875H32.5" stroke="var(--stroke-0, white)" stroke-width="2" stroke-linejoin="round"/>
<path id="Vector_3" d="M3.625 35.125V8.875H8.875" stroke="var(--stroke-0, white)" stroke-width="2" stroke-linejoin="round"/>
<path id="Vector_4" d="M8.875 1V24.625H15.4375L20.6875 29.875L25.9375 24.625H32.5V1H8.875Z" stroke="var(--stroke-0, white)" stroke-width="2" stroke-linejoin="round"/>
<path id="Vector_5" d="M20.6875 15.4375C23.587 15.4375 25.9375 13.087 25.9375 10.1875C25.9375 7.288 23.587 4.9375 20.6875 4.9375C17.788 4.9375 15.4375 7.288 15.4375 10.1875C15.4375 13.087 17.788 15.4375 20.6875 15.4375Z" stroke="var(--stroke-0, white)" stroke-width="2" stroke-linejoin="round"/>
<path id="Vector_6" d="M14.125 22C14.125 20.2595 14.8164 18.5903 16.0471 17.3596C17.2778 16.1289 18.947 15.4375 20.6875 15.4375C22.428 15.4375 24.0972 16.1289 25.3279 17.3596C26.5586 18.5903 27.25 20.2595 27.25 22" stroke="var(--stroke-0, white)" stroke-width="2" stroke-linejoin="round"/>
</g>
</svg>
