<svg preserveAspectRatio="none" width="100%" height="100%" overflow="visible" style="display: block;" viewBox="0 0 75 75" fill="none" xmlns="http://www.w3.org/2000/svg">
<g id="interface-solid-multimedia-play-button-1">
<g id="Vector">
</g>
<path id="Vector_2" d="M37.5 0C30.0832 0 22.833 2.19934 16.6661 6.31989C10.4993 10.4404 5.69282 16.2971 2.85453 23.1494C0.0162482 30.0016 -0.726377 37.5416 0.720569 44.8159C2.16751 52.0902 5.73904 58.772 10.9835 64.0165C16.228 69.261 22.9098 72.8325 30.1841 74.2794C37.4584 75.7264 44.9984 74.9838 51.8506 72.1455C58.7029 69.3072 64.5596 64.5007 68.6801 58.3339C72.8007 52.167 75 44.9168 75 37.5C74.9892 27.5577 71.0348 18.0257 64.0045 10.9955C56.9743 3.96523 47.4423 0.010859 37.5 0ZM37.5 68.75C31.3193 68.75 25.2775 66.9172 20.1384 63.4834C14.9994 60.0496 10.994 55.169 8.62878 49.4589C6.26354 43.7487 5.64469 37.4653 6.85048 31.4034C8.05626 25.3415 11.0325 19.7733 15.4029 15.4029C19.7733 11.0325 25.3415 8.05625 31.4034 6.85046C37.4653 5.64467 43.7487 6.26353 49.4589 8.62876C55.1691 10.994 60.0496 14.9994 63.4834 20.1384C66.9172 25.2775 68.75 31.3193 68.75 37.5C68.7407 45.7852 65.4453 53.7283 59.5868 59.5868C53.7283 65.4453 45.7852 68.7407 37.5 68.75Z" fill="var(--fill-0, white)" fill-opacity="0.5"/>
<path id="Vector_3" d="M49.9194 33.3984L35.8032 23.545C35.0535 23.0222 34.1749 22.7148 33.2627 22.6563C32.3506 22.5978 31.4398 22.7904 30.6295 23.2132C29.8191 23.636 29.1401 24.2728 28.6663 25.0544C28.1925 25.836 27.9419 26.7325 27.9419 27.6466V47.3536C27.9412 48.2679 28.1914 49.1649 28.665 49.9469C29.1387 50.7289 29.8178 51.3661 30.6284 51.789C31.439 52.2119 32.3501 52.4044 33.2625 52.3455C34.1749 52.2866 35.0537 51.9786 35.8032 51.455L49.9194 41.6015V41.599C50.5797 41.1382 51.1189 40.5248 51.4913 39.8109C51.8636 39.097 52.0581 38.3038 52.0581 37.4986C52.0581 36.6935 51.8636 35.9002 51.4913 35.1864C51.1189 34.4725 50.5797 33.8592 49.9194 33.3984Z" fill="var(--fill-0, white)" fill-opacity="0.5"/>
</g>
</svg>
