<svg preserveAspectRatio="none" width="100%" height="100%" overflow="visible" style="display: block;" viewBox="0 0 17 17" fill="none" xmlns="http://www.w3.org/2000/svg">
<g id="XMLID_20_">
<path id="XMLID_364_" d="M13.4072 0.875C14.2311 0.875043 15.0063 1.19588 15.5889 1.77832C16.1716 2.36093 16.4922 3.13703 16.4922 3.96094C16.4921 4.78477 16.1714 5.56 15.5889 6.14258L6.9541 14.7773C6.89631 14.8351 6.82454 14.8778 6.74609 14.9014L1.5127 16.4717C1.46555 16.4859 1.41745 16.4922 1.37012 16.4922C1.24083 16.4922 1.11473 16.4417 1.02051 16.3477H1.01953C0.890951 16.2189 0.843272 16.0298 0.895508 15.8555L2.46582 10.6221C2.48935 10.5437 2.53191 10.472 2.58984 10.4141L11.2256 1.77832C11.8082 1.19592 12.5835 0.875 13.4072 0.875ZM13.4072 1.86523C12.8475 1.86523 12.3217 2.08283 11.9258 2.47852L3.37793 11.0254L2.1084 15.2588L6.34082 13.9893L14.8887 5.44238C15.2845 5.04648 15.5028 4.52069 15.5029 3.96094C15.5029 3.40103 15.2846 2.87443 14.8887 2.47852C14.4928 2.08272 13.9671 1.86528 13.4072 1.86523Z" fill="var(--fill-0, #9356E2)" stroke="var(--stroke-0, #9356E2)" stroke-width="0.25"/>
</g>
</svg>
