<svg preserveAspectRatio="none" width="100%" height="100%" overflow="visible" style="display: block;" viewBox="0 0 128 64" fill="none" xmlns="http://www.w3.org/2000/svg">
<g id="Color" opacity="0.9">
<path d="M4.60606 56.2759L0 64H128V0L126.182 11.0345H123.758C123.111 12.8736 121.77 16.5517 121.576 16.5517C121.382 16.5517 120.121 18.7586 119.515 19.8621L114.303 23.1724L111.273 27.5862L106.424 23.1724L103.879 19.8621L100.242 27.5862H96.4848L93.3333 19.8621C92.1212 18.7586 89.6485 16.5517 89.4545 16.5517C89.2606 16.5517 87.6768 14.3448 86.9091 13.2414H84.9697L80.3636 16.5517L76.3636 19.8621L74.5455 27.5862L69.0909 30.8966L66.303 34.2069L63.1515 39.7241L60.1212 46.9655H58.7879L55.1515 47.6552L51.6364 39.7241L48.6061 34.2069H46.7879L43.6364 30.8966L39.1515 34.2069H34.9091L30.6667 39.7241L26.4242 46.3448L23.2727 52.9655L19.8788 56.2759L15.2727 52.9655L11.6364 56.2759L8 59.5862L4.60606 56.2759Z" fill="var(--fill-0, #7BE385)"/>
<path d="M4.60606 56.2759L0 64H128V0L126.182 11.0345H123.758C123.111 12.8736 121.77 16.5517 121.576 16.5517C121.382 16.5517 120.121 18.7586 119.515 19.8621L114.303 23.1724L111.273 27.5862L106.424 23.1724L103.879 19.8621L100.242 27.5862H96.4848L93.3333 19.8621C92.1212 18.7586 89.6485 16.5517 89.4545 16.5517C89.2606 16.5517 87.6768 14.3448 86.9091 13.2414H84.9697L80.3636 16.5517L76.3636 19.8621L74.5455 27.5862L69.0909 30.8966L66.303 34.2069L63.1515 39.7241L60.1212 46.9655H58.7879L55.1515 47.6552L51.6364 39.7241L48.6061 34.2069H46.7879L43.6364 30.8966L39.1515 34.2069H34.9091L30.6667 39.7241L26.4242 46.3448L23.2727 52.9655L19.8788 56.2759L15.2727 52.9655L11.6364 56.2759L8 59.5862L4.60606 56.2759Z" fill="url(#paint0_radial_8769_19177)"/>
</g>
<defs>
<radialGradient id="paint0_radial_8769_19177" cx="0" cy="0" r="1" gradientUnits="userSpaceOnUse" gradientTransform="translate(52.5 9) rotate(64.7327) scale(69.1122 138.224)">
<stop offset="0.453235" stop-color="white" stop-opacity="0"/>
<stop offset="1" stop-color="white" stop-opacity="0.4"/>
</radialGradient>
</defs>
</svg>
