<svg preserveAspectRatio="none" width="100%" height="100%" overflow="visible" style="display: block;" viewBox="0 0 17 18" fill="none" xmlns="http://www.w3.org/2000/svg">
<g id="Icon Group">
<path id="Vector" d="M7.00048 10V6C7.00048 5.45 6.55048 5 6.00048 5H2.00048V3H6.00048C6.55048 3 7.00048 2.55 7.00048 2C7.00048 1.45 6.55048 1 6.00048 1H4.50048C4.50048 0.45 4.05048 -4.76837e-07 3.50048 -4.76837e-07C2.95048 -4.76837e-07 2.50048 0.45 2.50048 1H1.00048C0.450483 1 0.000483036 1.45 0.000483036 2V6C0.000483036 6.55 0.450483 7 1.00048 7H5.00048V9H1.00048C0.450483 9 0.000483036 9.45 0.000483036 10C0.000483036 10.55 0.450483 11 1.00048 11H2.50048C2.50048 11.55 2.95048 12 3.50048 12C4.05048 12 4.50048 11.55 4.50048 11H6.00048C6.55048 11 7.00048 10.55 7.00048 10Z" fill="var(--fill-0, #111215)"/>
<path id="Vector_2" d="M14.8804 10.2202L9.93041 15.1702L7.81041 13.0502C7.42041 12.6602 6.7904 12.6602 6.4004 13.0502C6.0104 13.4402 6.0104 14.0702 6.4004 14.4602L9.2304 17.2902C9.6204 17.6802 10.2504 17.6802 10.6404 17.2902L16.3004 11.6302C16.6904 11.2402 16.6904 10.6102 16.3004 10.2202C15.9004 9.83023 15.2704 9.83023 14.8804 10.2202Z" fill="var(--fill-0, #111215)"/>
</g>
</svg>
