<svg preserveAspectRatio="none" width="100%" height="100%" overflow="visible" style="display: block;" viewBox="0 0 84 117" fill="none" xmlns="http://www.w3.org/2000/svg">
<g id="play-circle">
<path id="Vector" d="M41.8945 47C22.5745 47 6.89453 62.68 6.89453 82C6.89453 101.32 22.5745 117 41.8945 117C61.2145 117 76.8945 101.32 76.8945 82C76.8945 62.68 61.2495 47 41.8945 47ZM52.3945 89.805L42.2445 95.65C40.9845 96.385 39.5845 96.735 38.2195 96.735C36.8195 96.735 35.4545 96.385 34.1945 95.65C31.6745 94.18 30.1695 91.59 30.1695 88.65V76.925C30.1695 74.02 31.6745 71.395 34.1945 69.925C36.7145 68.455 39.7245 68.455 42.2795 69.925L52.4295 75.77C54.9495 77.24 56.4545 79.83 56.4545 82.77C56.4545 85.71 54.9495 88.335 52.3945 89.805Z" fill="var(--fill-0, white)"/>
<g id="Vector_2" opacity="0">
</g>
</g>
</svg>
