<svg preserveAspectRatio="none" width="100%" height="100%" overflow="visible" style="display: block;" viewBox="0 0 24 37" fill="none" xmlns="http://www.w3.org/2000/svg">
<g id="Receipt">
<path id="Vector" d="M13.2773 16.3581H9.01805C8.86423 16.3581 8.71671 16.2842 8.60794 16.1527C8.49917 16.0211 8.43806 15.8427 8.43806 15.6567C8.43806 15.4707 8.49917 15.2923 8.60794 15.1608C8.71671 15.0292 8.86423 14.9553 9.01805 14.9553H13.2773C13.5782 14.9553 13.8668 14.8108 14.0795 14.5535C14.2923 14.2962 14.4118 13.9473 14.4118 13.5834C14.4118 13.2196 14.2923 12.8706 14.0795 12.6133C13.8668 12.356 13.5782 12.2115 13.2773 12.2115H10.7325C10.4309 12.2121 10.1321 12.1408 9.85322 12.0017C9.57437 11.8625 9.32095 11.6583 9.10746 11.4005C8.89397 11.1428 8.72459 10.8367 8.60903 10.4998C8.49347 10.1628 8.43398 9.80159 8.43398 9.4368C8.43398 9.07201 8.49347 8.71079 8.60903 8.37383C8.72459 8.03687 8.89397 7.73077 9.10746 7.47305C9.32095 7.21534 9.57437 7.01106 9.85322 6.87191C10.1321 6.73276 10.4309 6.66147 10.7325 6.66211H14.9921C15.1459 6.66211 15.2934 6.73601 15.4022 6.86754C15.5109 6.99908 15.572 7.17747 15.572 7.36349C15.572 7.54951 15.5109 7.7279 15.4022 7.85944C15.2934 7.99097 15.1459 8.06487 14.9921 8.06487H10.7325C10.5833 8.06441 10.4355 8.09956 10.2975 8.1683C10.1595 8.23704 10.0341 8.33803 9.92846 8.46547C9.82281 8.59291 9.73899 8.7443 9.6818 8.91098C9.6246 9.07766 9.59517 9.25634 9.59517 9.4368C9.59517 9.61726 9.6246 9.79594 9.6818 9.96262C9.73899 10.1293 9.82281 10.2807 9.92846 10.4081C10.0341 10.5356 10.1595 10.6366 10.2975 10.7053C10.4355 10.774 10.5833 10.8092 10.7325 10.8087H13.2773C13.8858 10.8087 14.4694 11.1011 14.8997 11.6214C15.33 12.1418 15.5718 12.8475 15.5718 13.5834C15.5718 14.3193 15.33 15.0251 14.8997 15.5454C14.4694 16.0658 13.8858 16.3581 13.2773 16.3581Z" fill="var(--fill-0, white)"/>
<path id="Vector_2" d="M11.9971 18.1698C11.921 18.1699 11.8455 18.1517 11.7752 18.1165C11.7048 18.0813 11.6408 18.0296 11.587 17.9645C11.5331 17.8993 11.4904 17.822 11.4612 17.7369C11.4321 17.6518 11.4171 17.5606 11.4171 17.4685V5.55602C11.4171 5.37 11.4782 5.1916 11.587 5.06007C11.6958 4.92853 11.8433 4.85464 11.9971 4.85464C12.1509 4.85464 12.2985 4.92853 12.4072 5.06007C12.516 5.1916 12.5771 5.37 12.5771 5.55602V17.4685C12.5771 17.5606 12.5621 17.6518 12.533 17.7369C12.5039 17.822 12.4611 17.8993 12.4073 17.9645C12.3534 18.0296 12.2895 18.0813 12.2191 18.1165C12.1487 18.1517 12.0733 18.1699 11.9971 18.1698Z" fill="var(--fill-0, white)"/>
<path id="Vector_3" d="M23.42 36.4716C23.3439 36.4716 23.2684 36.4534 23.1981 36.4182C23.1277 36.3829 23.0638 36.3313 23.0099 36.2661L21.136 34.0003L19.2621 36.2661C19.2083 36.3313 19.1444 36.3829 19.074 36.4182C19.0036 36.4534 18.9282 36.4716 18.8521 36.4716C18.7759 36.4716 18.7005 36.4534 18.6301 36.4182C18.5598 36.3829 18.4958 36.3313 18.442 36.2661L16.5681 34.0003L14.6942 36.2661C14.6404 36.3313 14.5764 36.3829 14.5061 36.4182C14.4357 36.4535 14.3603 36.4716 14.2841 36.4716C14.208 36.4716 14.1325 36.4535 14.0622 36.4182C13.9918 36.3829 13.9279 36.3313 13.8741 36.2661L12.0001 34.0003L10.1259 36.2661C10.0721 36.3313 10.0082 36.3829 9.93779 36.4182C9.86743 36.4534 9.79202 36.4716 9.71585 36.4716C9.63969 36.4716 9.56428 36.4534 9.49392 36.4182C9.42356 36.3829 9.35963 36.3313 9.30579 36.2661L7.43189 34.0003L5.55799 36.2661C5.50415 36.3313 5.44022 36.3829 5.36986 36.4182C5.2995 36.4535 5.22408 36.4716 5.14792 36.4716C5.07176 36.4716 4.99634 36.4535 4.92598 36.4182C4.85562 36.3829 4.79169 36.3313 4.73785 36.2661L2.86396 34.0003L0.990056 36.2661C0.908954 36.3642 0.805617 36.431 0.693113 36.4581C0.58061 36.4852 0.463995 36.4713 0.358017 36.4182C0.252039 36.3651 0.161458 36.2752 0.0977313 36.1599C0.0340042 36.0446 -6.88518e-06 35.9089 1.9995e-08 35.7702V0.701377C-1.99826e-05 0.609264 0.0149679 0.518049 0.0441078 0.432943C0.0732477 0.347837 0.115968 0.270508 0.169829 0.205375C0.22369 0.140241 0.287635 0.0885789 0.358011 0.0533399C0.428387 0.018101 0.503815 -2.4165e-05 0.579985 2.41795e-08H23.42C23.4962 -2.4165e-05 23.5716 0.018101 23.642 0.0533399C23.7124 0.0885789 23.7763 0.140241 23.8302 0.205375C23.884 0.270508 23.9268 0.347837 23.9559 0.432943C23.985 0.518049 24 0.609264 24 0.701377V35.7702C24 35.9562 23.9389 36.1346 23.8301 36.2662C23.7214 36.3977 23.5738 36.4716 23.42 36.4716ZM7.43191 32.3072C7.50808 32.3071 7.58352 32.3252 7.6539 32.3604C7.72427 32.3957 7.78819 32.4474 7.84198 32.5126L9.71588 34.7784L11.5901 32.5126C11.6439 32.4475 11.7078 32.3958 11.7782 32.3606C11.8486 32.3253 11.924 32.3072 12.0001 32.3072C12.0763 32.3072 12.1517 32.3253 12.2221 32.3606C12.2924 32.3958 12.3564 32.4475 12.4102 32.5126L14.2841 34.7784L16.158 32.5126C16.2119 32.4475 16.2758 32.3958 16.3461 32.3606C16.4165 32.3253 16.4919 32.3072 16.5681 32.3072C16.6442 32.3072 16.7197 32.3253 16.79 32.3606C16.8604 32.3958 16.9243 32.4475 16.9782 32.5126L18.8521 34.7784L20.726 32.5126C20.7798 32.4475 20.8437 32.3958 20.9141 32.3606C20.9845 32.3253 21.0599 32.3072 21.136 32.3072C21.2122 32.3072 21.2876 32.3253 21.358 32.3606C21.4283 32.3958 21.4923 32.4475 21.5461 32.5126L22.84 34.0771V1.40275H1.15997V34.0771L2.4539 32.5126C2.50774 32.4475 2.57166 32.3958 2.64202 32.3606C2.71238 32.3253 2.7878 32.3072 2.86396 32.3072C2.94012 32.3072 3.01554 32.3253 3.0859 32.3606C3.15626 32.3958 3.22019 32.4475 3.27403 32.5126L5.14793 34.7784L7.02184 32.5126C7.07563 32.4474 7.13954 32.3957 7.20991 32.3604C7.28028 32.3252 7.35573 32.3071 7.43191 32.3072Z" fill="var(--fill-0, white)"/>
<path id="Vector_4" d="M18.7797 23.5833H5.21944C5.06562 23.5833 4.91809 23.5094 4.80933 23.3778C4.70056 23.2463 4.63945 23.0679 4.63945 22.8819C4.63945 22.6959 4.70056 22.5175 4.80933 22.3859C4.91809 22.2544 5.06562 22.1805 5.21944 22.1805H18.7797C18.9335 22.1805 19.081 22.2544 19.1898 22.3859C19.2986 22.5175 19.3597 22.6959 19.3597 22.8819C19.3597 23.0679 19.2986 23.2463 19.1898 23.3778C19.081 23.5094 18.9335 23.5833 18.7797 23.5833Z" fill="var(--fill-0, white)"/>
<path id="Vector_5" d="M18.7797 28.1715H5.21944C5.06562 28.1715 4.91809 28.0976 4.80933 27.966C4.70056 27.8345 4.63945 27.6561 4.63945 27.4701C4.63945 27.2841 4.70056 27.1057 4.80933 26.9741C4.91809 26.8426 5.06562 26.7687 5.21944 26.7687H18.7797C18.9335 26.7687 19.081 26.8426 19.1898 26.9741C19.2986 27.1057 19.3597 27.2841 19.3597 27.4701C19.3597 27.6561 19.2986 27.8345 19.1898 27.966C19.081 28.0976 18.9335 28.1715 18.7797 28.1715Z" fill="var(--fill-0, white)"/>
</g>
</svg>
