<svg preserveAspectRatio="none" width="100%" height="100%" overflow="visible" style="display: block;" viewBox="0 0 280 173" fill="none" xmlns="http://www.w3.org/2000/svg">
<path id="Union" d="M237.038 0C260.51 0.000181446 279.538 19.028 279.538 42.5V173H274.538V42.5C274.538 21.7894 257.749 5.00018 237.038 5H147.392C133.971 5.00018 123.092 15.8795 123.092 29.2998V33.5C123.092 51.3036 108.659 65.7361 90.8555 65.7363H42.5C21.7895 65.7364 5.00013 82.5258 5 103.236V120H0V103.236C0.000134924 79.7644 19.0281 60.7364 42.5 60.7363H90.8555C105.898 60.7361 118.092 48.5422 118.092 33.5V29.2998C118.092 13.1181 131.21 0.000182199 147.392 0H237.038Z" fill="var(--fill-0, #3F1266)"/>
</svg>
