<svg preserveAspectRatio="none" width="100%" height="100%" overflow="visible" style="display: block;" viewBox="0 0 16 21" fill="none" xmlns="http://www.w3.org/2000/svg">
<path id="Icon" d="M6.92 10.75L8 9.93L9.07 10.74C9.46 11.03 9.99 10.66 9.85 10.19L9.43 8.83L10.63 7.88C11 7.6 10.79 7 10.31 7H8.91L8.48 5.66C8.33 5.2 7.68 5.2 7.53 5.66L7.09 7H5.68C5.21 7 5 7.6 5.37 7.89L6.56 8.84L6.14 10.2C6 10.67 6.53 11.04 6.92 10.75ZM2 19.61C2 20.29 2.67 20.77 3.32 20.56L8 19L12.68 20.56C13.33 20.78 14 20.3 14 19.61V13.28C15.24 11.87 16 10.03 16 8C16 3.58 12.42 0 8 0C3.58 0 0 3.58 0 8C0 10.03 0.76 11.87 2 13.28V19.61ZM8 2C11.31 2 14 4.69 14 8C14 11.31 11.31 14 8 14C4.69 14 2 11.31 2 8C2 4.69 4.69 2 8 2Z" fill="var(--fill-0, white)"/>
</svg>
