<svg preserveAspectRatio="none" width="100%" height="100%" overflow="visible" style="display: block;" viewBox="0 0 23 23" fill="none" xmlns="http://www.w3.org/2000/svg">
<g id="chart">
<path id="Vector" d="M11.1115 1.6203C16.3464 1.62051 20.6017 5.87659 20.6017 11.1115C20.6015 16.3462 16.3462 20.6015 11.1115 20.6017C5.87659 20.6017 1.62051 16.3464 1.6203 11.1115C1.6203 9.02682 2.28232 7.05004 3.53631 5.38983L3.53534 5.38885C3.60936 5.29226 3.75381 5.27066 3.85956 5.35077C3.96572 5.43142 3.9819 5.57697 3.90838 5.67401C2.71782 7.24523 2.08319 9.13103 2.08319 11.1115C2.0834 16.0892 6.13373 20.1389 11.1115 20.1389C16.0891 20.1386 20.1386 16.0891 20.1389 11.1115C20.1389 6.13373 16.0892 2.0834 11.1115 2.08319C10.9876 2.08319 10.8801 1.97569 10.8801 1.85174C10.8801 1.72785 10.9876 1.6203 11.1115 1.6203Z" fill="var(--fill-0, #292D32)" stroke="var(--stroke-0, #041117)" stroke-width="0.925926"/>
<path id="Vector_2" d="M11.111 4.39808C14.8089 4.39808 17.8238 7.41302 17.8239 11.111C17.8239 14.809 14.809 17.8239 11.111 17.8239C7.41302 17.8238 4.39808 14.8089 4.39808 11.111C4.39816 10.9871 4.50567 10.8796 4.62952 10.8795C4.75342 10.8795 4.86088 10.9871 4.86097 11.111C4.86097 14.5611 7.6609 17.3609 11.111 17.361C14.5611 17.361 17.361 14.5611 17.361 11.111C17.3609 7.6609 14.5611 4.86097 11.111 4.86097C10.9871 4.86088 10.8795 4.75342 10.8795 4.62952C10.8796 4.50567 10.9871 4.39816 11.111 4.39808Z" fill="var(--fill-0, #292D32)" stroke="var(--stroke-0, #041117)" stroke-width="0.925926"/>
<path id="Vector_3" d="M11.111 7.17585C13.2812 7.17585 15.0465 8.94116 15.0465 11.1114C15.0464 13.2815 13.2811 15.046 11.111 15.046C10.9871 15.0459 10.8796 14.9384 10.8796 14.8145C10.8797 14.6907 10.9872 14.5831 11.111 14.5831C13.024 14.5831 14.5835 13.0244 14.5837 11.1114C14.5837 9.19831 13.0241 7.63874 11.111 7.63874C10.9871 7.63868 10.8796 7.53121 10.8796 7.4073C10.8796 7.28344 10.9871 7.17592 11.111 7.17585Z" fill="var(--fill-0, #292D32)" stroke="var(--stroke-0, #041117)" stroke-width="0.925926"/>
<g id="Vector_4" opacity="0">
</g>
</g>
</svg>
