<svg preserveAspectRatio="none" width="100%" height="100%" overflow="visible" style="display: block;" viewBox="0 0 130 66" fill="none" xmlns="http://www.w3.org/2000/svg">
<path id="Line" d="M1 65L5.60606 57.2759L9 60.5862L12.6364 57.2759L16.2727 53.9655L20.8788 57.2759L24.2727 53.9655L27.4242 47.3448L31.6667 40.7241L35.9091 35.2069H40.1515L44.6364 31.8966L47.7879 35.2069H49.6061L52.6364 40.7241L56.1515 48.6552L59.7879 47.9655H61.1212L64.1515 40.7241L67.303 35.2069L70.0909 31.8966L75.5455 28.5862L77.3636 20.8621L81.3636 17.5517L85.9697 14.2414H87.9091C88.6768 15.3448 90.2606 17.5517 90.4545 17.5517C90.6485 17.5517 93.1212 19.7586 94.3333 20.8621L97.4848 28.5862H101.242L104.879 20.8621L107.424 24.1724L112.273 28.5862L115.303 24.1724L120.515 20.8621C121.121 19.7586 122.382 17.5517 122.576 17.5517C122.77 17.5517 124.111 13.8736 124.758 12.0345H127.182L129 1" stroke="var(--stroke-0, #C2F2C7)" stroke-width="2" stroke-linecap="round" stroke-linejoin="round"/>
</svg>
