<svg preserveAspectRatio="none" width="100%" height="100%" overflow="visible" style="display: block;" viewBox="0 0 2 15" fill="none" xmlns="http://www.w3.org/2000/svg">
<path id="Vector" d="M0.595727 14.6034C0.517489 14.6034 0.440014 14.5835 0.367728 14.5449C0.295443 14.5062 0.229763 14.4496 0.174441 14.3781C0.119118 14.3067 0.0752383 14.2219 0.0453072 14.1285C0.015376 14.0352 -1.95481e-05 13.9352 1.86274e-08 13.8341V0.769231C1.86274e-08 0.565218 0.0627634 0.369561 0.174484 0.225303C0.286204 0.0810439 0.43773 0 0.595727 0C0.753723 0 0.905248 0.0810439 1.01697 0.225303C1.12869 0.369561 1.19145 0.565218 1.19145 0.769231V13.8341C1.19147 13.9352 1.17608 14.0352 1.14615 14.1285C1.11622 14.2219 1.07234 14.3067 1.01701 14.3781C0.961691 14.4496 0.896011 14.5062 0.823725 14.5449C0.751439 14.5835 0.673964 14.6034 0.595727 14.6034Z" fill="var(--fill-0, black)"/>
</svg>
