<svg preserveAspectRatio="none" width="100%" height="100%" overflow="visible" style="display: block;" viewBox="0 0 34 27" fill="none" xmlns="http://www.w3.org/2000/svg">
<g id="Fill">
<path id="Vector" fill-rule="evenodd" clip-rule="evenodd" d="M26.6667 11.6667V15H33.3333V11.6667H26.6667ZM23.3333 22.6833C24.9333 23.8667 27.0167 25.4333 28.6667 26.6667C29.3333 25.7833 30 24.8833 30.6667 24C29.0167 22.7667 26.9333 21.2 25.3333 20C24.6667 20.9 24 21.8 23.3333 22.6833ZM30.6667 2.66667C30 1.78333 29.3333 0.883333 28.6667 0C27.0167 1.23333 24.9333 2.8 23.3333 4C24 4.88333 24.6667 5.78333 25.3333 6.66667C26.9333 5.46667 29.0167 3.91667 30.6667 2.66667ZM3.33333 8.33333C1.5 8.33333 0 9.83333 0 11.6667V15C0 16.8333 1.5 18.3333 3.33333 18.3333H5V25H8.33333V18.3333H10L18.3333 23.3333V3.33333L10 8.33333H3.33333ZM22.5 13.3333C22.5 11.1167 21.5333 9.11667 20 7.75V18.9C21.5333 17.55 22.5 15.55 22.5 13.3333Z" fill="var(--fill-0, black)"/>
</g>
</svg>
