<svg preserveAspectRatio="none" width="100%" height="100%" overflow="visible" style="display: block;" viewBox="0 0 45 19" fill="none" xmlns="http://www.w3.org/2000/svg">
<g id="email">
<path id="Vector" d="M40.6828 13.8884L34.3549 9.89003L40.6379 5.24322C40.9466 5.01537 41.0116 4.58058 40.7834 4.27225C40.5556 3.96392 40.1208 3.89886 39.8124 4.1271L30.9028 10.7161L30.8991 10.7131L30.8954 10.7161L21.9857 4.1271C21.6778 3.89886 21.243 3.96392 21.0147 4.27225C20.7869 4.58058 20.852 5.01537 21.1603 5.24322L27.4433 9.89003L21.1158 13.8884C20.7915 14.0934 20.6948 14.5222 20.8999 14.8465C21.032 15.0554 21.2568 15.1702 21.4874 15.1702C21.6146 15.1702 21.7425 15.1354 21.8579 15.0624L28.6415 10.7759L30.4866 12.1409C30.609 12.2314 30.7541 12.2771 30.8993 12.2771C31.0445 12.2771 31.1897 12.2314 31.3123 12.1409L33.157 10.7759L39.9407 15.0624C40.0559 15.1354 40.1843 15.1702 40.3112 15.1702C40.5418 15.1702 40.7669 15.0554 40.8987 14.8465C41.1033 14.5222 41.0068 14.0934 40.6828 13.8884Z" fill="var(--fill-0, #9356E2)"/>
<path id="Vector_2" d="M40.0425 0H21.7561C19.0712 0 16.8868 2.38008 16.8868 5.3054V13.1371C16.8868 16.0627 19.0712 18.4429 21.7561 18.4429H40.0426C42.728 18.4429 44.9123 16.0628 44.9123 13.1371V5.3054C44.9123 2.38008 42.7279 0 40.0425 0ZM43.3183 13.1371C43.3183 15.1079 41.852 16.706 40.0425 16.706H21.7561C19.947 16.706 18.4808 15.1079 18.4808 13.1371V5.3054C18.4808 3.33466 19.9471 1.73701 21.7561 1.73701H40.0426C41.8521 1.73701 43.3184 3.33466 43.3184 5.3054V13.1371H43.3183Z" fill="var(--fill-0, #9356E2)"/>
<path id="Vector_3" d="M13.3791 4.24799H0.78687C0.352472 4.24799 0 4.60036 0 5.03486C0 5.46964 0.352472 5.82212 0.78687 5.82212H13.3791C13.8131 5.82212 14.1656 5.46964 14.1656 5.03486C14.1657 4.60046 13.8131 4.24799 13.3791 4.24799Z" fill="var(--fill-0, #9356E2)"/>
<path id="Vector_4" d="M13.5489 8.23878H3.67279C3.33227 8.23878 3.05575 8.59087 3.05575 9.02565C3.05575 9.46005 3.33227 9.81291 3.67279 9.81291H13.5489C13.8899 9.81291 14.166 9.46005 14.166 9.02565C14.166 8.59087 13.8899 8.23878 13.5489 8.23878Z" fill="var(--fill-0, #9356E2)"/>
<path id="Vector_5" d="M13.6821 12.2291H5.93612C5.66856 12.2291 5.45227 12.5816 5.45227 13.016C5.45227 13.4509 5.66856 13.8033 5.93612 13.8033H13.6821C13.9492 13.8033 14.166 13.4509 14.166 13.016C14.166 12.5816 13.9493 12.2291 13.6821 12.2291Z" fill="var(--fill-0, #9356E2)"/>
</g>
</svg>
