<svg preserveAspectRatio="none" width="100%" height="100%" overflow="visible" style="display: block;" viewBox="0 0 20 20" fill="none" xmlns="http://www.w3.org/2000/svg">
<g id="material-symbols:keyboard-arrow-down-rounded">
<path id="Vector" d="M10 13C9.88042 13 9.76831 12.9811 9.66368 12.9432C9.55904 12.9053 9.46188 12.8403 9.3722 12.7481L5.24664 8.53435C5.08221 8.36641 5 8.15267 5 7.89313C5 7.63359 5.08221 7.41985 5.24664 7.25191C5.41106 7.08397 5.62033 7 5.87444 7C6.12855 7 6.33782 7.08397 6.50224 7.25191L10 10.8244L13.4978 7.25191C13.6622 7.08397 13.8714 7 14.1256 7C14.3797 7 14.5889 7.08397 14.7534 7.25191C14.9178 7.41985 15 7.63359 15 7.89313C15 8.15267 14.9178 8.36641 14.7534 8.53435L10.6278 12.7481C10.5381 12.8397 10.441 12.9047 10.3363 12.9432C10.2317 12.9817 10.1196 13.0006 10 13Z" fill="var(--fill-0, #333740)"/>
</g>
</svg>
