<svg preserveAspectRatio="none" width="100%" height="100%" overflow="visible" style="display: block;" viewBox="0 0 36 32" fill="none" xmlns="http://www.w3.org/2000/svg">
<g id="Vector">
<path d="M33.7819 16.3931C33.7819 6.63192 26.2076 0 17.7799 0C9.44115 0 1.77799 6.48968 1.77799 16.4998C0.711198 17.1043 0 18.2422 0 19.5579V23.1139C0 25.0697 1.6002 26.6699 3.55599 26.6699C4.53389 26.6699 5.33398 25.8698 5.33398 24.8919V16.3398C5.33398 9.53005 10.5791 3.57377 17.3888 3.37819C24.4296 3.16483 30.2259 8.81885 30.2259 15.8242V28.4479H17.7799C16.8021 28.4479 16.002 29.248 16.002 30.2259C16.002 31.2038 16.8021 32.0039 17.7799 32.0039H30.2259C32.1817 32.0039 33.7819 30.4037 33.7819 28.4479V26.2788C34.8309 25.7276 35.5599 24.643 35.5599 23.3628V19.2735C35.5599 18.0289 34.8309 16.9443 33.7819 16.3931Z" fill="var(--fill-0, black)"/>
<path d="M12.446 19.5579C13.4279 19.5579 14.224 18.7619 14.224 17.7799C14.224 16.798 13.4279 16.002 12.446 16.002C11.464 16.002 10.668 16.798 10.668 17.7799C10.668 18.7619 11.464 19.5579 12.446 19.5579Z" fill="var(--fill-0, black)"/>
<path d="M23.1139 19.5579C24.0959 19.5579 24.8919 18.7619 24.8919 17.7799C24.8919 16.798 24.0959 16.002 23.1139 16.002C22.132 16.002 21.3359 16.798 21.3359 17.7799C21.3359 18.7619 22.132 19.5579 23.1139 19.5579Z" fill="var(--fill-0, black)"/>
<path d="M28.4479 14.2773C27.5945 9.21001 23.1851 5.33398 17.8688 5.33398C12.4815 5.33398 6.68526 9.79675 7.14754 16.8021C11.5392 15.0063 14.8463 11.0947 15.7886 6.32966C18.1178 11.0058 22.9006 14.224 28.4479 14.2773Z" fill="var(--fill-0, black)"/>
</g>
</svg>
