<svg preserveAspectRatio="none" width="100%" height="100%" overflow="visible" style="display: block;" viewBox="0 0 22 20" fill="none" xmlns="http://www.w3.org/2000/svg">
<g id="Vector">
<path d="M20.2691 9.83587C20.2691 3.97915 15.7246 0 10.668 0C5.66469 0 1.0668 3.89381 1.0668 9.89987C0.426719 10.2626 0 10.9453 0 11.7348V13.8684C0 15.0418 0.960117 16.002 2.13359 16.002C2.72033 16.002 3.20039 15.5219 3.20039 14.9352V9.80386C3.20039 5.71803 6.34744 2.14426 10.4333 2.02691C14.6578 1.8989 18.1355 5.29131 18.1355 9.49449V17.0688H10.668C10.0812 17.0688 9.60117 17.5488 9.60117 18.1355C9.60117 18.7223 10.0812 19.2023 10.668 19.2023H18.1355C19.309 19.2023 20.2691 18.2422 20.2691 17.0688V15.7673C20.8985 15.4366 21.3359 14.7858 21.3359 14.0177V11.5641C21.3359 10.8173 20.8985 10.1666 20.2691 9.83587Z" fill="var(--fill-0, #111215)"/>
<path d="M7.46758 11.7348C8.05675 11.7348 8.53437 11.2571 8.53437 10.668C8.53437 10.0788 8.05675 9.60117 7.46758 9.60117C6.8784 9.60117 6.40078 10.0788 6.40078 10.668C6.40078 11.2571 6.8784 11.7348 7.46758 11.7348Z" fill="var(--fill-0, #111215)"/>
<path d="M13.8684 11.7348C14.4575 11.7348 14.9352 11.2571 14.9352 10.668C14.9352 10.0788 14.4575 9.60117 13.8684 9.60117C13.2792 9.60117 12.8016 10.0788 12.8016 10.668C12.8016 11.2571 13.2792 11.7348 13.8684 11.7348Z" fill="var(--fill-0, #111215)"/>
<path d="M17.0687 8.56638C16.5567 5.52601 13.911 3.20039 10.7213 3.20039C7.48891 3.20039 4.01116 5.87805 4.28852 10.0812C6.92351 9.00377 8.90775 6.65681 9.47316 3.7978C10.8707 6.60347 13.7403 8.53437 17.0687 8.56638Z" fill="var(--fill-0, #111215)"/>
</g>
</svg>
