<svg preserveAspectRatio="none" width="100%" height="100%" overflow="visible" style="display: block;" viewBox="0 0 37 22" fill="none" xmlns="http://www.w3.org/2000/svg">
<g id="XMLID_21_">
<path id="XMLID_367_" d="M16.9502 0.875C17.2235 0.87512 17.4453 1.09681 17.4453 1.37012C17.4453 1.6434 17.2235 1.86511 16.9502 1.86523H4.07129C2.85499 1.86537 1.86537 2.85499 1.86523 4.07129V20.1182H34.9209V4.07129C34.9208 2.85498 33.9312 1.86536 32.7148 1.86523H24.2773C24.0039 1.86523 23.7823 1.64346 23.7822 1.37012C23.7822 1.09675 24.0039 0.875 24.2773 0.875H32.7148C34.4773 0.875123 35.911 2.3088 35.9111 4.07129V20.6133C35.9111 20.8867 35.6895 21.1084 35.416 21.1084H1.37012C1.09675 21.1084 0.875 20.8868 0.875 20.6133V4.07129C0.875138 2.30881 2.30881 0.875138 4.07129 0.875H16.9502Z" fill="var(--fill-0, #9356E2)" stroke="var(--stroke-0, #9356E2)" stroke-width="0.25"/>
</g>
</svg>
