<svg preserveAspectRatio="none" width="100%" height="100%" overflow="visible" style="display: block;" viewBox="0 0 115 28" fill="none" xmlns="http://www.w3.org/2000/svg">
<g id="Fictional company logo" style="mix-blend-mode:plus-darker">
<g id="Logomark">
<g id="Shape">
<path d="M17.7499 1.16641H7.91623L-0.000195313 9.08287V18.9166L7.91623 26.8331H17.7499L25.6663 18.9166V9.08287L17.7499 1.16641ZM9.27685 19.0403L4.20541 13.9688L9.27685 8.89733C11.1941 6.98006 14.3483 6.98006 16.2656 8.89733L21.337 13.9688L16.2656 19.0403C14.3483 20.9576 11.256 20.9576 9.27685 19.0403Z" fill="var(--fill-0, #D6F6D9)"/>
<path d="M17.7499 1.16641H7.91623L-0.000195313 9.08287V18.9166L7.91623 26.8331H17.7499L25.6663 18.9166V9.08287L17.7499 1.16641ZM9.27685 19.0403L4.20541 13.9688L9.27685 8.89733C11.1941 6.98006 14.3483 6.98006 16.2656 8.89733L21.337 13.9688L16.2656 19.0403C14.3483 20.9576 11.256 20.9576 9.27685 19.0403Z" fill="url(#paint0_radial_8769_19172)"/>
</g>
</g>
<g id="Logotype">
<path d="M36.9477 19.9738C38.5227 19.9738 39.8177 19.1688 40.2202 17.9613V19.8338H42.5477V15.1088C42.5477 14.0413 41.7077 13.1313 40.5702 13.1313H37.2452V15.1088H39.6077C39.9052 15.1088 40.0977 15.3013 40.0977 15.5988C40.0977 16.7363 38.5927 17.8388 37.0702 17.8388C35.0402 17.8388 33.4302 16.2463 33.4302 13.7088C33.4302 11.1713 35.0402 9.70132 37.1227 9.70132C38.6977 9.70132 39.7827 10.5588 39.9752 11.8713H42.5827C42.4252 9.24632 40.2202 7.44382 37.1402 7.44382C33.9027 7.44382 30.9277 9.52632 30.9277 13.7088C30.9277 17.8913 33.8152 19.9738 36.9477 19.9738Z" fill="var(--fill-0, #D6F6D9)"/>
<path d="M36.9477 19.9738C38.5227 19.9738 39.8177 19.1688 40.2202 17.9613V19.8338H42.5477V15.1088C42.5477 14.0413 41.7077 13.1313 40.5702 13.1313H37.2452V15.1088H39.6077C39.9052 15.1088 40.0977 15.3013 40.0977 15.5988C40.0977 16.7363 38.5927 17.8388 37.0702 17.8388C35.0402 17.8388 33.4302 16.2463 33.4302 13.7088C33.4302 11.1713 35.0402 9.70132 37.1227 9.70132C38.6977 9.70132 39.7827 10.5588 39.9752 11.8713H42.5827C42.4252 9.24632 40.2202 7.44382 37.1402 7.44382C33.9027 7.44382 30.9277 9.52632 30.9277 13.7088C30.9277 17.8913 33.8152 19.9738 36.9477 19.9738Z" fill="url(#paint1_radial_8769_19172)" fill-opacity="0.2"/>
<path d="M43.5468 19.8338H45.9793V7.18132H43.5468V19.8338Z" fill="var(--fill-0, #D6F6D9)"/>
<path d="M43.5468 19.8338H45.9793V7.18132H43.5468V19.8338Z" fill="url(#paint2_radial_8769_19172)" fill-opacity="0.2"/>
<path d="M51.2264 19.9738C53.9389 19.9738 55.8813 18.0488 55.8813 15.4238C55.8813 12.7988 53.9389 10.8738 51.2264 10.8738C48.5139 10.8738 46.5714 12.7988 46.5714 15.4238C46.5714 18.0488 48.5139 19.9738 51.2264 19.9738ZM51.2264 17.8738C49.9139 17.8738 49.0214 16.8763 49.0214 15.4238C49.0214 13.9538 49.9139 12.9563 51.2264 12.9563C52.5389 12.9563 53.4314 13.9538 53.4314 15.4238C53.4314 16.8763 52.5389 17.8738 51.2264 17.8738Z" fill="var(--fill-0, #D6F6D9)"/>
<path d="M51.2264 19.9738C53.9389 19.9738 55.8813 18.0488 55.8813 15.4238C55.8813 12.7988 53.9389 10.8738 51.2264 10.8738C48.5139 10.8738 46.5714 12.7988 46.5714 15.4238C46.5714 18.0488 48.5139 19.9738 51.2264 19.9738ZM51.2264 17.8738C49.9139 17.8738 49.0214 16.8763 49.0214 15.4238C49.0214 13.9538 49.9139 12.9563 51.2264 12.9563C52.5389 12.9563 53.4314 13.9538 53.4314 15.4238C53.4314 16.8763 52.5389 17.8738 51.2264 17.8738Z" fill="url(#paint3_radial_8769_19172)" fill-opacity="0.2"/>
<path d="M61.3244 19.9738C63.9318 19.9738 65.4893 18.1713 65.4893 15.4238C65.4893 12.6763 63.9318 10.8738 61.3594 10.8738C60.2569 10.8738 59.3994 11.2938 58.9094 11.9413V7.18132H56.4769V19.8338H58.9094V18.8713C59.3994 19.5538 60.3094 19.9738 61.3244 19.9738ZM60.9394 17.8738C59.6269 17.8738 58.7694 16.8938 58.7694 15.4238C58.7694 13.9363 59.6269 12.9563 60.9394 12.9563C62.2169 12.9563 63.0918 13.9363 63.0918 15.4238C63.0918 16.8938 62.2169 17.8738 60.9394 17.8738Z" fill="var(--fill-0, #D6F6D9)"/>
<path d="M61.3244 19.9738C63.9318 19.9738 65.4893 18.1713 65.4893 15.4238C65.4893 12.6763 63.9318 10.8738 61.3594 10.8738C60.2569 10.8738 59.3994 11.2938 58.9094 11.9413V7.18132H56.4769V19.8338H58.9094V18.8713C59.3994 19.5538 60.3094 19.9738 61.3244 19.9738ZM60.9394 17.8738C59.6269 17.8738 58.7694 16.8938 58.7694 15.4238C58.7694 13.9363 59.6269 12.9563 60.9394 12.9563C62.2169 12.9563 63.0918 13.9363 63.0918 15.4238C63.0918 16.8938 62.2169 17.8738 60.9394 17.8738Z" fill="url(#paint4_radial_8769_19172)" fill-opacity="0.2"/>
<path d="M69.5612 10.8738C67.1462 10.8738 65.7112 12.2913 65.6062 14.0588H67.7762C67.8112 13.3238 68.3537 12.6588 69.4212 12.6588C70.4187 12.6588 70.9962 13.1663 70.9962 13.9013C70.9962 14.2688 70.7687 14.5488 70.3312 14.5488H68.8437C66.9187 14.5488 65.6237 15.5988 65.6237 17.3313C65.6237 18.8363 66.7962 19.9738 68.5112 19.9738C69.7187 19.9738 70.6987 19.4313 70.9962 18.6088V19.8338H73.4112V14.1638C73.4112 12.1688 71.7837 10.8738 69.5612 10.8738ZM69.1237 18.2063C68.4412 18.2063 67.9512 17.8038 67.9512 17.2263C67.9512 16.5438 68.4762 16.0888 69.2112 16.0888H70.9962V16.2113C70.9962 17.3313 70.3137 18.2063 69.1237 18.2063Z" fill="var(--fill-0, #D6F6D9)"/>
<path d="M69.5612 10.8738C67.1462 10.8738 65.7112 12.2913 65.6062 14.0588H67.7762C67.8112 13.3238 68.3537 12.6588 69.4212 12.6588C70.4187 12.6588 70.9962 13.1663 70.9962 13.9013C70.9962 14.2688 70.7687 14.5488 70.3312 14.5488H68.8437C66.9187 14.5488 65.6237 15.5988 65.6237 17.3313C65.6237 18.8363 66.7962 19.9738 68.5112 19.9738C69.7187 19.9738 70.6987 19.4313 70.9962 18.6088V19.8338H73.4112V14.1638C73.4112 12.1688 71.7837 10.8738 69.5612 10.8738ZM69.1237 18.2063C68.4412 18.2063 67.9512 17.8038 67.9512 17.2263C67.9512 16.5438 68.4762 16.0888 69.2112 16.0888H70.9962V16.2113C70.9962 17.3313 70.3137 18.2063 69.1237 18.2063Z" fill="url(#paint5_radial_8769_19172)" fill-opacity="0.2"/>
<path d="M74.3459 19.8338H76.7784V7.18132H74.3459V19.8338Z" fill="var(--fill-0, #D6F6D9)"/>
<path d="M74.3459 19.8338H76.7784V7.18132H74.3459V19.8338Z" fill="url(#paint6_radial_8769_19172)" fill-opacity="0.2"/>
<path d="M78.0705 19.8338H83.0755C85.6655 19.8338 87.4505 18.5038 87.4505 16.1763C87.4505 14.5663 86.5055 13.5863 85.3855 13.1488C86.103 12.7638 86.8205 11.8888 86.8205 10.7338C86.8205 8.68632 85.158 7.58382 82.9355 7.58382H78.0705V19.8338ZM80.6605 12.2563V9.66632H82.6905C83.863 9.66632 84.388 10.1388 84.388 10.9613C84.388 11.7838 83.863 12.2563 82.743 12.2563H80.6605ZM80.6605 17.5588V14.4788H82.848C84.3005 14.4788 84.948 15.0388 84.948 16.0363C84.948 17.0338 84.3005 17.5588 82.848 17.5588H80.6605Z" fill="var(--fill-0, #D6F6D9)"/>
<path d="M78.0705 19.8338H83.0755C85.6655 19.8338 87.4505 18.5038 87.4505 16.1763C87.4505 14.5663 86.5055 13.5863 85.3855 13.1488C86.103 12.7638 86.8205 11.8888 86.8205 10.7338C86.8205 8.68632 85.158 7.58382 82.9355 7.58382H78.0705V19.8338ZM80.6605 12.2563V9.66632H82.6905C83.863 9.66632 84.388 10.1388 84.388 10.9613C84.388 11.7838 83.863 12.2563 82.743 12.2563H80.6605ZM80.6605 17.5588V14.4788H82.848C84.3005 14.4788 84.948 15.0388 84.948 16.0363C84.948 17.0338 84.3005 17.5588 82.848 17.5588H80.6605Z" fill="url(#paint7_radial_8769_19172)" fill-opacity="0.2"/>
<path d="M91.6822 10.8738C89.2672 10.8738 87.8322 12.2913 87.7272 14.0588H89.8972C89.9322 13.3238 90.4747 12.6588 91.5422 12.6588C92.5397 12.6588 93.1172 13.1663 93.1172 13.9013C93.1172 14.2688 92.8897 14.5488 92.4522 14.5488H90.9647C89.0397 14.5488 87.7447 15.5988 87.7447 17.3313C87.7447 18.8363 88.9172 19.9738 90.6322 19.9738C91.8397 19.9738 92.8197 19.4313 93.1172 18.6088V19.8338H95.5321V14.1638C95.5321 12.1688 93.9046 10.8738 91.6822 10.8738ZM91.2447 18.2063C90.5622 18.2063 90.0722 17.8038 90.0722 17.2263C90.0722 16.5438 90.5972 16.0888 91.3322 16.0888H93.1172V16.2113C93.1172 17.3313 92.4347 18.2063 91.2447 18.2063Z" fill="var(--fill-0, #D6F6D9)"/>
<path d="M91.6822 10.8738C89.2672 10.8738 87.8322 12.2913 87.7272 14.0588H89.8972C89.9322 13.3238 90.4747 12.6588 91.5422 12.6588C92.5397 12.6588 93.1172 13.1663 93.1172 13.9013C93.1172 14.2688 92.8897 14.5488 92.4522 14.5488H90.9647C89.0397 14.5488 87.7447 15.5988 87.7447 17.3313C87.7447 18.8363 88.9172 19.9738 90.6322 19.9738C91.8397 19.9738 92.8197 19.4313 93.1172 18.6088V19.8338H95.5321V14.1638C95.5321 12.1688 93.9046 10.8738 91.6822 10.8738ZM91.2447 18.2063C90.5622 18.2063 90.0722 17.8038 90.0722 17.2263C90.0722 16.5438 90.5972 16.0888 91.3322 16.0888H93.1172V16.2113C93.1172 17.3313 92.4347 18.2063 91.2447 18.2063Z" fill="url(#paint8_radial_8769_19172)" fill-opacity="0.2"/>
<path d="M96.3269 19.8338H98.7769V15.0038C98.7769 13.8663 99.5294 13.0438 100.597 13.0438C101.612 13.0438 102.294 13.8138 102.294 14.8813V19.8338H104.744V14.3388C104.744 12.3088 103.449 10.8738 101.454 10.8738C100.247 10.8738 99.2669 11.3813 98.7769 12.2388V11.0138H96.3269V19.8338Z" fill="var(--fill-0, #D6F6D9)"/>
<path d="M96.3269 19.8338H98.7769V15.0038C98.7769 13.8663 99.5294 13.0438 100.597 13.0438C101.612 13.0438 102.294 13.8138 102.294 14.8813V19.8338H104.744V14.3388C104.744 12.3088 103.449 10.8738 101.454 10.8738C100.247 10.8738 99.2669 11.3813 98.7769 12.2388V11.0138H96.3269V19.8338Z" fill="url(#paint9_radial_8769_19172)" fill-opacity="0.2"/>
<path d="M111.727 19.8338H114.667L110.869 14.4788L114.387 11.0138H111.307L108.244 14.0238V7.18132H105.794V19.8338H108.244V17.0688L109.224 16.1063L111.727 19.8338Z" fill="var(--fill-0, #D6F6D9)"/>
<path d="M111.727 19.8338H114.667L110.869 14.4788L114.387 11.0138H111.307L108.244 14.0238V7.18132H105.794V19.8338H108.244V17.0688L109.224 16.1063L111.727 19.8338Z" fill="url(#paint10_radial_8769_19172)" fill-opacity="0.2"/>
</g>
</g>
<defs>
<radialGradient id="paint0_radial_8769_19172" cx="0" cy="0" r="1" gradientTransform="matrix(35.3354 11.9269 -0.747622 35.3357 -1.42261 2.24217)" gradientUnits="userSpaceOnUse">
<stop stop-color="white" stop-opacity="0"/>
<stop offset="1" stop-color="white" stop-opacity="0.4"/>
</radialGradient>
<radialGradient id="paint1_radial_8769_19172" cx="0" cy="0" r="1" gradientUnits="userSpaceOnUse" gradientTransform="translate(15.0923 6.99996) rotate(6.42516) scale(97.7389 14.9312)">
<stop stop-color="white"/>
<stop offset="1" stop-color="white" stop-opacity="0.4"/>
</radialGradient>
<radialGradient id="paint2_radial_8769_19172" cx="0" cy="0" r="1" gradientUnits="userSpaceOnUse" gradientTransform="translate(15.0923 6.99996) rotate(6.42516) scale(97.7389 14.9312)">
<stop stop-color="white"/>
<stop offset="1" stop-color="white" stop-opacity="0.4"/>
</radialGradient>
<radialGradient id="paint3_radial_8769_19172" cx="0" cy="0" r="1" gradientUnits="userSpaceOnUse" gradientTransform="translate(15.0923 6.99996) rotate(6.42516) scale(97.7389 14.9312)">
<stop stop-color="white"/>
<stop offset="1" stop-color="white" stop-opacity="0.4"/>
</radialGradient>
<radialGradient id="paint4_radial_8769_19172" cx="0" cy="0" r="1" gradientUnits="userSpaceOnUse" gradientTransform="translate(15.0923 6.99996) rotate(6.42516) scale(97.7389 14.9312)">
<stop stop-color="white"/>
<stop offset="1" stop-color="white" stop-opacity="0.4"/>
</radialGradient>
<radialGradient id="paint5_radial_8769_19172" cx="0" cy="0" r="1" gradientUnits="userSpaceOnUse" gradientTransform="translate(15.0923 6.99996) rotate(6.42516) scale(97.7389 14.9312)">
<stop stop-color="white"/>
<stop offset="1" stop-color="white" stop-opacity="0.4"/>
</radialGradient>
<radialGradient id="paint6_radial_8769_19172" cx="0" cy="0" r="1" gradientUnits="userSpaceOnUse" gradientTransform="translate(15.0923 6.99996) rotate(6.42516) scale(97.7389 14.9312)">
<stop stop-color="white"/>
<stop offset="1" stop-color="white" stop-opacity="0.4"/>
</radialGradient>
<radialGradient id="paint7_radial_8769_19172" cx="0" cy="0" r="1" gradientUnits="userSpaceOnUse" gradientTransform="translate(15.0923 6.99996) rotate(6.42516) scale(97.7389 14.9312)">
<stop stop-color="white"/>
<stop offset="1" stop-color="white" stop-opacity="0.4"/>
</radialGradient>
<radialGradient id="paint8_radial_8769_19172" cx="0" cy="0" r="1" gradientUnits="userSpaceOnUse" gradientTransform="translate(15.0923 6.99996) rotate(6.42516) scale(97.7389 14.9312)">
<stop stop-color="white"/>
<stop offset="1" stop-color="white" stop-opacity="0.4"/>
</radialGradient>
<radialGradient id="paint9_radial_8769_19172" cx="0" cy="0" r="1" gradientUnits="userSpaceOnUse" gradientTransform="translate(15.0923 6.99996) rotate(6.42516) scale(97.7389 14.9312)">
<stop stop-color="white"/>
<stop offset="1" stop-color="white" stop-opacity="0.4"/>
</radialGradient>
<radialGradient id="paint10_radial_8769_19172" cx="0" cy="0" r="1" gradientUnits="userSpaceOnUse" gradientTransform="translate(15.0923 6.99996) rotate(6.42516) scale(97.7389 14.9312)">
<stop stop-color="white"/>
<stop offset="1" stop-color="white" stop-opacity="0.4"/>
</radialGradient>
</defs>
</svg>
