<svg preserveAspectRatio="none" width="100%" height="100%" overflow="visible" style="display: block;" viewBox="0 0 16 16" fill="none" xmlns="http://www.w3.org/2000/svg">
<g id="heart">
<path id="Vector" d="M10.9603 1.89974C13.0943 1.8999 14.8333 3.64915 14.8333 5.79329C14.8333 7.98283 13.868 9.82611 12.5785 11.2376C11.2859 12.6524 9.68527 13.6132 8.46517 14.0316L8.46029 14.0335C8.3406 14.0766 8.18149 14.0999 8.00033 14.0999C7.81889 14.0999 7.65917 14.0767 7.53939 14.0335L7.53451 14.0316L7.30208 13.9466C6.11626 13.4911 4.63315 12.5629 3.42122 11.2357C2.13158 9.8232 1.16634 7.97942 1.16634 5.79329C1.1664 3.64273 2.90586 1.89974 5.04036 1.89974C6.07841 1.89983 7.04614 2.30485 7.76302 3.02767L8.00033 3.26693L8.23665 3.02767C8.95363 2.30466 9.92202 1.89974 10.9603 1.89974ZM10.9671 2.23372C9.84799 2.23372 8.80837 2.75694 8.139 3.66146L8.13802 3.66243C8.11838 3.68892 8.07335 3.71712 8.00618 3.71712C7.9393 3.71699 7.89492 3.68885 7.87533 3.66243L7.87337 3.66048L7.74154 3.49447C7.06199 2.68803 6.08977 2.23383 5.04036 2.23372C3.08784 2.23372 1.50038 3.83105 1.50033 5.79329C1.50033 8.18591 2.65259 10.0386 3.98177 11.348C5.30674 12.6532 6.83107 13.4434 7.64583 13.722L7.64779 13.723C7.75844 13.7599 7.89576 13.7699 8.00326 13.7699C8.11075 13.7699 8.24805 13.7599 8.35872 13.723L8.36165 13.722C9.17256 13.4435 10.6959 12.6544 12.0218 11.3499C13.3519 10.0414 14.5062 8.18933 14.5062 5.79329C14.5061 3.8312 12.9194 2.23397 10.9671 2.23372Z" fill="var(--fill-0, #292D32)" stroke="var(--stroke-0, #041117)" stroke-width="0.666667"/>
<g id="Vector_2" opacity="0">
</g>
</g>
</svg>
