<svg preserveAspectRatio="none" width="100%" height="100%" overflow="visible" style="display: block;" viewBox="0 0 144 43" fill="none" xmlns="http://www.w3.org/2000/svg">
<g id="Vector">
<path d="M74.2852 31.7883C74.2852 34.8908 73.3766 37.2851 71.5594 38.9712C69.7758 40.6574 67.4369 41.5004 64.5428 41.5004H55.6585C55.4903 41.5004 55.3388 41.4498 55.2042 41.3487C55.1033 41.2138 55.0528 41.062 55.0528 40.8934V6.6988C55.0528 6.53019 55.1033 6.3953 55.2042 6.29413C55.3388 6.15924 55.4903 6.09179 55.6585 6.09179H63.6342C66.8312 6.09179 69.3383 6.90113 71.1555 8.51982C72.9728 10.1385 73.8814 12.4991 73.8814 15.6015C73.8814 19.075 72.6531 21.5536 70.1964 23.0374C70.0282 23.1385 69.9945 23.2397 70.0955 23.3409C71.4079 24.1839 72.4343 25.3136 73.1747 26.73C73.915 28.1463 74.2852 29.8324 74.2852 31.7883ZM61.1607 11.1502C60.9925 11.1502 60.9083 11.2345 60.9083 11.4031V20.8117C60.9083 20.9803 60.9925 21.0646 61.1607 21.0646H63.7351C65.1149 21.0646 66.1918 20.6431 66.9658 19.8C67.7398 18.9569 68.1268 17.7598 68.1268 16.2085C68.1268 14.5899 67.7398 13.3421 66.9658 12.4654C66.1918 11.5886 65.1149 11.1502 63.7351 11.1502H61.1607ZM64.0885 36.3915C65.4346 36.3915 66.4946 35.9194 67.2687 34.9751C68.0427 34.0309 68.4297 32.6989 68.4297 30.979C68.4297 29.2254 68.0427 27.8597 67.2687 26.8817C66.4946 25.87 65.4346 25.3642 64.0885 25.3642H61.1607C60.9925 25.3642 60.9083 25.4485 60.9083 25.6171V36.1385C60.9083 36.3072 60.9925 36.3915 61.1607 36.3915H64.0885Z" fill="#01A6E1"/>
<path d="M51.7428 10.7C51.7428 10.8686 51.6755 11.0203 51.5409 11.1552C51.4399 11.2564 51.3053 11.307 51.1371 11.307H40.2336C40.0654 11.307 39.9813 11.3913 39.9813 11.5599V21.1202C39.9813 21.2888 40.0654 21.3731 40.2336 21.3731H46.6949C46.8632 21.3731 46.9978 21.4406 47.0988 21.5755C47.2334 21.6766 47.3007 21.8115 47.3007 21.9801V25.8751C47.3007 26.0437 47.2334 26.1955 47.0988 26.3304C46.9978 26.4315 46.8632 26.4821 46.6949 26.4821H40.2336C40.0654 26.4821 39.9813 26.5664 39.9813 26.735V36.3459C39.9813 36.5145 40.0654 36.5989 40.2336 36.5989H51.1371C51.3053 36.5989 51.4399 36.6663 51.5409 36.8012C51.6755 36.9024 51.7428 37.0372 51.7428 37.2059V41.0502C51.7428 41.2188 51.6755 41.3706 51.5409 41.5055C51.4399 41.6066 51.3053 41.6572 51.1371 41.6572H34.7315C34.5632 41.6572 34.4118 41.6066 34.2772 41.5055C34.1762 41.3706 34.1257 41.2188 34.1257 41.0502V6.8556C34.1257 6.68699 34.1762 6.5521 34.2772 6.45093C34.4118 6.31604 34.5632 6.24859 34.7315 6.24859H51.1371C51.3053 6.24859 51.4399 6.31604 51.5409 6.45093C51.6755 6.5521 51.7428 6.68699 51.7428 6.8556V10.7Z" fill="#01A6E1"/>
<path d="M7.42038 41.6572C7.01655 41.6572 6.79781 41.4718 6.76416 41.1008L0.0504787 6.90618L0 6.70385C0 6.40035 0.185089 6.24859 0.555267 6.24859H5.40123C5.80506 6.24859 6.0238 6.43407 6.05745 6.80502L9.59097 27.8984C9.62462 27.9996 9.6751 28.0502 9.74241 28.0502C9.80971 28.0502 9.86019 27.9996 9.89384 27.8984L13.074 6.80502C13.1077 6.43407 13.3264 6.24859 13.7302 6.24859H17.7685C18.1724 6.24859 18.3911 6.43407 18.4248 6.80502L21.8573 27.8984C21.891 27.9996 21.9414 28.0502 22.0088 28.0502C22.0761 28.0502 22.1265 27.9996 22.1602 27.8984L25.3403 6.80502C25.374 6.43407 25.5927 6.24859 25.9966 6.24859H30.6911C31.1286 6.24859 31.3137 6.46779 31.2464 6.90618L24.8356 41.1008C24.8019 41.4718 24.5832 41.6572 24.1793 41.6572H19.8886C19.4848 41.6572 19.2661 41.4718 19.2324 41.1008L15.8503 19.6027C15.8167 19.4678 15.7662 19.4004 15.6989 19.4004C15.6316 19.4004 15.5811 19.4678 15.5475 19.6027L12.4178 41.1008C12.3841 41.4718 12.1654 41.6572 11.7616 41.6572H7.42038Z" fill="#01A6E1"/>
<path d="M137.641 42.0165C137.453 42.0165 137.284 41.9598 137.133 41.8466C137.02 41.6956 136.963 41.5257 136.963 41.3369V3.05619C136.963 2.86743 137.02 2.71642 137.133 2.60317C137.284 2.45216 137.453 2.37665 137.641 2.37665H142.84C143.029 2.37665 143.179 2.45216 143.292 2.60317C143.443 2.71642 143.519 2.86743 143.519 3.05619V41.3369C143.519 41.5257 143.443 41.6956 143.292 41.8466C143.179 41.9598 143.029 42.0165 142.84 42.0165H137.641Z" fill="white"/>
<path d="M126.563 42.0165C126.374 42.0165 126.205 41.9598 126.054 41.8466C125.941 41.6956 125.885 41.5257 125.885 41.3369V13.2483C125.885 13.0595 125.941 12.9085 126.054 12.7952C126.205 12.6442 126.374 12.5687 126.563 12.5687H131.762C131.95 12.5687 132.101 12.6442 132.214 12.7952C132.364 12.9085 132.44 12.8342 132.44 13.0229V41.3369C132.44 41.5257 132.364 41.6956 132.214 41.8466C132.101 41.9598 131.95 42.0165 131.762 42.0165H126.563Z" fill="white"/>
<path d="M114.875 12.6266C117.323 12.6266 119.17 13.4949 120.413 15.2315C121.694 16.9303 122.334 19.3087 122.334 22.3667V41.3371C122.334 41.5259 122.259 41.6958 122.108 41.8468C121.995 41.9601 121.844 42.0167 121.656 42.0167H116.514C116.325 42.0167 116.156 41.9601 116.005 41.8468C115.892 41.6958 115.835 41.5259 115.835 41.3371V22.8197C115.835 21.3851 115.553 20.2714 114.988 19.4786C114.423 18.6858 113.65 18.2894 112.671 18.2894C111.616 18.2894 110.787 18.6858 110.184 19.4786C109.582 20.2714 109.28 21.3662 109.28 22.7631V41.3371C109.28 41.5259 109.205 41.6958 109.054 41.8468C108.941 41.9601 108.79 42.0167 108.602 42.0167H103.46C103.271 42.0167 103.102 41.9601 102.951 41.8468C102.838 41.6958 102.781 41.5259 102.781 41.3371V22.8197C102.781 21.3851 102.48 20.2714 101.877 19.4786C101.312 18.6858 100.559 18.2894 99.6168 18.2894C98.5619 18.2894 97.7331 18.6858 97.1303 19.4786C96.5275 20.2714 96.2261 21.3662 96.2261 22.7631V41.3371C96.2261 41.5259 96.1508 41.6958 96.0001 41.8468C95.8871 41.9601 95.7364 42.0167 95.548 42.0167H90.4055C90.2171 42.0167 90.0476 41.9601 89.8969 41.8468C89.7839 41.6958 89.7274 41.5259 89.7274 41.3371V13.7592C89.7274 13.5704 89.7839 13.4194 89.8969 13.3061C90.0476 13.1551 90.2171 13.0796 90.4055 13.0796H95.548C95.7364 13.0796 95.8871 13.1551 96.0001 13.3061C96.1508 13.4194 96.2261 13.5704 96.2261 13.7592V14.6652C96.2261 14.7785 96.2638 14.854 96.3392 14.8917C96.4145 14.9295 96.4899 14.8917 96.5652 14.7785C97.3187 14.0234 98.1663 13.476 99.1082 13.1362C100.05 12.7965 100.973 12.6266 101.877 12.6266C104.665 12.6266 106.718 13.8158 108.037 16.1942C108.15 16.3452 108.319 16.2886 108.545 16.0243C109.299 14.8162 110.241 13.9479 111.371 13.4194C112.539 12.8909 113.707 12.6266 114.875 12.6266Z" fill="white"/>
<path d="M81.5459 42.1296C80.378 42.1296 79.4173 41.7521 78.6638 40.9971C77.9104 40.242 77.5336 39.2793 77.5336 38.109C77.5336 36.9387 77.9104 35.976 78.6638 35.221C79.4173 34.4659 80.378 34.0884 81.5459 34.0884C82.7138 34.0884 83.6556 34.4659 84.3714 35.221C85.1249 35.976 85.5016 36.9387 85.5016 38.109C85.5016 39.2793 85.1249 40.242 84.3714 40.9971C83.6179 41.7521 82.6761 42.1296 81.5459 42.1296Z" fill="white"/>
<path d="M128.726 0.152607C128.792 -0.050869 129.079 -0.0508689 129.145 0.152607L130.186 3.36238C130.216 3.45338 130.3 3.51498 130.396 3.51498H133.764C133.977 3.51498 134.066 3.78876 133.893 3.91451L131.169 5.89826C131.091 5.9545 131.059 6.05419 131.088 6.14519L132.129 9.35496C132.195 9.55843 131.963 9.72763 131.79 9.60188L129.065 7.61813C128.988 7.56189 128.884 7.56189 128.806 7.61813L126.082 9.60188C125.909 9.72763 125.676 9.55843 125.742 9.35496L126.783 6.14519C126.813 6.05419 126.78 5.9545 126.703 5.89826L123.978 3.91451C123.806 3.78876 123.894 3.51498 124.108 3.51498H127.476C127.571 3.51498 127.656 3.45338 127.685 3.36238L128.726 0.152607Z" fill="var(--fill-0, white)"/>
</g>
</svg>
