<svg preserveAspectRatio="none" width="100%" height="100%" overflow="visible" style="display: block;" viewBox="0 0 7 9" fill="none" xmlns="http://www.w3.org/2000/svg">
<g id="XMLID_18_">
<path id="XMLID_362_" d="M6.00488 1.01953C6.19803 0.826455 6.51189 0.826513 6.70508 1.01953C6.87428 1.18873 6.89552 1.45042 6.76855 1.64258L6.70508 1.71973L2.09961 6.32617C1.9484 6.47747 1.86523 6.67772 1.86523 6.8916C1.86526 7.10548 1.9483 7.30585 2.09961 7.45703C2.25089 7.60831 2.45123 7.69136 2.66504 7.69141C2.87902 7.69141 3.08015 7.60839 3.23145 7.45703C3.42476 7.26406 3.73846 7.26385 3.93164 7.45703C4.12478 7.65031 4.1246 7.96389 3.93164 8.15723C3.59371 8.49523 3.14301 8.68164 2.66504 8.68164C2.18715 8.68157 1.73734 8.49507 1.39941 8.15723C1.06148 7.81932 0.875022 7.36948 0.875 6.8916C0.875 6.41371 1.0616 5.96388 1.39941 5.62598L6.00488 1.01953Z" fill="var(--fill-0, #9356E2)" stroke="var(--stroke-0, #9356E2)" stroke-width="0.25"/>
</g>
</svg>
