<svg preserveAspectRatio="none" width="100%" height="100%" overflow="visible" style="display: block;" viewBox="0 0 28 30" fill="none" xmlns="http://www.w3.org/2000/svg">
<g id="Icon Group">
<path id="Vector" d="M11.6667 16.6667V10C11.6667 9.08333 10.9167 8.33333 10 8.33333H3.33333V5H10C10.9167 5 11.6667 4.25 11.6667 3.33333C11.6667 2.41667 10.9167 1.66667 10 1.66667H7.5C7.5 0.75 6.75 0 5.83333 0C4.91667 0 4.16667 0.75 4.16667 1.66667H1.66667C0.75 1.66667 0 2.41667 0 3.33333V10C0 10.9167 0.75 11.6667 1.66667 11.6667H8.33333V15H1.66667C0.75 15 0 15.75 0 16.6667C0 17.5833 0.75 18.3333 1.66667 18.3333H4.16667C4.16667 19.25 4.91667 20 5.83333 20C6.75 20 7.5 19.25 7.5 18.3333H10C10.9167 18.3333 11.6667 17.5833 11.6667 16.6667Z" fill="var(--fill-0, black)"/>
<path id="Vector_2" d="M24.7999 17.0337L16.5499 25.2837L13.0165 21.7504C12.3665 21.1004 11.3165 21.1004 10.6665 21.7504C10.0165 22.4004 10.0165 23.4504 10.6665 24.1004L15.3832 28.8171C16.0332 29.4671 17.0832 29.4671 17.7332 28.8171L27.1665 19.3837C27.8165 18.7337 27.8165 17.6837 27.1665 17.0337C26.4999 16.3837 25.4499 16.3837 24.7999 17.0337Z" fill="var(--fill-0, black)"/>
</g>
</svg>
